<svg width="512" height="512" viewBox="0 0 512 512" fill="none" xmlns="http://www.w3.org/2000/svg">
<g clip-path="url(#clip0_1_125)">
<path d="M140.21 337.111C137.953 338.809 136.519 341.383 136.263 344.196C136.007 347.009 136.952 349.799 138.867 351.876L144.902 358.43C157.728 372.356 175.944 380.344 194.877 380.344C213.811 380.344 232.025 372.357 244.853 358.43L250.888 351.877C252.802 349.8 253.747 347.01 253.492 344.197C253.237 341.384 251.802 338.81 249.545 337.112L233.646 325.152C222.321 316.633 207.637 314.925 194.878 320.293C182.122 314.928 167.437 316.635 156.11 325.152L140.21 337.111ZM168.131 341.135C174.462 336.375 182.927 335.947 189.702 340.043C192.884 341.967 196.868 341.967 200.05 340.043C206.825 335.946 215.294 336.375 221.621 341.134L228.653 346.425C219.711 355.296 207.52 360.344 194.876 360.344C182.233 360.344 170.041 355.295 161.099 346.425L168.131 341.135Z" fill="#9B8F22"/>
<path d="M69.167 193.136C65.2621 197.041 65.2621 203.372 69.167 207.278C79.0757 217.186 92.0903 222.14 105.105 222.14C118.12 222.14 131.134 217.186 141.043 207.278C144.948 203.373 144.948 197.042 141.043 193.136C137.137 189.231 130.807 189.231 126.9 193.136C121.079 198.958 113.339 202.164 105.104 202.164C96.8692 202.164 89.1294 198.958 83.3076 193.136C79.4027 189.231 73.0728 189.231 69.167 193.136Z" fill="#9B8F22"/>
<path d="M320.586 207.278C324.491 203.373 324.491 197.042 320.586 193.136C316.68 189.231 310.35 189.231 306.443 193.136C300.622 198.958 292.882 202.164 284.647 202.164C276.412 202.164 268.672 198.958 262.851 193.136C258.945 189.231 252.615 189.231 248.708 193.136C244.803 197.041 244.803 203.372 248.708 207.278C258.617 217.186 271.631 222.14 284.646 222.14C297.661 222.14 310.677 217.186 320.586 207.278Z" fill="#9B8F22"/>
<path d="M184.538 207.149C179.016 207.149 174.538 211.626 174.538 217.149V270.662C174.538 281.876 183.662 291 194.877 291C200.398 291 204.876 286.523 204.876 281C204.876 275.478 200.398 271.001 194.877 271.001C194.69 271.001 194.538 270.849 194.538 270.662V217.149C194.538 211.626 190.06 207.149 184.538 207.149Z" fill="#9B8F22"/>
<path d="M392.773 273.562C390.869 273.562 388.977 273.612 387.095 273.7C388.585 263.344 389.352 252.849 389.352 242.356V171.336C389.352 96.2395 339.258 29.8693 267.532 9.93585C235.001 0.8941 201.428 -1.99682 167.755 1.34609C162.259 1.89107 158.247 6.78794 158.791 12.2838C159.336 17.7796 164.234 21.7975 169.729 21.2475C200.933 18.1516 232.04 20.8296 262.176 29.2053C325.279 46.7428 369.353 105.189 369.353 171.336V242.356C369.353 253.814 368.357 265.272 366.408 276.505C313.314 288.537 273.553 336.1 273.553 392.78C273.553 399.127 274.057 405.357 275.017 411.439C250.516 426.598 223.527 436.048 194.679 439.547C95.0192 427.439 20.0063 342.871 20.0063 242.356V171.336C20.0063 146.209 26.4281 121.333 38.5758 99.3944C50.5625 77.75 67.862 59.3865 88.6044 46.2899C93.2743 43.3409 94.6692 37.1651 91.7213 32.4962C88.7734 27.8274 82.5986 26.4304 77.9267 29.3793C54.3493 44.2669 34.6909 65.1273 21.0803 89.7057C7.29364 114.601 0.00683594 142.828 0.00683594 171.336V242.356C0.00683594 353.418 83.2035 446.791 193.531 459.551C193.912 459.595 194.296 459.617 194.679 459.617C195.062 459.617 195.445 459.595 195.826 459.551C225.465 456.124 254.335 446.55 280.081 431.697C296.25 478.383 340.657 512 392.772 512C458.509 512 511.992 458.519 511.992 392.78C511.993 327.043 458.51 273.562 392.773 273.562ZM392.773 492.001C338.063 492.001 293.553 447.491 293.553 392.78C293.553 338.07 338.063 293.561 392.773 293.561C447.484 293.561 491.993 338.071 491.993 392.78C491.993 447.49 447.484 492.001 392.773 492.001Z" fill="#9B8F22"/>
<path d="M419.159 332.903C398.09 334.119 378.263 343.014 363.326 357.949C343.677 377.6 334.864 405.012 339.188 432.221L335.775 435.634C331.87 439.539 331.87 445.871 335.775 449.777C337.728 451.729 340.287 452.706 342.846 452.706C345.405 452.706 347.964 451.729 349.916 449.777L353.334 446.359C357.877 447.081 362.424 447.443 366.942 447.443C389.476 447.443 411.233 438.592 427.6 422.226C442.535 407.291 451.43 387.463 452.647 366.393C453.168 357.359 449.804 348.517 443.418 342.131C437.034 335.745 428.192 332.383 419.159 332.903ZM432.681 365.239C431.747 381.406 424.92 396.62 413.459 408.082C402.263 419.278 387.783 425.869 372.519 427.174L382.983 416.71C386.887 412.805 386.887 406.473 382.983 402.567C379.077 398.663 372.747 398.663 368.84 402.567L358.377 413.03C359.684 397.766 366.274 383.284 377.468 372.089C388.93 360.627 404.145 353.801 420.311 352.868C423.698 352.677 426.887 353.88 429.278 356.27C431.669 358.661 432.877 361.847 432.681 365.239Z" fill="#9B8F22"/>
<path d="M54.9195 447.088H44.7528V436.921C44.7528 431.398 40.2749 426.921 34.7531 426.921C29.2312 426.921 24.7534 431.398 24.7534 436.921V447.088H14.5866C9.06479 447.088 4.58691 451.565 4.58691 457.088C4.58691 462.61 9.06479 467.087 14.5866 467.087H24.7534V477.254C24.7534 482.777 29.2312 487.254 34.7531 487.254C40.2749 487.254 44.7528 482.777 44.7528 477.254V467.087H54.9195C60.4414 467.087 64.9193 462.61 64.9193 457.088C64.9193 451.565 60.4414 447.088 54.9195 447.088Z" fill="#9B8F22"/>
<path d="M419.685 165.053H429.852V175.219C429.852 180.742 434.33 185.219 439.852 185.219C445.374 185.219 449.851 180.742 449.851 175.219V165.053H460.018C465.54 165.053 470.018 160.576 470.018 155.053C470.018 149.53 465.54 145.053 460.018 145.053H449.851V134.886C449.851 129.364 445.374 124.887 439.852 124.887C434.33 124.887 429.852 129.364 429.852 134.886V145.053H419.685C414.163 145.053 409.686 149.53 409.686 155.053C409.686 160.576 414.163 165.053 419.685 165.053Z" fill="#9B8F22"/>
<path d="M124.504 29.5708C130.027 29.5708 134.504 25.0936 134.504 19.5708C134.504 14.048 130.027 9.5708 124.504 9.5708C118.981 9.5708 114.504 14.048 114.504 19.5708C114.504 25.0936 118.981 29.5708 124.504 29.5708Z" fill="#9B8F22"/>
</g>
<defs>
<clipPath id="clip0_1_125">
<rect width="512" height="512" fill="white"/>
</clipPath>
</defs>
</svg>
