<svg width="512" height="512" viewBox="0 0 512 512" fill="none" xmlns="http://www.w3.org/2000/svg">
<g clip-path="url(#clip0_1_176)">
<path d="M424.167 306.774V268.091C424.167 262.569 419.69 258.091 414.167 258.091H406.551C401.761 229.014 376.46 206.759 346.047 206.759C328.833 206.759 312.976 197.39 304.644 182.27C303.006 179.322 299.993 177.398 296.629 177.153C293.263 176.904 290.004 178.375 287.957 181.054L282.494 188.202C273.614 199.821 259.581 206.759 244.956 206.759H165.955C135.543 206.759 110.242 229.014 105.451 258.091H97.835C92.312 258.091 87.835 262.569 87.835 268.091V306.774C69.879 309.243 56.001 324.676 56.001 343.299V443.795C56.001 481.404 86.598 512.001 124.207 512.001H387.796C425.405 512.001 456.002 481.404 456.002 443.795V343.299C456.001 324.676 442.122 309.243 424.167 306.774ZM165.955 226.759H244.956C264.251 226.759 282.822 218.275 295.499 203.863C308.116 218.241 326.463 226.759 346.046 226.759C365.39 226.759 381.672 240.115 386.155 258.091H125.845C130.329 240.115 146.611 226.759 165.955 226.759ZM436.001 443.795C436.001 470.376 414.376 492.001 387.795 492.001H124.206C97.625 492.001 76 470.376 76 443.795V343.299C76 333.992 83.572 326.42 92.879 326.42H211C216.523 326.42 221 321.942 221 316.42C221 310.898 216.523 306.42 211 306.42H107.835V278.091H404.167V306.42H301.001C295.478 306.42 291.001 310.898 291.001 316.42C291.001 321.942 295.478 326.42 301.001 326.42H419.122C428.429 326.42 436.001 333.992 436.001 343.299V443.795Z" fill="#9B8F22"/>
<path d="M256 357.233C227.34 357.233 204.023 380.549 204.023 409.21C204.023 437.871 227.339 461.188 256 461.188C284.661 461.188 307.977 437.871 307.977 409.21C307.977 380.549 284.66 357.233 256 357.233ZM256 441.187C238.368 441.187 224.023 426.842 224.023 409.209C224.023 391.577 238.368 377.232 256 377.232C273.632 377.232 287.977 391.577 287.977 409.209C287.976 426.842 273.631 441.187 256 441.187Z" fill="#9B8F22"/>
<path d="M172.264 119.446C189.492 136.674 212.385 145.987 236.104 145.987C239.399 145.987 242.711 145.805 246.025 145.442V162.365C246.025 167.887 250.502 172.365 256.025 172.365C261.548 172.365 266.025 167.887 266.025 162.365V119.668C269.322 120.028 272.616 120.208 275.896 120.208C299.613 120.208 322.511 110.894 339.737 93.6682C355.455 77.9502 364.816 57.0822 366.096 34.9082C366.638 25.5082 363.138 16.3042 356.493 9.66023C349.847 3.01423 340.643 -0.495766 331.245 0.057234C309.071 1.33723 288.203 10.6992 272.486 26.4162C261.665 37.2372 253.975 50.2972 249.746 64.3912C246.728 60.0862 243.32 55.9992 239.515 52.1952C223.797 36.4772 202.929 27.1162 180.755 25.8372C171.357 25.2892 162.152 28.7942 155.507 35.4402C148.862 42.0852 145.362 51.2872 145.905 60.6872C147.185 82.8602 156.547 103.728 172.264 119.446ZM286.629 40.5592C298.874 28.3142 315.129 21.0212 332.399 20.0242C336.172 19.8022 339.699 21.1492 342.352 23.8012C345.005 26.4542 346.347 29.9892 346.13 33.7552C345.133 51.0262 337.84 67.2792 325.595 79.5252C313.24 91.8802 297.137 99.0052 280.238 100.059L301.32 78.9772C305.225 75.0722 305.225 68.7402 301.32 64.8342C297.415 60.9302 291.083 60.9302 287.178 64.8342L266.096 85.9162C267.148 69.0152 274.273 52.9142 286.629 40.5592ZM169.65 49.5802C172.117 47.1132 175.347 45.7802 178.816 45.7802C179.077 45.7802 179.34 45.7872 179.604 45.8022C196.874 46.7982 213.129 54.0912 225.374 66.3362C237.73 78.6912 244.855 94.7932 245.908 111.694L228.957 94.7432C225.052 90.8392 218.72 90.8392 214.815 94.7432C210.91 98.6482 210.91 104.98 214.815 108.886L231.766 125.837C214.864 124.784 198.764 117.658 186.408 105.302C174.163 93.0572 166.87 76.8032 165.873 59.5322C165.655 55.7692 166.996 52.2342 169.65 49.5802Z" fill="#9B8F22"/>
<path d="M401.118 169.397H414.558V182.837C414.558 188.359 419.035 192.837 424.558 192.837C430.081 192.837 434.558 188.359 434.558 182.837V169.397H447.999C453.522 169.397 457.999 164.919 457.999 159.397C457.999 153.875 453.522 149.397 447.999 149.397H434.559V135.957C434.559 130.435 430.082 125.957 424.559 125.957C419.036 125.957 414.559 130.435 414.559 135.957V149.397H401.119C395.596 149.397 391.119 153.875 391.119 159.397C391.119 164.919 395.595 169.397 401.118 169.397Z" fill="#9B8F22"/>
<path d="M64.001 120.356H77.442V133.797C77.442 139.319 81.919 143.797 87.442 143.797C92.965 143.797 97.442 139.319 97.442 133.797V120.356H110.882C116.405 120.356 120.882 115.878 120.882 110.356C120.882 104.834 116.405 100.356 110.882 100.356H97.442V86.916C97.442 81.394 92.965 76.916 87.442 76.916C81.919 76.916 77.442 81.394 77.442 86.916V100.356H64.001C58.478 100.356 54.001 104.834 54.001 110.356C54.001 115.878 58.478 120.356 64.001 120.356Z" fill="#9B8F22"/>
<path d="M134.401 179.969C139.924 179.969 144.401 175.492 144.401 169.969C144.401 164.446 139.924 159.969 134.401 159.969C128.878 159.969 124.401 164.446 124.401 169.969C124.401 175.492 128.878 179.969 134.401 179.969Z" fill="#9B8F22"/>
<path d="M256 326.419C261.523 326.419 266 321.942 266 316.419C266 310.897 261.523 306.419 256 306.419C250.478 306.419 246 310.897 246 316.419C246 321.942 250.478 326.419 256 326.419Z" fill="#9B8F22"/>
<path d="M401.579 97.7842C407.102 97.7842 411.579 93.307 411.579 87.7842C411.579 82.2613 407.102 77.7842 401.579 77.7842C396.056 77.7842 391.579 82.2613 391.579 87.7842C391.579 93.307 396.056 97.7842 401.579 97.7842Z" fill="#9B8F22"/>
</g>
<defs>
<clipPath id="clip0_1_176">
<rect width="512" height="512" fill="white"/>
</clipPath>
</defs>
</svg>
