<svg width="512" height="512" viewBox="0 0 512 512" fill="none" xmlns="http://www.w3.org/2000/svg">
<g clip-path="url(#clip0_1_143)">
<path d="M500.132 297.718C494.908 284.557 481.471 276.801 467.465 278.858C462.436 279.596 457.485 280.581 452.613 281.777C456.673 264.563 458.728 246.884 458.728 229.008C458.728 162.861 430.124 99.9555 380.251 56.42C376.091 52.7889 369.774 53.2159 366.141 57.378C362.509 61.5392 362.938 67.8564 367.099 71.4885C385.23 87.3151 400.27 105.954 411.818 126.459H341.679C335.585 126.459 329.922 129.202 326.142 133.983L309.32 155.267C302.725 163.612 299.092 174.064 299.092 184.7C299.092 210.873 320.386 232.167 346.559 232.167H381.082C388.553 232.167 395.556 236.16 399.36 242.589L427.546 290.214C400.46 301.963 377.203 321.191 360.409 346.111C337.374 311.931 302.181 288.449 261.633 280.303L257.119 269.387C251.991 256.99 240.008 248.98 226.593 248.98H171.879V232.129C171.879 226.7 176.296 222.284 181.725 222.284H205.848C214.85 222.284 223.596 218.564 229.838 212.077C237.719 203.89 240.867 192.4 238.258 181.339C235.649 170.279 227.698 161.406 216.989 157.604C216.027 157.263 215.493 156.574 215.402 155.558C215.311 154.542 215.713 153.77 216.599 153.263L237.585 141.233C252.068 132.931 260.113 116.263 257.605 99.7575C254.322 78.1567 234.739 63.0482 213.005 65.3613L176.134 69.2874C173.797 69.5374 171.548 68.8084 169.801 67.2374C168.053 65.6663 167.091 63.5062 167.091 61.1561V29.591C186.872 23.3648 207.911 20.0007 229.721 20.0007C251.191 20.0007 272.356 23.2408 292.631 29.632C297.898 31.2921 303.515 28.367 305.176 23.1008C306.836 17.8326 303.912 12.2174 298.644 10.5564C276.421 3.55212 253.232 0 229.72 0C168.55 0 111.041 23.8208 67.7863 67.0754C24.5318 110.33 0.711914 167.838 0.711914 229.008C0.711914 290.178 24.5328 347.687 67.7873 390.941C111.042 434.194 168.55 458.016 229.72 458.016C235.536 458.016 241.39 457.786 247.187 457.349C275.223 490.25 316.246 510.213 360.543 511.995C360.68 512.001 360.411 512 360.543 511.995C360.543 511.997 360.542 511.995 360.543 511.995C414.581 509.821 463.232 480.604 490.236 433.832C514.308 392.138 517.916 342.526 500.132 297.718ZM381.082 212.166H346.559C331.414 212.166 319.093 199.845 319.093 184.7C319.093 178.546 321.195 172.498 325.01 167.67L341.774 146.461H421.718C432.81 172.254 438.728 200.294 438.728 229.009C438.728 241.039 437.705 252.969 435.687 264.7L416.573 232.403C409.185 219.921 395.587 212.166 381.082 212.166ZM238.636 277.033L239.827 279.912C231.305 282.573 224.168 288.94 220.684 297.718C209.609 325.621 206.834 355.388 212.127 383.947L193.209 378.075C184.861 375.485 179.252 367.872 179.252 359.132V335.711C179.252 325.315 175.271 315.478 168.043 308.009L152.312 291.753V268.981H226.592C231.886 268.981 236.613 272.142 238.636 277.033ZM147.088 37.0443V61.1561C147.088 69.1364 150.491 76.7737 156.425 82.1099C162.359 87.4451 170.313 90.0182 178.249 89.1761L215.12 85.25C226.187 84.073 236.157 91.7652 237.829 102.763C239.106 111.166 235.01 119.653 227.636 123.88L206.65 135.91C198.967 140.314 194.688 148.529 195.481 157.35C196.274 166.17 201.951 173.489 210.296 176.451C214.637 177.992 217.734 181.447 218.791 185.931C219.849 190.414 218.623 194.888 215.427 198.206C212.934 200.796 209.442 202.282 205.847 202.282H181.724C165.267 202.282 151.877 215.672 151.877 232.128V248.979H151.848L104.124 197.963C102.232 195.942 99.5884 194.795 96.8203 194.795H62.8131C48.1686 194.795 34.8831 186.708 28.0879 173.944C44.9265 112.353 89.291 62.0192 147.088 37.0443ZM229.72 438.015C114.473 438.015 20.7126 344.255 20.7126 229.008C20.7126 218.93 21.4446 209.019 22.8307 199.318C33.5491 209.086 47.7026 214.798 62.8131 214.798H92.4821L132.312 257.374V295.8C132.312 298.396 133.321 300.89 135.126 302.755L153.67 321.918C157.27 325.637 159.252 330.536 159.252 335.711V359.132C159.252 376.684 170.516 391.974 187.28 397.177L218.193 406.77C221.428 416.059 225.551 425.12 230.581 433.833C231.388 435.23 232.216 436.61 233.061 437.976C231.947 437.993 230.832 438.015 229.72 438.015ZM247.902 423.832C226.904 387.464 223.759 344.185 239.274 305.097C241.032 300.668 245.734 297.957 250.446 298.646C292.055 304.756 327.962 329.118 348.959 365.487C349.011 365.577 349.059 365.67 349.111 365.76C338.455 387.782 333.222 411.564 333.473 435.353L311.521 397.331L319.141 368.893C320.571 363.558 317.405 358.075 312.07 356.645C306.733 355.214 301.251 358.381 299.821 363.716L297.378 372.835L286.764 354.451C284.002 349.667 277.886 348.029 273.103 350.791C268.32 353.552 266.681 359.669 269.443 364.452L279.943 382.637L271.137 380.278C265.802 378.849 260.319 382.014 258.889 387.35C257.459 392.685 260.625 398.168 265.96 399.598L294.085 407.134L305.321 426.595L292.883 423.262C287.549 421.832 282.065 424.998 280.635 430.333C279.205 435.668 282.371 441.152 287.706 442.582L319.463 451.091L341.893 489.939C302.538 482.89 268.254 459.083 247.902 423.832ZM472.915 423.832C452.561 459.085 418.276 482.907 378.914 489.954L401.352 451.09L433.109 442.581C438.443 441.152 441.609 435.667 440.18 430.332C438.751 424.998 433.265 421.829 427.932 423.261L415.493 426.594L426.729 407.133L454.854 399.597C460.188 398.168 463.354 392.684 461.925 387.349C460.495 382.014 455.012 378.845 449.677 380.277L440.871 382.636L451.371 364.451C454.133 359.668 452.494 353.551 447.711 350.79C442.926 348.03 436.812 349.667 434.05 354.45L423.436 372.834L420.993 363.716C419.563 358.381 414.078 355.213 408.745 356.645C403.41 358.074 400.244 363.558 401.674 368.892L409.293 397.33L398.058 416.791L394.641 404.039C393.211 398.705 387.727 395.536 382.392 396.968C377.058 398.397 373.892 403.881 375.321 409.216L383.914 441.287L361.591 479.952C348.013 442.341 351.5 400.737 371.854 365.484C392.852 329.116 429.494 304.753 471.104 298.645C471.596 298.573 470.616 298.538 471.104 298.538C475.296 298.538 479.966 301.128 481.54 305.095C497.056 344.186 493.912 387.464 472.915 423.832Z" fill="#9B8F22"/>
<path d="M336.943 48.2139C342.466 48.2139 346.943 43.7367 346.943 38.2139C346.943 32.691 342.466 28.2139 336.943 28.2139C331.421 28.2139 326.943 32.691 326.943 38.2139C326.943 43.7367 331.421 48.2139 336.943 48.2139Z" fill="#9B8F22"/>
</g>
<defs>
<clipPath id="clip0_1_143">
<rect width="512" height="512" fill="white"/>
</clipPath>
</defs>
</svg>
