<svg width="906" height="425" viewBox="0 0 906 425" fill="none" xmlns="http://www.w3.org/2000/svg">
<path d="M96.3858 246C67.3354 246 44.4414 239.281 27.7037 225.842C10.9661 212.403 1.73148 193.269 0 168.442H25.9722C27.3189 189.397 33.6677 204.886 45.0185 214.908C56.5617 224.703 73.4918 229.6 95.8086 229.6C115.624 229.6 130.727 225.5 141.116 217.3C151.697 209.1 156.988 197.369 156.988 182.108C156.988 172.997 154.968 165.367 150.927 159.217C146.887 153.067 139.961 147.6 130.15 142.817C120.53 138.033 106.967 133.592 89.4599 129.492C61.5638 123.114 40.4974 114.914 26.2608 104.892C12.2166 94.6417 5.19444 80.2917 5.19444 61.8417C5.19444 41.3417 13.2747 25.9667 29.4352 15.7167C45.5957 5.23889 66.8544 0 93.2114 0C119.953 0 140.731 5.69444 155.545 17.0833C170.551 28.2445 179.208 43.8472 181.517 63.8917H155.833C152.948 47.2639 146.118 35.1917 135.344 27.675C124.763 20.1583 110.045 16.4 91.1914 16.4C72.9146 16.4 58.9666 19.9305 49.3472 26.9917C39.9203 34.0528 35.2068 43.8472 35.2068 56.375C35.2068 63.8917 37.0345 70.2694 40.6898 75.5083C44.3452 80.7472 50.6939 85.5306 59.7361 89.8583C68.9707 94.1861 82.053 98.4 98.983 102.5C119.761 107.511 136.402 112.978 148.907 118.9C161.605 124.822 171.128 132.567 177.477 142.133C183.826 151.472 187 163.431 187 178.008C187 199.419 178.824 216.161 162.471 228.233C146.31 240.078 124.282 246 96.3858 246Z" fill="#325956"/>
<path d="M237 73H263.434V147.39H377.559V73H403.993V246H377.559V159.006H263.434V246H237V73Z" fill="#325956"/>
<path d="M451.953 73H478.387V246H451.953V73Z" fill="#325956"/>
<path d="M526.423 73H553.111L661.39 207.199V73H683.757V246H670.54L548.79 95.49V246H526.423V73Z" fill="#325956"/>
<path d="M721.274 73H872V84.8629H747.708V147.39H857.512V159.006H747.708V234.137H872V246H721.274V73Z" fill="#325956"/>
<path d="M4.25041 425C2.94848 425 1.9146 424.611 1.14876 423.833C0.38292 422.978 0 421.811 0 420.333V356.167C0 351.811 1.26364 348.389 3.79091 345.9C6.39476 343.411 9.99421 342.167 14.5893 342.167H34.1182C55.9446 342.167 66.8578 351.461 66.8578 370.05C66.8578 378.606 64.0625 385.217 58.4719 389.883C52.9578 394.472 44.9931 396.767 34.5777 396.767H8.6157V420.333C8.6157 421.811 8.23278 422.978 7.46694 423.833C6.7011 424.611 5.62892 425 4.25041 425ZM34.5777 389.417C42.0063 389.417 47.7501 387.939 51.8091 384.983C55.9446 382.028 58.0124 377.05 58.0124 370.05C58.0124 362.739 56.0212 357.489 52.0388 354.3C48.0565 351.033 42.2744 349.4 34.6926 349.4H14.7041C12.8661 349.4 11.3727 350.022 10.224 351.267C9.15179 352.511 8.6157 354.144 8.6157 356.167V389.417H34.5777Z" fill="#325956" fill-opacity="0.6"/>
<path d="M81.8832 356.75C81.8832 352.317 83.1469 348.778 85.6742 346.133C88.278 343.489 92.0306 342.167 96.932 342.167H118.414C139.245 342.167 149.66 350.956 149.66 368.533C149.66 377.011 147.133 383.428 142.078 387.783C137.024 392.139 129.404 394.317 119.218 394.317L141.504 417.767C142.193 418.467 142.538 419.361 142.538 420.45C142.538 421.85 141.963 422.978 140.815 423.833C139.896 424.533 138.938 424.883 137.943 424.883C136.411 424.883 134.956 424.106 133.577 422.55L107.156 394.317H91.6477V419.983C91.6477 421.539 91.1882 422.783 90.2692 423.717C89.4268 424.572 88.2397 425 86.708 425C85.1764 425 83.9893 424.572 83.1469 423.717C82.3045 422.783 81.8832 421.539 81.8832 419.983V356.75ZM118.988 386.267C126.034 386.267 131.242 384.944 134.611 382.3C138.058 379.578 139.781 374.989 139.781 368.533C139.781 362 138.058 357.333 134.611 354.533C131.165 351.656 125.957 350.217 118.988 350.217H97.5064C95.7449 350.217 94.3281 350.8 93.256 351.967C92.1838 353.133 91.6477 354.728 91.6477 356.75V386.267H118.988Z" fill="#325956" fill-opacity="0.6"/>
<path d="M199.678 425C191.943 425 184.974 423.289 178.77 419.867C172.567 416.367 167.666 411.428 164.066 405.05C160.543 398.672 158.782 391.322 158.782 383C158.782 374.6 160.543 367.25 164.066 360.95C167.666 354.572 172.567 349.672 178.77 346.25C184.974 342.75 191.943 341 199.678 341C207.413 341 214.382 342.75 220.585 346.25C226.789 349.672 231.652 354.572 235.175 360.95C238.774 367.25 240.574 374.6 240.574 383C240.574 391.322 238.774 398.672 235.175 405.05C231.652 411.428 226.789 416.367 220.585 419.867C214.382 423.289 207.413 425 199.678 425ZM199.678 417.533C205.881 417.533 211.395 416.172 216.22 413.45C221.121 410.728 224.951 406.8 227.708 401.667C230.541 396.456 231.958 390.233 231.958 383C231.958 375.689 230.503 369.428 227.593 364.217C224.759 359.006 220.853 355.078 215.875 352.433C210.974 349.789 205.498 348.467 199.448 348.467C193.321 348.467 187.807 349.828 182.906 352.55C178.081 355.272 174.29 359.239 171.533 364.45C168.776 369.661 167.398 375.844 167.398 383C167.398 390.233 168.776 396.456 171.533 401.667C174.367 406.8 178.196 410.728 183.021 413.45C187.922 416.172 193.475 417.533 199.678 417.533Z" fill="#325956" fill-opacity="0.6"/>
<path d="M260.253 425C258.951 425 257.918 424.611 257.152 423.833C256.386 422.978 256.003 421.811 256.003 420.333V356.167C256.003 351.811 257.267 348.389 259.794 345.9C262.398 343.411 265.997 342.167 270.592 342.167H306.204C309.191 342.167 310.684 343.411 310.684 345.9C310.684 346.989 310.301 347.844 309.535 348.467C308.769 349.089 307.659 349.4 306.204 349.4H270.707C268.869 349.4 267.376 350.022 266.227 351.267C265.155 352.511 264.619 354.144 264.619 356.167V379.617H297.473C300.46 379.617 301.953 380.861 301.953 383.35C301.953 384.517 301.532 385.411 300.69 386.033C299.924 386.656 298.852 386.967 297.473 386.967H264.619V420.333C264.619 421.811 264.236 422.978 263.47 423.833C262.704 424.611 261.632 425 260.253 425Z" fill="#325956" fill-opacity="0.6"/>
<path d="M341.049 423.833C336.377 423.833 332.739 422.589 330.136 420.1C327.532 417.611 326.23 414.111 326.23 409.6V356.167C326.23 351.811 327.493 348.389 330.021 345.9C332.625 343.411 336.224 342.167 340.819 342.167H376.431C379.417 342.167 380.911 343.411 380.911 345.9C380.911 346.989 380.528 347.844 379.762 348.467C378.996 349.089 377.886 349.4 376.431 349.4H340.934C339.096 349.4 337.603 350.022 336.454 351.267C335.382 352.511 334.846 354.144 334.846 356.167V378.45H367.7C370.687 378.45 372.18 379.694 372.18 382.183C372.18 383.35 371.759 384.244 370.917 384.867C370.151 385.489 369.079 385.8 367.7 385.8H334.846V409.833C334.846 411.856 335.382 413.489 336.454 414.733C337.603 415.978 339.096 416.6 340.934 416.6H378.958C381.945 416.6 383.438 417.806 383.438 420.217C383.438 421.383 383.017 422.278 382.174 422.9C381.409 423.522 380.336 423.833 378.958 423.833H341.049Z" fill="#325956" fill-opacity="0.6"/>
<path d="M431.664 425C424.312 425 417.535 423.756 411.331 421.267C405.205 418.7 400.418 415.2 396.972 410.767C396.359 409.989 396.053 409.172 396.053 408.317C396.053 407.228 396.627 406.178 397.776 405.167C398.389 404.7 399.04 404.467 399.729 404.467C401.108 404.467 402.333 405.128 403.405 406.45C406.545 409.95 410.489 412.672 415.237 414.617C420.062 416.483 425.538 417.417 431.664 417.417C438.404 417.417 443.612 416.172 447.288 413.683C450.964 411.117 452.802 407.5 452.802 402.833C452.802 398.789 451.002 395.522 447.403 393.033C443.88 390.544 437.868 388.328 429.367 386.383C418.262 383.894 410.259 380.783 405.358 377.05C400.533 373.239 398.121 368.222 398.121 362C398.121 355.544 400.801 350.45 406.162 346.717C411.599 342.906 418.913 341 428.103 341C435.072 341 441.352 342.244 446.943 344.733C452.61 347.222 456.631 350.567 459.005 354.767C459.465 355.544 459.694 356.283 459.694 356.983C459.694 358.228 459.043 359.317 457.741 360.25C457.205 360.561 456.593 360.717 455.903 360.717C454.219 360.717 452.917 360.056 451.998 358.733C449.777 355.467 446.637 352.978 442.578 351.267C438.519 349.478 433.694 348.583 428.103 348.583C413.935 348.583 406.851 353.056 406.851 362C406.851 364.722 407.579 367.017 409.034 368.883C410.489 370.672 412.825 372.306 416.041 373.783C419.334 375.183 423.891 376.583 429.712 377.983C441.046 380.706 449.202 384.011 454.18 387.9C459.158 391.711 461.647 396.689 461.647 402.833C461.647 409.678 458.928 415.083 453.491 419.05C448.13 423.017 440.855 425 431.664 425Z" fill="#325956" fill-opacity="0.6"/>
<path d="M509.856 425C502.504 425 495.727 423.756 489.523 421.267C483.397 418.7 478.61 415.2 475.164 410.767C474.551 409.989 474.245 409.172 474.245 408.317C474.245 407.228 474.819 406.178 475.968 405.167C476.581 404.7 477.232 404.467 477.921 404.467C479.299 404.467 480.525 405.128 481.597 406.45C484.737 409.95 488.681 412.672 493.429 414.617C498.254 416.483 503.73 417.417 509.856 417.417C516.596 417.417 521.804 416.172 525.48 413.683C529.156 411.117 530.994 407.5 530.994 402.833C530.994 398.789 529.194 395.522 525.594 393.033C522.072 390.544 516.06 388.328 507.559 386.383C496.454 383.894 488.451 380.783 483.55 377.05C478.725 373.239 476.313 368.222 476.313 362C476.313 355.544 478.993 350.45 484.354 346.717C489.791 342.906 497.105 341 506.295 341C513.264 341 519.544 342.244 525.135 344.733C530.802 347.222 534.823 350.567 537.197 354.767C537.656 355.544 537.886 356.283 537.886 356.983C537.886 358.228 537.235 359.317 535.933 360.25C535.397 360.561 534.785 360.717 534.095 360.717C532.41 360.717 531.109 360.056 530.19 358.733C527.969 355.467 524.829 352.978 520.77 351.267C516.711 349.478 511.886 348.583 506.295 348.583C492.127 348.583 485.043 353.056 485.043 362C485.043 364.722 485.771 367.017 487.226 368.883C488.681 370.672 491.017 372.306 494.233 373.783C497.526 375.183 502.083 376.583 507.904 377.983C519.238 380.706 527.394 384.011 532.372 387.9C537.35 391.711 539.839 396.689 539.839 402.833C539.839 409.678 537.12 415.083 531.683 419.05C526.322 423.017 519.047 425 509.856 425Z" fill="#325956" fill-opacity="0.6"/>
<path d="M563.12 425C561.818 425 560.785 424.611 560.019 423.833C559.253 422.978 558.87 421.811 558.87 420.333V345.667C558.87 344.189 559.253 343.061 560.019 342.283C560.785 341.428 561.818 341 563.12 341C564.499 341 565.571 341.428 566.337 342.283C567.103 343.139 567.486 344.267 567.486 345.667V420.333C567.486 421.733 567.103 422.861 566.337 423.717C565.571 424.572 564.499 425 563.12 425Z" fill="#325956" fill-opacity="0.6"/>
<path d="M627.322 425C619.587 425 612.617 423.289 606.414 419.867C600.211 416.367 595.31 411.428 591.71 405.05C588.187 398.672 586.426 391.322 586.426 383C586.426 374.6 588.187 367.25 591.71 360.95C595.31 354.572 600.211 349.672 606.414 346.25C612.617 342.75 619.587 341 627.322 341C635.057 341 642.026 342.75 648.229 346.25C654.432 349.672 659.295 354.572 662.818 360.95C666.418 367.25 668.217 374.6 668.217 383C668.217 391.322 666.418 398.672 662.818 405.05C659.295 411.428 654.432 416.367 648.229 419.867C642.026 423.289 635.057 425 627.322 425ZM627.322 417.533C633.525 417.533 639.039 416.172 643.864 413.45C648.765 410.728 652.594 406.8 655.351 401.667C658.185 396.456 659.602 390.233 659.602 383C659.602 375.689 658.147 369.428 655.237 364.217C652.403 359.006 648.497 355.078 643.519 352.433C638.618 349.789 633.142 348.467 627.092 348.467C620.965 348.467 615.451 349.828 610.55 352.55C605.725 355.272 601.934 359.239 599.177 364.45C596.42 369.661 595.042 375.844 595.042 383C595.042 390.233 596.42 396.456 599.177 401.667C602.011 406.8 605.84 410.728 610.665 413.45C615.566 416.172 621.118 417.533 627.322 417.533Z" fill="#325956" fill-opacity="0.6"/>
<path d="M684.291 425C682.989 425 681.955 424.611 681.19 423.833C680.424 422.978 680.041 421.811 680.041 420.333V372.733C680.041 366.278 681.381 360.678 684.061 355.933C686.818 351.111 690.724 347.417 695.779 344.85C700.833 342.283 706.768 341 713.584 341C720.4 341 726.297 342.283 731.275 344.85C736.33 347.417 740.197 351.111 742.878 355.933C745.635 360.678 747.013 366.278 747.013 372.733V420.333C747.013 421.811 746.631 422.978 745.865 423.833C745.175 424.611 744.142 425 742.763 425C741.461 425 740.389 424.611 739.547 423.833C738.781 422.978 738.398 421.811 738.398 420.333V372.383C738.398 364.839 736.215 358.967 731.85 354.767C727.485 350.567 721.396 348.467 713.584 348.467C705.926 348.467 699.838 350.606 695.319 354.883C690.877 359.161 688.656 364.994 688.656 372.383V420.333C688.656 421.811 688.274 422.978 687.508 423.833C686.742 424.611 685.67 425 684.291 425Z" fill="#325956" fill-opacity="0.6"/>
<path d="M768.432 425C767.13 425 766.096 424.611 765.33 423.833C764.564 422.978 764.181 421.811 764.181 420.333V374.717C764.181 364.139 767.091 355.894 772.912 349.983C778.809 343.994 786.965 341 797.38 341C807.719 341 815.837 343.994 821.734 349.983C827.631 355.972 830.579 364.217 830.579 374.717V420.333C830.579 421.811 830.197 422.978 829.431 423.833C828.665 424.611 827.593 425 826.214 425C824.912 425 823.84 424.611 822.998 423.833C822.232 422.978 821.849 421.811 821.849 420.333V394.083H772.797V420.333C772.797 421.811 772.414 422.978 771.648 423.833C770.882 424.611 769.81 425 768.432 425ZM821.849 386.85V374.367C821.849 366.044 819.743 359.667 815.531 355.233C811.319 350.722 805.268 348.467 797.38 348.467C789.416 348.467 783.327 350.683 779.115 355.117C774.903 359.55 772.797 365.967 772.797 374.367V386.85H821.849Z" fill="#325956" fill-opacity="0.6"/>
<path d="M863.381 423.833C858.709 423.833 855.072 422.589 852.468 420.1C849.864 417.533 848.562 414.033 848.562 409.6V345.667C848.562 344.189 848.945 343.061 849.711 342.283C850.477 341.428 851.511 341 852.812 341C854.191 341 855.263 341.428 856.029 342.283C856.795 343.061 857.178 344.189 857.178 345.667V409.833C857.178 411.856 857.714 413.489 858.786 414.733C859.935 415.978 861.428 416.6 863.266 416.6H901.52C904.507 416.6 906 417.806 906 420.217C906 421.383 905.617 422.278 904.851 422.9C904.085 423.522 902.975 423.833 901.52 423.833H863.381Z" fill="#325956" fill-opacity="0.6"/>
</svg>
