<svg width="500" height="300" viewBox="0 0 500 300" fill="none" xmlns="http://www.w3.org/2000/svg">
<g clip-path="url(#clip0_9_134)">
<rect width="500" height="300" fill="#F6F2D3"/>
<path d="M277.305 64.3675C278.627 64.4761 279.945 64.5915 281.273 64.669C288.938 65.1269 296.297 66.5773 303.299 69.362C305.921 70.4029 308.578 71.3985 311.231 72.3839C314.056 73.4431 316.944 74.3499 319.944 74.9969C323.382 75.7353 326.84 76.0359 330.317 75.5368C332.915 75.1651 335.402 74.5329 337.735 73.5476C338.219 73.3455 338.673 73.0646 339.585 72.9918C338.94 73.5025 338.528 73.8243 338.124 74.1495C336.497 75.4711 334.982 76.8603 333.762 78.4459C331.603 81.2451 329.708 84.1618 328.509 87.3356C328.094 88.4293 327.327 89.1792 326.187 89.7198C325.48 90.0554 324.72 90.371 323.935 90.5594C322.281 90.9544 320.612 91.3186 318.916 91.5969C313.997 92.3955 309.124 93.3038 304.497 94.8604C302.395 95.5639 300.46 96.4653 298.669 97.5648C294.54 100.101 291.939 103.505 290.34 107.459C289.319 109.969 288.784 112.58 288.516 115.226C288.171 118.683 287.886 122.146 287.593 125.606C287.575 125.868 287.635 126.143 287.671 126.518C288.148 126.271 288.511 126.115 288.842 125.922C292.613 123.686 296.673 121.829 300.914 120.201C302.629 119.544 304.316 118.842 305.984 118.116C307.906 117.276 309.822 116.41 311.702 115.512C314.376 114.237 316.628 112.574 318.477 110.564C319.849 109.07 321.03 107.478 322.078 105.818C323.887 102.961 325.298 99.9779 326.473 96.9043C327.518 94.1595 328.563 91.4148 329.608 88.67C330.642 85.9633 332.111 83.4134 333.772 80.9371C336.155 77.391 339.467 74.5266 343.502 72.1981C345.705 70.9284 348.051 69.8051 350.35 68.6307C353.011 67.2659 355.928 66.3185 358.879 65.4259C360.17 65.0352 361.506 64.83 362.894 64.762C364.269 64.6976 365.641 64.5816 367.021 64.5275C371.99 64.3279 376.289 62.8647 380.086 60.4288C382.997 58.5546 385.773 56.5786 388.399 54.4527C390.021 53.1381 391.604 51.7998 393.213 50.4715C394.043 49.7795 395.007 49.2306 396.115 48.8627C397.432 48.4234 398.751 48.0014 400.082 47.5757C403.627 46.4556 407.258 45.5446 410.973 44.8256C411.392 44.7415 411.821 44.6193 412.378 44.8229C411.908 45.1144 411.555 45.3667 411.17 45.5814C408.009 47.3517 405.492 49.5693 403.875 52.4242C403.34 53.3884 402.423 54.14 401.353 54.7659C399.998 55.5605 398.509 56.1362 396.983 56.6641C394.144 57.6415 391.291 58.5881 388.423 59.5039C383.714 60.9961 379.201 62.7892 374.844 64.8354C370.408 66.9101 366.472 69.4614 363.053 72.52C359.435 75.7636 356.899 79.47 355.652 83.7677C354.985 86.0601 354.478 88.3712 354.141 90.7218C353.777 93.2552 353.352 95.7825 352.979 98.3126C352.811 99.4586 352.673 100.608 352.552 101.763C352.531 101.974 352.613 102.19 352.652 102.465C352.982 102.33 353.223 102.279 353.395 102.16C354.186 101.596 354.991 101.028 355.746 100.434C359.474 97.5094 363.479 94.8504 367.952 92.6719C371.552 90.9171 375.415 89.5486 379.256 88.1631C381.476 87.3618 383.71 86.574 385.841 85.6462C389.147 84.2085 392.046 82.3378 394.372 79.9467C398.188 76.022 400.792 71.636 401.812 66.638C402.021 65.5915 402.226 64.5519 402.387 63.4956C402.6 62.1148 402.757 60.7209 402.962 59.3367C403.392 56.4752 404.654 53.8553 406.385 51.3885C407.171 50.2594 408.22 49.2892 409.386 48.4141C412.004 46.4537 415.048 44.9915 418.287 43.7715C418.81 43.5759 419.421 43.4722 420.004 43.4171C422.087 43.2273 424.167 43.003 426.266 42.9371C432.204 42.7537 438.141 42.553 444.098 42.7553C448.858 42.9131 453.596 42.7852 458.285 42.227C458.549 42.1929 458.833 42.2172 459.338 42.2078C458.956 42.5499 458.775 42.8002 458.498 42.955C457.054 43.7748 455.644 44.6494 454.108 45.3669C450.354 47.1132 446.31 48.4045 442.155 49.4354C438.005 50.4592 433.789 51.3322 429.599 52.2739C426.44 52.9863 423.297 53.6882 420.296 54.7468C415.934 56.2866 412.473 58.6152 409.97 61.8802C407.597 64.9678 406.158 68.3271 405.492 71.9392C405.083 74.17 404.71 76.4141 404.435 78.6709C404.025 82.0525 402.749 85.1377 400.284 87.8543C400.18 87.9658 400.098 88.0943 399.998 88.216C398.086 90.5127 397.013 93.0786 396.646 95.8464C396.554 96.5676 396.474 97.2853 396.413 98.0096C396.189 100.462 396.248 102.922 396.458 105.397C396.791 109.28 396.068 112.996 394.024 116.486C393.549 117.305 393.047 118.114 392.567 118.94C392.459 119.134 392.202 119.33 392.545 119.553C394.193 118.92 397.693 117.001 399.339 115.721C403.46 112.509 407.259 109.074 410.27 105.104C411.901 102.952 413.54 100.803 415.187 98.6576C417.794 95.264 421.145 92.406 424.945 89.8873C427.783 88.0105 430.977 86.5465 434.013 84.8879C436.896 83.3138 439.823 81.7737 442.573 80.0564C449.412 75.7792 453.422 70.1052 454.513 63.1009C454.794 61.2921 454.859 59.4513 455.02 57.63C455.156 56.0434 455.263 54.4536 455.417 52.8737C455.781 49.1721 457.733 46.0755 460.766 43.4074C462.804 41.6123 462.794 41.5918 465.802 40.9983C469.919 40.1884 473.9 39.0494 477.898 37.9756C486.76 35.5871 495.948 34.4317 505.314 33.9324C505.575 33.9225 505.911 33.8152 506.191 34.1909C504.009 35.0401 501.868 35.9473 499.983 37.1789C498.135 38.3825 496.439 39.6773 495.041 41.2374C493.616 42.8289 492.648 44.6114 491.772 46.3618C490.557 46.6551 489.467 46.8953 488.388 47.1733C485.192 47.9896 482.13 49.0248 479.474 50.6686C477.223 52.063 475.203 53.6717 473.403 55.4398C470.848 57.937 468.179 60.3321 465.08 62.4118C462.198 64.3477 460.54 66.8757 460.044 69.9138C459.787 71.4881 459.551 73.0621 459.402 74.6524C459.123 77.7224 458.089 80.5807 456.466 83.3322C454.922 85.9623 453.57 88.6658 452.148 91.3426C451.983 91.6409 451.891 91.959 451.746 92.3156C451.967 92.282 452.105 92.3011 452.175 92.252C454.521 90.5912 456.904 88.9609 459.2 87.2559C462.454 84.8401 465.754 82.4755 469.326 80.3489C472.321 78.5736 475.256 76.7336 478.144 74.8424C481.605 72.5724 484.482 69.8785 486.541 66.6463C488.19 64.0392 489.446 61.3161 490.166 58.4304C490.765 56.0286 491.296 53.6172 491.865 51.2123C492.399 48.987 493.159 46.8313 494.329 44.7811C495.579 42.5853 497.36 40.7175 499.594 39.1062C502.5 37.0115 505.936 35.6652 509.576 34.5475C512.064 33.7809 514.628 33.4889 517.301 33.5575C519.827 33.6208 522.359 33.6945 524.884 33.7235C528.433 33.7645 531.976 33.778 535.526 33.7777C538.186 33.7741 540.807 33.4952 543.301 32.8319C545.555 32.2369 547.783 31.5561 549.963 30.8069C553.423 29.6292 556.986 28.7259 560.737 28.2891C565.478 27.7338 570.274 27.5776 575.065 27.3525C575.24 27.3436 575.428 27.4654 575.708 27.5552C575.43 27.71 575.291 27.8082 575.145 27.8788C572.298 29.1975 569.778 30.8259 567.781 32.9305C567.5 33.2267 567.13 33.4723 566.786 33.7279C564.514 35.4085 561.947 36.7584 559.353 38.0982C556.565 39.5402 553.561 40.4714 550.222 40.7793C548.497 40.9374 546.766 41.0508 545.047 41.2363C543.149 41.4378 541.241 41.6187 539.385 41.9368C536.686 42.3958 534.096 43.1153 531.786 44.3278C527.258 46.7033 523.946 49.9123 521.824 53.9274C520.774 55.9142 519.977 57.9634 519.437 60.0855C518.93 62.1106 518.483 64.142 517.988 66.1636C517.784 67.0102 517.532 67.847 517.259 68.6841C517.022 69.4174 516.464 69.9442 515.597 70.2611C514.516 70.6562 513.446 71.072 512.374 71.4705C505.377 74.099 500.056 78.131 496.579 83.6884C495.316 85.6949 494.334 87.7911 493.592 89.9707C492.952 91.8699 492.308 93.7589 491.677 95.6614C490.191 100.196 487.849 104.397 484.67 108.286C484.499 108.498 484.107 108.668 484.313 109.083C484.518 109.001 484.724 108.937 484.893 108.842C485.979 108.264 487.052 107.673 488.138 107.095C490.062 106.08 492.058 105.126 493.927 104.056C496.872 102.371 499.868 100.765 503.012 99.3325C504.295 98.7455 505.521 98.0695 506.724 97.3766C510.096 95.4177 513.044 93.0951 515.653 90.5008C518.29 87.8752 521.17 85.426 524.184 83.0785C528.163 79.9892 532.723 77.7097 538.237 76.7008C540.211 76.3434 542.139 75.8177 544.042 75.282C546.635 74.5555 549.117 73.627 551.327 72.3261C554.591 70.4099 556.938 67.8669 558.727 64.9687C559.999 62.907 560.852 60.7193 561.486 58.4652C562.103 56.263 562.425 54.016 562.687 51.7629C562.891 50.0342 563.062 48.3093 563.327 46.5867C563.779 43.6663 564.598 40.8105 565.984 38.1031C567.839 34.4736 570.741 31.5623 574.92 29.4906C576.694 28.6117 578.588 27.9383 580.486 27.2579C581.311 26.9587 582.166 26.7971 583.055 26.6902C585.483 26.4136 587.917 26.1473 590.323 25.7951C595.09 25.0983 599.779 24.137 604.211 22.6068C611.72 20.0136 618.711 16.727 624.953 12.5084C627.3 10.9234 629.587 9.27362 631.896 7.64079C632.159 7.45508 632.412 7.24881 632.638 7.03252C632.977 6.70808 633.011 6.35964 632.756 6.1111C632.509 5.8659 632.046 5.85756 631.63 6.11054C631.345 6.27929 631.078 6.47191 630.821 6.66789C630.025 7.23889 629.243 7.80628 628.452 8.38755C621.844 13.2651 614.558 17.3718 606.381 20.4587C605.507 20.7894 604.622 21.0238 603.663 21.104C599.007 21.5066 594.331 21.5994 589.636 21.0963C584.035 20.5004 578.817 18.9835 573.994 16.5075C572.362 15.6755 571.243 14.5688 570.777 13.0719C570.459 12.035 570.124 10.9914 569.943 9.93916C569.631 8.16481 569.421 6.37891 569.181 4.58993C568.876 2.32275 568.547 0.062743 567.868 -2.16215C567.357 -3.82735 566.708 -5.45303 565.596 -6.93545C563.833 -9.29579 561.536 -11.2467 558.587 -12.6559C557.015 -13.4058 555.391 -14.1 553.714 -14.6799C550.479 -15.8031 547.612 -17.3408 545.065 -19.3025C544.098 -20.0492 543.088 -20.7783 542.012 -21.4238C538.036 -23.8374 533.62 -24.9399 528.725 -24.5861C525.369 -24.3434 522.339 -23.4223 519.591 -21.9394C517.039 -20.5587 514.491 -19.1849 511.659 -18.1627C510.009 -17.5645 508.325 -17.1726 506.527 -17.0171C503.838 -16.7891 501.147 -16.7472 498.427 -17.0185C498.057 -17.059 497.611 -17.2708 497.215 -16.8837C497.539 -16.7014 497.824 -16.5256 498.129 -16.3844C501.269 -14.8604 504.397 -13.3327 507.553 -11.8363C509.235 -11.036 510.964 -10.3017 512.665 -9.53601C516.834 -7.6622 520.699 -5.43335 524.262 -2.84949C525.899 -1.66269 527.568 -0.514173 529.258 0.616883C531.922 2.40498 534.928 3.69288 538.213 4.51577C539.893 4.93712 541.598 5.29268 543.304 5.64825C546.593 6.32981 549.903 6.93531 553.178 7.66183C557.808 8.68602 561.969 10.4979 565.704 12.9798C567.594 14.2291 569.5 15.4679 571.474 16.6232C574.555 18.4271 577.915 19.8245 581.494 20.8266C586.193 22.1463 591.027 22.6684 595.933 22.697C596.473 22.701 597.013 22.705 597.551 22.7504C597.654 22.7561 597.739 22.948 597.836 23.0606C597.882 23.0359 597.924 23.0182 597.96 22.9902C597.924 23.0182 597.891 23.0393 597.854 23.0673C596.758 23.28 595.66 23.5341 594.548 23.6988C587.855 24.687 581.097 25.4486 574.321 26.0691C570.28 26.437 566.433 25.8791 562.686 24.4518C559.325 23.1715 555.934 21.9639 552.933 20.1315C550.965 18.9279 548.696 18.1896 546.322 17.6971C545.797 17.5896 545.266 17.4546 544.737 17.3539C542.206 16.8771 539.975 15.9178 537.991 14.5318C536.983 13.82 535.917 13.1537 534.861 12.4907C532.512 11.0159 529.861 10.4854 527.005 10.8428C525.59 11.0179 524.179 11.2619 522.821 11.6017C520.177 12.2668 517.494 12.6394 514.68 12.3657C514.417 12.3412 514.068 12.242 513.949 12.6086C515.158 13.6489 516.529 14.5493 517.977 15.3697C521.276 17.2399 524.583 19.0962 527.901 20.9318C529.01 21.539 530.171 22.0905 531.339 22.6281C533.724 23.7131 536.277 24.2655 538.975 24.3855C541.208 24.4798 543.422 24.3401 545.599 24.0183C547.36 23.7564 549.115 23.467 550.876 23.2052C552.68 22.9428 554.474 23.063 556.227 23.5627C557.256 23.8539 558.275 24.183 559.278 24.54C560.727 25.0502 562.158 25.595 563.601 26.1363C563.829 26.2232 564.197 26.2292 564.179 26.6257C563.771 26.6719 563.368 26.7283 562.963 26.7675C557.372 27.2259 552.067 28.415 547.039 30.3485C543.906 31.5499 540.574 32.2299 537.057 32.4366C535.594 32.5261 534.162 32.443 532.789 31.987C530.992 31.3948 529.189 30.7922 527.437 30.0995C524.868 29.0787 522.283 28.0857 519.58 27.3249C518.956 27.1461 518.354 26.8913 517.744 26.6676C516.509 26.2307 515.652 25.4758 515.046 24.5388C513.946 22.8426 512.834 21.15 511.868 19.404C510.709 17.2984 509.6 15.1785 508.135 13.1834C506.44 10.8739 504.327 8.85887 501.7 7.19438C499.297 5.68233 496.612 4.86961 493.604 4.92558C492.347 4.95068 491.094 5.06185 489.842 5.17303C489.071 5.24066 488.303 5.35997 487.549 5.49287C485.718 5.8038 484.112 5.38504 482.604 4.49994C481.364 3.76677 480.298 2.89025 479.334 1.92641C478.101 0.70041 476.91 -0.543298 475.673 -1.76237C472.391 -5.00422 468.173 -6.71206 463.085 -7.04516C460.664 -7.20282 458.271 -7.10585 455.911 -6.76114C453.157 -6.35667 450.405 -5.90053 447.669 -5.41358C443.085 -4.60516 438.507 -4.66856 433.94 -5.84511C432.73 -6.15481 431.537 -6.53365 430.338 -6.88137C429.897 -7.00714 429.46 -7.15705 429.027 -7.29669C429.877 -6.56928 430.839 -5.98448 431.788 -5.39606C434.498 -3.70842 437.255 -2.0868 440.16 -0.618545C443.522 1.08212 446.72 2.98109 449.782 5.02984C454.109 7.93896 458.245 11.002 461.757 14.5581C463.54 16.3635 465.188 18.26 466.856 20.139C469.517 23.1194 472.869 25.4128 476.989 26.9909C480.438 28.3046 484.044 29.1237 487.801 29.4207C490.69 29.6556 493.571 29.6356 496.449 29.4881C500.043 29.2943 503.592 28.8564 507.133 28.4151C508.905 28.191 510.685 28.0288 512.481 27.9147C515.087 27.7394 517.644 28.0747 520.128 28.8277C520.865 29.0499 521.624 29.2546 522.33 29.5323C524.586 30.3914 526.834 31.2816 529.074 32.1685C529.153 32.1986 529.169 32.3224 529.274 32.4969C527.929 32.5644 526.627 32.4969 525.327 32.4467C517.013 32.1033 508.74 32.3382 500.495 32.9621C492.839 33.5413 485.335 34.6493 478.067 36.5781C475.523 37.2558 472.971 37.8887 470.45 38.6006C468.32 39.201 466.112 39.3096 463.886 39.0498C458.923 38.4533 454.208 37.2957 450.166 34.6383C448.227 33.362 446.2 32.1694 444.217 30.935C442.572 29.9137 440.884 28.9342 439.033 28.1703C438.558 27.9726 438.148 27.6569 437.732 27.3723C436.716 26.6744 436.241 25.7118 435.787 24.7488C435.348 23.834 434.957 22.9116 434.477 22.0145C432.076 17.5287 428.136 14.3807 422.275 12.9127C421.696 12.7679 421.121 12.5989 420.542 12.4541C417.608 11.7063 414.931 10.5352 412.586 8.91908C411.006 7.83842 409.507 6.67065 408.009 5.52012C406.065 4.02335 404.182 2.47418 402.211 1.00875C399.91 -0.707811 397.17 -1.72661 394.15 -2.28039C391.342 -2.79532 388.53 -2.84156 385.709 -2.60515C381.989 -2.29962 378.446 -1.48962 374.946 -0.545746C371.845 0.290057 368.761 1.17391 365.509 1.63246C357.991 2.70963 350.504 2.92498 343.074 0.60704C342.912 0.553807 342.636 0.381312 342.486 0.727645C342.82 0.930472 343.141 1.1369 343.496 1.32226C346.82 3.1095 350.325 4.58794 354.203 5.35908C356.445 5.80139 358.691 6.17818 360.932 6.60328C363.117 7.01525 365.311 7.38919 367.475 7.87722C371.789 8.85687 375.779 10.402 379.239 12.7872C381.799 14.5524 384.131 16.4995 386.156 18.6741C387.514 20.1329 388.852 21.592 390.219 23.037C392.324 25.2761 394.914 27.0272 398.056 28.2412C399.878 28.9434 401.758 29.5002 403.713 29.8666C404.164 29.9544 404.62 30.0524 405.383 30.2088C404.752 30.4643 404.438 30.6472 404.075 30.7273C401.909 31.2213 399.69 31.2164 397.473 30.8427C395.521 30.5107 393.573 30.1131 391.645 29.6981C387.947 28.9111 384.274 28.0583 380.505 27.5719C373.847 26.7163 367.556 27.4793 361.695 29.9359C359.809 30.7299 357.985 31.6231 356.206 32.5675C354.282 33.5824 352.374 34.6454 350.956 36.1472C350.795 36.3214 350.492 36.4662 350.711 36.8186C351.01 36.8736 351.354 36.9626 351.707 36.9964C355.674 37.2806 359.385 38.35 362.995 39.6998C364.872 40.3979 366.73 41.1479 368.642 41.7836C370.5 42.3993 372.373 43.0286 374.303 43.4194C380.195 44.6218 385.532 43.739 390.205 40.7966C392.019 39.6555 393.678 38.3714 395.409 37.1485C398.128 35.218 401.115 33.6082 404.427 32.3909C407.137 31.3977 410.003 30.7335 412.959 30.3301C416.557 29.8434 420.102 29.2022 423.63 28.4958C426.426 27.9392 429.289 27.7609 432.198 27.9783C435.27 28.2076 438.112 28.9874 440.681 30.4286C441.534 30.9044 442.378 31.3942 443.202 31.9014C445.728 33.4602 448.225 35.0332 450.758 36.5782C453.568 38.2956 456.626 39.5864 460.125 40.0622C460.461 40.1065 460.795 40.2335 461.513 40.4146C460.577 40.5875 460.019 40.7112 459.451 40.7971C455.379 41.3721 451.252 41.6066 447.094 41.5521C442.64 41.4941 438.194 41.3464 433.736 41.2953C429.227 41.2414 424.705 41.267 420.293 41.939C416.542 42.5102 412.832 43.2395 409.114 43.924C405.265 44.6342 401.59 45.7386 397.936 46.8842C395.89 47.525 393.877 48.2205 392.055 49.2239C391.087 49.7625 390.098 50.3185 389.01 50.669C386.445 51.4985 383.761 51.8711 380.919 51.4772C377.609 51.0233 374.446 50.23 371.472 48.9038C369.445 47.9973 367.407 47.1115 365.325 46.2849C363.182 45.4348 360.938 44.8237 358.592 44.51C356.908 44.2886 355.227 44.2532 353.609 44.6788C351.203 45.3169 349.316 46.5141 347.991 48.2112C347.147 49.2927 346.488 50.4789 345.759 51.6211C345.412 52.1696 345.127 52.7587 344.749 53.2869C343.799 54.5971 342.314 55.1659 340.417 55.1158C339.246 55.0813 338.169 54.7804 337.123 54.3481C335.861 53.8254 334.791 53.0902 333.827 52.2608C333.071 51.6115 332.374 50.934 331.631 50.2811C330.394 49.1964 329.131 48.1189 327.645 47.2336C324.736 45.5035 321.529 44.8279 318.056 45.32C316.833 45.4929 315.613 45.776 314.467 46.1547C311.874 47.0155 309.524 48.2043 307.301 49.5674C304.85 51.0709 302.739 52.8634 300.511 54.5607C299.186 55.5687 297.859 56.6007 296.375 57.4555C292.099 59.9108 287.343 61.6034 282.235 62.7246C280.575 63.0921 278.926 63.5146 277.277 63.9199C277.092 63.9669 276.927 64.0722 276.611 64.2206C276.956 64.3268 277.115 64.4042 277.278 64.4161L277.305 64.3675Z" fill="#DCB9A0" fill-opacity="0.1"/>
<path d="M598.024 11.6581C597.911 11.5562 597.783 11.3651 597.673 11.3733C597.113 11.3868 596.552 11.4416 596 11.4997C590.971 12.0167 585.922 12.0145 580.881 11.1763C577.032 10.5407 573.353 9.46626 569.881 7.9422C567.652 6.96756 565.487 5.89929 563.342 4.8136C559.078 2.6694 554.506 1.25466 549.577 0.710966C546.099 0.325555 542.594 0.064304 539.11 -0.272884C537.308 -0.447645 535.501 -0.632674 533.695 -0.876181C530.185 -1.35753 526.887 -2.35393 523.844 -3.90715C521.919 -4.89226 520.005 -5.8981 518.123 -6.9422C514.027 -9.21564 509.678 -11.0905 505.076 -12.5668C503.196 -13.1741 501.301 -13.7364 499.436 -14.3714C495.941 -15.5684 492.47 -16.807 488.999 -18.0283C488.663 -18.1482 488.341 -18.2958 487.977 -18.4428C488.318 -18.8837 488.816 -18.7107 489.2 -18.7153C492.025 -18.7383 494.782 -19.0805 497.501 -19.6218C499.317 -19.9872 500.981 -20.5779 502.573 -21.381C505.3 -22.7582 507.678 -24.4615 510.051 -26.1751C512.612 -28.0182 515.554 -29.3051 518.96 -29.937C523.914 -30.8521 528.635 -30.2027 533.128 -28.1473C534.338 -27.594 535.49 -26.954 536.617 -26.2897C539.573 -24.5428 542.773 -23.2735 546.285 -22.4723C548.102 -22.0569 549.884 -21.5208 551.632 -20.9223C554.9 -19.7948 557.592 -18.0311 559.805 -15.787C561.197 -14.3759 562.148 -12.7635 562.962 -11.0945C564.046 -8.86111 564.771 -6.55472 565.474 -4.24804C566.024 -2.42799 566.552 -0.607671 567.173 1.19777C567.544 2.27005 568.057 3.31312 568.566 4.34593C569.297 5.84049 570.651 6.85985 572.459 7.54019C577.83 9.56121 583.437 10.5475 589.285 10.5437C594.188 10.5408 598.967 9.92013 603.667 8.98397C604.634 8.79022 605.502 8.44978 606.342 8.00642C614.183 3.89601 620.947 -1.16141 626.875 -6.94849C627.576 -7.63786 628.29 -8.31365 629.005 -8.98942C629.247 -9.21588 629.481 -9.44566 629.742 -9.64826C630.125 -9.95549 630.605 -9.999 630.893 -9.77193C631.193 -9.54845 631.22 -9.17727 630.931 -8.80923C630.738 -8.55584 630.513 -8.32269 630.27 -8.09624C628.185 -6.15561 626.128 -4.1878 623.989 -2.28437C618.315 2.77734 611.719 6.95905 604.47 10.4811C600.196 12.5612 595.554 14.0814 590.784 15.3349C588.374 15.9688 585.929 16.5137 583.497 17.0722C582.599 17.2754 581.752 17.54 580.956 17.9415C579.132 18.8574 577.312 19.7664 575.637 20.8732C571.713 23.4891 569.236 26.8241 567.961 30.7846C567.008 33.7438 566.659 36.7819 566.701 39.86C566.728 41.6656 566.846 43.4805 566.937 45.2853C567.058 47.647 567.116 50.0095 566.86 52.3619C566.599 54.7626 566.105 57.1247 565.153 59.3959C563.822 62.5969 561.847 65.4856 558.843 67.8396C556.805 69.4288 554.419 70.6678 551.889 71.709C550.031 72.4775 548.141 73.2256 546.186 73.8232C540.702 75.4841 536.422 78.3588 532.878 81.9919C530.19 84.7514 527.658 87.6123 525.413 90.6246C523.187 93.6023 520.566 96.337 517.45 98.7405C516.34 99.5929 515.199 100.425 513.985 101.179C511.013 103.017 508.218 105.014 505.487 107.086C503.748 108.403 501.878 109.612 500.08 110.882C499.069 111.596 498.067 112.33 497.052 113.051C496.889 113.173 496.684 113.254 496.495 113.367C496.218 112.968 496.584 112.746 496.728 112.507C499.324 108.136 500.994 103.52 501.739 98.6614C502.052 96.6247 502.383 94.5948 502.718 92.5579C503.093 90.2178 503.742 87.9398 504.686 85.7238C507.3 79.5803 512.047 74.8116 518.772 71.3163C519.803 70.7779 520.829 70.2291 521.865 69.7009C522.693 69.2783 523.172 68.6638 523.29 67.8781C523.423 66.9891 523.538 66.0934 523.606 65.1879C523.771 63.0361 523.872 60.885 524.046 58.7365C524.226 56.4813 524.691 54.2674 525.428 52.0985C526.911 47.7055 529.755 44.0154 533.977 41.0519C536.132 39.5404 538.667 38.5095 541.35 37.7279C543.206 37.1934 545.126 36.7923 547.037 36.3707C548.766 35.9891 550.52 35.6759 552.268 35.3182C555.632 34.6283 558.552 33.3244 561.163 31.5255C563.589 29.8491 565.989 28.1628 568.028 26.1711C568.334 25.8682 568.679 25.5717 568.919 25.2352C570.607 22.8246 572.905 20.8642 575.6 19.1813C575.744 19.0936 575.87 18.982 576.127 18.7863C575.823 18.7211 575.607 18.6136 575.43 18.6467C570.561 19.4094 565.672 20.1139 560.901 21.216C557.129 22.0861 553.634 23.414 550.292 25.0186C548.179 26.0343 546.016 26.9886 543.804 27.8575C541.359 28.8221 538.724 29.4036 536.002 29.7006C532.367 30.0945 528.727 30.478 525.085 30.8273C522.493 31.0815 519.89 31.2808 517.287 31.4974C514.539 31.7259 511.955 32.3103 509.534 33.3846C506.002 34.9502 502.714 36.7262 500.091 39.2167C498.085 41.1288 496.585 43.2586 495.679 45.6738C494.832 47.9266 494.416 50.243 494.26 52.608C494.086 55.159 493.959 57.7197 493.763 60.271C493.523 63.3421 492.707 66.3031 491.467 69.1866C489.916 72.7652 487.442 75.8662 484.278 78.6039C481.654 80.8845 478.954 83.111 476.196 85.2901C472.899 87.8849 469.924 90.7029 467.007 93.5683C464.94 95.5913 462.784 97.5465 460.667 99.5254C460.602 99.5846 460.465 99.5828 460.242 99.6405C460.325 99.2611 460.377 98.92 460.485 98.5919C461.482 95.6666 462.401 92.7112 463.529 89.8188C464.712 86.788 465.273 83.7131 465.039 80.5031C464.919 78.8465 464.896 77.1853 464.879 75.5344C464.851 72.3357 466.117 69.538 468.746 67.2091C471.566 64.7094 473.894 61.93 476.079 59.0629C477.62 57.0323 479.409 55.1468 481.475 53.4506C483.911 51.4508 486.871 50.0364 490.007 48.8401C491.059 48.4356 492.139 48.0582 493.334 47.6244C493.929 45.7117 494.611 43.7567 495.794 41.9506C496.953 40.186 498.474 38.651 500.157 37.2036C501.882 35.7213 503.912 34.5484 506.001 33.4229C505.658 33.0658 505.325 33.2073 505.058 33.2483C495.545 34.809 486.322 37.0335 477.654 40.4933C473.741 42.0565 469.858 43.6813 465.775 44.9782C462.786 45.9286 462.805 45.9524 461.023 48.0339C458.378 51.137 456.916 54.5563 457.174 58.4299C457.286 60.0831 457.457 61.7425 457.586 63.4024C457.739 65.3063 457.991 67.2227 458.016 69.1281C458.104 76.502 454.966 82.8237 448.702 88.0128C446.186 90.0995 443.454 92.0203 440.767 93.9749C437.941 96.0275 434.92 97.8967 432.337 100.16C428.871 103.193 425.928 106.527 423.848 110.332C422.527 112.731 421.22 115.144 419.916 117.55C417.522 121.999 414.221 125.976 410.55 129.762C409.084 131.276 405.825 133.65 404.244 134.491C403.86 134.303 404.076 134.066 404.162 133.856C404.512 132.957 404.883 132.058 405.233 131.16C406.726 127.324 406.818 123.391 405.813 119.409C405.172 116.875 404.681 114.339 404.491 111.775C404.432 111.022 404.384 110.266 404.359 109.51C404.258 106.594 404.911 103.831 406.481 101.232C406.557 101.094 406.63 100.962 406.707 100.824C408.763 97.7312 409.534 94.3924 409.378 90.8512C409.265 88.4928 409.263 86.1262 409.3 83.7661C409.353 79.961 410.25 76.318 412.151 72.8557C414.159 69.1995 417.293 66.4002 421.503 64.321C424.398 62.8902 427.511 61.8111 430.619 60.7218C434.744 59.273 438.917 57.9096 442.99 56.3823C447.076 54.8515 450.992 53.0715 454.542 50.8418C455.99 49.9337 457.28 48.8728 458.618 47.856C458.872 47.6673 459.017 47.3869 459.343 46.9909C458.821 47.0521 458.526 47.0659 458.269 47.1274C453.554 48.2255 448.722 48.8846 443.816 49.2556C437.671 49.7169 431.621 50.5831 425.565 51.439C423.425 51.7395 421.338 52.2113 419.236 52.6352C418.649 52.7556 418.044 52.9279 417.535 53.1954C414.426 54.8213 411.557 56.6646 409.214 58.9935C408.167 60.0379 407.262 61.1527 406.648 62.4121C405.302 65.1627 404.457 68.0036 404.512 71.0197C404.543 72.4744 404.613 73.9355 404.635 75.3868C404.648 76.4908 404.619 77.5954 404.589 78.6999C404.414 83.9855 402.496 88.8171 399.266 93.2995C397.294 96.03 394.648 98.2937 391.506 100.151C389.482 101.351 387.33 102.419 385.186 103.49C381.48 105.35 377.757 107.203 374.372 109.42C370.171 112.174 366.527 115.375 363.202 118.823C362.527 119.522 361.813 120.198 361.09 120.87C360.936 121.013 360.698 121.099 360.379 121.271C360.289 120.993 360.169 120.771 360.16 120.558C360.097 119.351 360.035 118.145 360.003 116.941C359.952 114.279 359.944 111.617 359.881 108.959C359.817 106.493 359.947 104.043 360.231 101.6C360.761 97.0123 362.719 92.8923 365.87 89.1263C368.851 85.5721 372.447 82.4957 376.63 79.8526C380.743 77.2585 385.059 74.8925 389.624 72.8228C392.405 71.5584 395.166 70.253 397.909 68.9238C399.387 68.2115 400.814 67.4379 402.061 66.4703C403.052 65.6984 403.857 64.822 404.244 63.7614C405.412 60.6242 407.612 58.0562 410.536 55.8648C410.896 55.5992 411.219 55.303 411.642 54.9437C411.038 54.7891 410.617 54.973 410.207 55.1017C406.521 56.2563 402.958 57.609 399.525 59.17C398.236 59.7528 396.955 60.339 395.685 60.9456C394.609 61.4503 393.724 62.1281 392.988 62.9382C391.575 64.4891 390.177 66.0535 388.747 67.5977C386.431 70.088 383.919 72.4534 381.255 74.7104C377.784 77.6581 373.624 79.6474 368.572 80.4157C367.17 80.6283 365.781 80.8959 364.384 81.1188C362.974 81.3453 361.637 81.7085 360.38 82.2531C357.509 83.5082 354.674 84.811 352.186 86.5225C350.042 87.996 347.822 89.4154 345.786 90.9805C342.057 93.8384 339.153 97.1784 337.329 101.114C336.047 103.864 334.99 106.666 334.39 109.584C333.788 112.542 333.194 115.504 332.596 118.456C331.926 121.766 330.991 125.017 329.632 128.174C328.839 130.003 327.912 131.789 326.757 133.488C325.211 135.776 323.192 137.751 320.663 139.363C318.887 140.498 317.08 141.614 315.249 142.695C313.666 143.635 312.056 144.549 310.417 145.418C306.354 147.578 302.522 149.952 299.032 152.683C298.731 152.92 298.384 153.124 297.938 153.432C297.832 153.048 297.721 152.771 297.704 152.496C297.41 148.877 297.104 145.262 296.861 141.646C296.68 138.876 296.778 136.119 297.386 133.398C298.343 129.132 300.418 125.317 304.219 122.234C305.862 120.897 307.698 119.751 309.728 118.788C314.208 116.661 319.041 115.179 323.944 113.801C325.629 113.327 327.278 112.764 328.904 112.166C329.677 111.882 330.391 111.475 331.065 111.044C332.147 110.357 332.794 109.496 333.037 108.313C333.717 104.889 335.157 101.663 336.877 98.5262C337.861 96.7534 339.18 95.1417 340.61 93.5975C340.962 93.2115 341.332 92.8322 341.906 92.2372C340.99 92.4166 340.57 92.7518 340.104 93.0187C337.888 94.297 335.449 95.2305 332.845 95.908C329.362 96.8126 325.767 96.886 322.114 96.5096C318.925 96.1758 315.809 95.5591 312.729 94.7802C309.837 94.0474 306.949 93.3247 304.078 92.5331C296.427 90.4324 288.622 89.7576 280.698 90.1368C279.326 90.2012 277.96 90.2346 276.585 90.2646C276.414 90.2666 276.244 90.2101 275.868 90.1424C276.16 89.96 276.31 89.8241 276.494 89.76C278.114 89.1527 279.73 88.535 281.371 87.9687C286.406 86.2374 290.992 83.9576 294.95 80.9354C296.317 79.8873 297.502 78.6693 298.685 77.4755C300.668 75.4707 302.529 73.3779 304.779 71.542C306.822 69.8873 309.024 68.3856 311.533 67.2105C312.638 66.6917 313.842 66.2613 315.067 65.9476C318.546 65.0499 321.949 65.3984 325.234 66.8593C326.909 67.6066 328.385 68.5798 329.844 69.5635C330.715 70.1552 331.553 70.7851 332.44 71.3662C333.573 72.1165 334.797 72.759 336.177 73.1589C337.318 73.4928 338.488 73.6785 339.688 73.5818C341.64 73.428 343.068 72.6715 343.815 71.2111C344.115 70.6125 344.298 69.9774 344.56 69.3723C345.113 68.1068 345.58 66.8079 346.261 65.5993C347.327 63.6983 349.057 62.2434 351.415 61.3212C353.005 60.6935 354.731 60.5458 356.5 60.5903C358.957 60.6541 361.367 61.035 363.706 61.6746C365.972 62.2945 368.217 62.9903 370.455 63.7C373.73 64.7379 377.107 65.2105 380.584 65.3105C383.569 65.399 386.254 64.7102 388.735 63.5664C389.79 63.0792 390.71 62.3976 391.609 61.7334C393.306 60.4922 395.247 59.5371 397.235 58.6502C400.787 57.0671 404.362 55.501 408.18 54.3379C411.871 53.2107 415.543 52.0425 419.294 51.0384C423.709 49.8511 428.332 49.3217 432.963 48.8714C437.536 48.4321 442.122 48.082 446.691 47.6496C450.958 47.2448 455.146 46.5418 459.223 45.4857C459.791 45.3414 460.335 45.1458 461.266 44.863C460.494 44.7449 460.138 44.6596 459.782 44.6501C456.121 44.5558 452.763 43.5532 449.585 42.091C446.72 40.7731 443.887 39.4169 441.034 38.0953C440.097 37.6627 439.147 37.2508 438.191 36.8528C435.303 35.652 432.254 35.1618 429.067 35.2648C426.051 35.3658 423.141 35.868 420.375 36.7607C416.876 37.8856 413.359 38.9454 409.757 39.8548C406.798 40.5984 403.97 41.6019 401.364 42.9329C398.178 44.5632 395.392 46.5638 392.94 48.8596C391.376 50.3194 389.898 51.8366 388.24 53.2184C383.969 56.7844 378.642 58.2955 372.399 57.7124C370.352 57.5199 368.324 57.0829 366.313 56.6526C364.247 56.2092 362.206 55.6417 360.156 55.1293C356.217 54.1405 352.232 53.4446 348.12 53.5896C347.753 53.6008 347.382 53.5433 347.065 53.5229C346.787 53.1822 347.066 53.0035 347.199 52.8024C348.392 51.0925 350.17 49.7816 351.964 48.5186C353.622 47.3466 355.343 46.2152 357.134 45.1862C362.715 41.9934 369.03 40.498 376.007 40.6391C379.954 40.7163 383.869 41.1929 387.793 41.5971C389.85 41.8101 391.91 41.999 393.97 42.1295C396.309 42.2738 398.589 42.0267 400.714 41.2758C401.069 41.1512 401.363 40.9275 401.962 40.5937C401.145 40.5173 400.667 40.4611 400.186 40.4289C398.12 40.271 396.093 39.9097 394.106 39.3794C390.676 38.4672 387.713 36.944 385.172 34.8688C383.524 33.5193 381.891 32.1592 380.246 30.8027C377.795 28.7781 375.077 27.0216 372.143 25.4843C368.183 23.4053 363.827 22.2494 359.242 21.7189C356.947 21.4571 354.629 21.3125 352.322 21.1299C349.955 20.9412 347.578 20.8076 345.205 20.5915C341.099 20.2272 337.254 19.0894 333.536 17.6061C333.142 17.456 332.78 17.2676 332.406 17.1C332.498 16.724 332.815 16.8785 332.988 16.9108C340.999 18.4775 348.641 17.4206 356.163 15.4707C359.411 14.6274 362.419 13.3741 365.456 12.1652C368.881 10.7935 372.374 9.56548 376.133 8.83307C378.988 8.27646 381.874 8.00844 384.838 8.23138C388.025 8.47232 391.017 9.21779 393.664 10.7379C395.933 12.0388 398.132 13.43 400.383 14.7656C402.127 15.7906 403.854 16.8262 405.662 17.7749C408.349 19.1844 411.291 20.0955 414.427 20.5435C415.048 20.629 415.666 20.7387 416.287 20.8242C422.553 21.6926 427.132 24.5107 430.367 28.8892C431.016 29.7656 431.578 30.6842 432.185 31.5783C432.817 32.5236 433.474 33.4618 434.64 34.0741C435.118 34.323 435.588 34.6029 436.11 34.7515C438.139 35.3398 440.037 36.1636 441.9 37.0325C444.146 38.0895 446.423 39.0911 448.629 40.2001C453.231 42.4985 458.262 43.1648 463.456 43.2307C465.783 43.2617 468.022 42.8981 470.111 42.041C472.574 41.0246 475.084 40.0765 477.571 39.0943C484.68 36.2824 492.183 34.2915 499.937 32.8411C508.274 31.2771 516.717 30.1144 525.3 29.5417C526.645 29.4501 527.992 29.3757 529.355 29.1566C529.216 28.9863 529.178 28.8629 529.095 28.8398C526.643 28.1739 524.194 27.5012 521.726 26.863C520.948 26.6589 520.141 26.5275 519.341 26.3821C516.668 25.884 513.984 25.8263 511.337 26.2945C509.523 26.6186 507.716 26.9874 505.943 27.4108C502.388 28.2715 498.833 29.1151 495.177 29.719C492.257 30.2007 489.302 30.5349 486.298 30.6151C482.388 30.7198 478.556 30.2836 474.793 29.303C470.304 28.1384 466.473 26.1335 463.226 23.3444C461.188 21.5867 459.175 19.8045 457.032 18.1409C452.817 14.8576 448.044 12.1415 443.111 9.61657C439.623 7.83471 436.013 6.23314 432.276 4.84293C429.046 3.64622 425.943 2.27946 422.873 0.833195C421.798 0.323052 420.712 -0.166311 419.722 -0.828806C420.189 -0.73458 420.662 -0.630087 421.137 -0.549711C422.43 -0.317329 423.711 -0.0641447 425.009 0.120014C429.901 0.825812 434.597 0.374684 439.16 -0.965767C441.885 -1.76506 444.623 -2.55075 447.382 -3.27822C449.742 -3.89777 452.177 -4.27055 454.688 -4.37936C459.953 -4.6136 464.574 -3.30607 468.497 -0.318533C469.974 0.806029 471.41 1.96547 472.886 3.09003C474.04 3.97418 475.278 4.76447 476.684 5.38421C478.381 6.13123 480.107 6.38601 481.925 5.86229C482.681 5.64696 483.446 5.43493 484.223 5.27784C485.477 5.02566 486.743 4.76992 488.033 4.60676C491.108 4.20923 494.001 4.74948 496.72 6.04511C499.707 7.46827 502.221 9.32356 504.354 11.5205C506.195 13.4215 507.701 15.4882 509.256 17.5406C510.542 19.2385 511.986 20.8622 513.4 22.5C514.174 23.399 515.192 24.0887 516.533 24.4065C517.201 24.5602 517.85 24.7658 518.529 24.8817C521.432 25.3667 524.248 26.104 527.062 26.8825C528.968 27.4069 530.922 27.8241 532.876 28.2413C534.366 28.5573 535.84 28.4814 537.329 28.2265C540.895 27.6133 544.197 26.5389 547.201 24.9485C552.027 22.3907 557.252 20.5643 562.908 19.4723C563.323 19.3952 563.722 19.2873 564.135 19.193C564.088 18.7808 563.714 18.823 563.458 18.7504C561.898 18.3492 560.329 17.9446 558.75 17.578C557.662 17.3226 556.557 17.0949 555.451 16.9084C553.572 16.5867 551.708 16.6569 549.904 17.1357C548.141 17.5968 546.398 18.099 544.632 18.5671C542.454 19.1467 540.212 19.5344 537.9 19.6855C535.115 19.8664 532.4 19.5785 529.777 18.7221C528.494 18.3004 527.197 17.8651 525.964 17.3534C522.24 15.8254 518.53 14.2698 514.825 12.7072C513.2 12.0213 511.638 11.2417 510.22 10.2987C510.277 9.90935 510.657 9.97024 510.922 9.97054C513.857 9.93928 516.533 9.24719 519.135 8.26703C520.463 7.76631 521.87 7.3541 523.289 7.01397C526.157 6.31961 528.965 6.57537 531.626 7.84072C532.828 8.40783 534.027 8.98185 535.19 9.60103C537.454 10.816 539.907 11.5576 542.592 11.7666C543.151 11.8116 543.711 11.8909 544.275 11.9462C546.791 12.1916 549.234 12.7028 551.465 13.729C554.863 15.2918 558.542 16.1564 562.205 17.1072C566.282 18.1735 570.33 18.3148 574.408 17.4858C581.251 16.0908 588.038 14.5486 594.733 12.7702C595.843 12.4716 596.914 12.0909 598.008 11.7443C598.044 11.7163 598.072 11.685 598.109 11.6571C598.072 11.685 598.023 11.7166 597.986 11.7446L598.024 11.6581ZM379.895 92.6067C379.842 92.3597 379.613 92.3314 379.346 92.2967C377.868 92.1113 376.385 91.9155 374.903 91.7198C374.161 91.6219 373.425 91.4758 372.685 91.3951C370.658 91.1852 368.714 91.4008 366.849 92.0076C365.668 92.3965 364.852 93.0254 364.315 94.0121C362.891 96.6741 362.055 99.4599 361.775 102.373C361.751 102.608 361.8 102.844 361.831 103.343C362.181 102.981 362.371 102.81 362.517 102.623C363.22 101.758 363.869 100.856 364.635 100.031C366.226 98.3305 368.095 96.8362 370.368 95.7223C373.322 94.2805 376.502 93.235 379.909 92.6203C379.928 92.5856 379.93 92.5444 379.967 92.5164C379.978 92.4956 380.025 92.4882 380.063 92.4774C380.006 92.5228 379.949 92.5682 379.892 92.6136L379.895 92.6067ZM464.288 92.8678C464.199 92.9514 464.122 93.0314 464.034 93.115C464.085 93.1179 464.171 93.1168 464.174 93.1099C464.199 93.0271 464.215 92.9409 464.231 92.8547C464.42 92.6667 464.645 92.4921 464.785 92.2772C466.252 90.0927 468.034 88.0869 469.993 86.1821C470.734 85.4579 471.418 84.7034 472.12 83.9555C474.105 81.8509 475.633 79.5557 476.62 77.0123C477.486 74.7834 478.326 72.5445 479.161 70.3125C479.238 70.0983 479.223 69.8577 479.257 69.5098C478.806 69.6149 478.486 69.6359 478.25 69.7557C477.634 70.0828 477.008 70.4067 476.495 70.8153C475.204 71.8418 474.411 73.117 473.835 74.4998C473.325 75.7235 472.833 76.9539 472.224 78.1479C471.149 80.2382 469.612 82.0692 467.229 83.3425C467.031 83.4515 466.879 83.6116 466.687 83.7652C466.542 86.2436 465.775 88.602 464.79 90.9115C464.593 91.3816 464.378 91.8451 464.215 92.3286C464.157 92.491 464.259 92.6893 464.288 92.8678ZM407.602 129.663C407.522 129.75 407.43 129.841 407.35 129.927C407.402 129.947 407.462 129.954 407.51 129.963C407.525 129.86 407.54 129.757 407.55 129.643C408.208 129.432 408.307 128.891 408.558 128.458C410.151 125.701 411.101 122.766 411.692 119.753C412.161 117.339 412.514 114.907 412.906 112.48C413.222 110.495 413.604 108.527 414.306 106.613C414.364 106.45 414.318 106.265 414.328 106.076C414.085 106.092 413.938 106.07 413.86 106.116C412.398 107.01 410.886 107.86 409.502 108.826C408.392 109.603 407.609 110.63 406.976 111.715C406.474 112.58 406.223 113.492 406.438 114.48C406.754 115.917 407.02 117.369 407.37 118.803C408.198 122.205 408.43 125.591 407.533 128.966C407.478 129.179 407.584 129.429 407.615 129.659L407.602 129.663ZM410.486 127.297C410.421 127.356 410.344 127.419 410.279 127.478C410.357 127.491 410.422 127.507 410.5 127.52C410.478 127.445 410.456 127.369 410.438 127.287C411.109 127.148 411.343 126.65 411.691 126.254C414.434 123.146 416.9 119.908 418.727 116.367C419.359 115.132 420.057 113.913 420.716 112.687C420.984 112.185 421.252 111.683 421.437 111.158C422.56 108.046 423.385 104.878 423.695 101.624C423.848 99.971 423.779 98.3173 423.497 96.6661C423.462 96.4429 423.461 96.1574 422.993 96.0632C422.833 96.1614 422.621 96.2568 422.458 96.3963C421.165 97.5227 419.969 98.7029 418.982 100.022C416.471 103.361 414.819 106.968 414.135 110.877C413.792 112.852 413.515 114.843 413.198 116.828C412.666 120.157 411.926 123.441 410.558 126.594C410.46 126.809 410.51 127.063 410.495 127.3L410.486 127.297ZM368.641 72.5308C366.548 71.3895 364.825 70.4398 363.096 69.504C362.516 69.1909 361.92 68.8884 361.306 68.6377C356.993 66.869 352.615 66.7866 348.2 67.974C347.103 68.269 346.252 68.7503 346.087 69.8117C345.996 70.3976 345.728 70.9752 345.428 71.5153C345.106 72.0971 344.727 72.6829 344.218 73.1601C342.703 74.5712 340.672 75.0389 338.366 74.8736C335.905 74.6997 333.774 73.8375 331.839 72.622C330.94 72.0616 330.102 71.4317 329.235 70.8331C327.735 69.8086 326.238 68.7771 324.514 68.0029C321.527 66.6554 318.442 66.403 315.276 67.2522C313.628 67.6982 312.104 68.3423 310.71 69.1706C308.385 70.5499 306.269 72.1263 304.359 73.8653C304.161 74.05 304.067 74.316 303.838 74.6902C304.522 74.4895 304.995 74.3841 305.437 74.2172C307.499 73.4842 309.677 73.173 311.933 73.0844C316.36 72.9082 320.503 73.8155 324.389 75.6064C325.706 76.2169 326.983 76.8794 328.283 77.5176C330.083 78.4044 331.993 79.0733 334.034 79.4482C337.061 79.9971 339.861 79.7301 342.282 78.102C343.316 77.4052 344.427 76.7798 345.561 76.1885C350.206 73.7463 355.31 72.4442 360.998 72.6143C362.805 72.6652 364.618 72.6678 366.435 72.6635C367.05 72.6631 367.653 72.5907 368.662 72.5306L368.641 72.5308ZM411.245 89.1298C411.489 88.7864 411.656 88.5815 411.796 88.3666C413.907 85.1185 417.032 82.6599 421.016 80.9307C423.068 80.0431 425.2 79.2611 427.366 78.551C430.273 77.5947 433.248 76.765 436.175 75.8498C438.078 75.2494 439.859 74.4681 441.446 73.4449C443.061 72.4076 444.268 71.1309 444.89 69.5138C445.231 68.6119 445.647 67.7299 446.006 66.8347C446.095 66.6169 446.307 66.3874 445.923 66.1236C445.678 66.24 445.41 66.3395 445.18 66.4867C442.524 68.1176 439.475 68.9861 436.147 69.3041C434.111 69.4933 432.07 69.655 430.021 69.7721C426.971 69.9527 423.959 70.2566 421.024 70.9001C418.86 71.3763 416.824 72.0436 415.019 73.1176C413.638 73.9423 412.636 74.9448 412.278 76.3353C412.154 76.8252 411.957 77.2953 411.816 77.7786C410.76 81.4029 410.785 85.1038 411.03 88.8297C411.028 88.871 411.091 88.9115 411.254 89.1332L411.245 89.1298ZM525.665 61.4589C525.963 61.304 526.143 61.2468 526.27 61.1524C528.371 59.4696 530.788 58.1339 533.323 56.8931C538.065 54.5805 543.21 53.3777 548.872 53.5378C549.488 53.5546 550.102 53.5198 550.764 53.5119C552.256 50.6324 553.721 47.8013 555.182 44.9771C555.206 44.9356 555.194 44.8806 555.178 44.8327C555.162 44.7847 555.121 44.7439 555.037 44.6279C554.678 44.5668 554.262 44.4755 553.835 44.422C548.892 43.7719 543.982 43.8059 539.11 44.4585C536.541 44.8054 534.02 45.2961 531.618 46.126C530.521 46.4967 529.803 47.0624 529.273 47.884C528.447 49.163 527.759 50.4783 527.234 51.8638C526.142 54.7868 525.706 57.8087 525.525 60.8689C525.521 61.0099 525.59 61.1536 525.668 61.4519L525.665 61.4589ZM482.042 20.9066C481.453 20.3804 481.204 20.0841 480.862 19.8783C479.85 19.2746 478.812 18.678 477.748 18.1299C476.577 17.5246 475.331 17.0164 474.168 16.3973C471.043 14.7453 468.44 12.6881 466.819 9.93132C466.225 8.91671 465.616 7.91261 465.132 6.87263C464.04 4.51893 462.211 2.5971 459.824 1.0086C457.612 -0.471875 455.179 -1.6505 452.437 -2.35077C451.39 -2.62389 450.368 -2.69438 449.317 -2.40677C446.695 -1.67748 444.062 -0.985898 441.435 -0.266871C441.284 -0.223805 441.15 -0.115584 441.038 -0.0489119C441.094 0.0983358 441.094 0.232504 441.174 0.279717C443.279 1.53445 445.021 3.07896 446.658 4.7176C446.922 4.98621 447.304 5.2156 447.69 5.36239C451.104 6.64635 454.081 8.45145 456.987 10.364C459.591 12.0772 462.202 13.7766 464.821 15.4621C469.51 18.4818 474.914 20.0622 480.7 20.84C480.997 20.8777 481.296 20.8742 482.051 20.91L482.042 20.9066ZM313.013 93.2943C313.292 93.4424 313.44 93.5576 313.605 93.6038C317.473 94.5487 321.383 95.2833 325.416 95.3767C328.987 95.4617 332.324 94.8203 335.477 93.6135C335.974 93.4253 336.441 93.1755 336.855 92.8886C339.091 91.3074 340.944 89.4967 342.038 87.2204C342.594 86.0649 343.142 84.9061 343.672 83.7406C345.219 80.3031 347.739 77.4458 351.292 75.192C351.477 75.0694 351.849 75.01 351.714 74.6229C351.272 74.7313 350.853 74.7982 350.463 74.9266C348.294 75.6608 346.289 76.6168 344.428 77.7533C342.521 78.9144 340.641 80.1027 338.739 81.2741C334.683 83.7643 330.214 85.5852 325.063 86.2068C323.54 86.39 322.451 86.9566 321.57 87.913C320.801 88.7442 319.956 89.5213 319.102 90.295C317.779 91.494 316.207 92.4138 314.262 92.8977C313.867 92.9987 313.482 93.1374 313.004 93.291L313.013 93.2943ZM414.242 72.6624C414.781 72.4565 414.953 72.4132 415.102 72.3357C417.161 71.2072 419.476 70.5538 421.905 70.0951C424.681 69.567 427.511 69.2858 430.384 69.1555C432.997 69.0352 435.597 68.8428 438.143 68.4033C440.732 67.9634 443.059 67.0966 445.097 65.7757C446.145 65.0925 447.169 64.3752 447.698 63.3267C448.922 60.8734 450.674 58.6719 452.475 56.4972C453.632 55.1007 454.794 53.7145 455.951 52.318C456.11 52.127 456.367 51.9313 456.018 51.6052C455.774 51.7388 455.534 51.8655 455.295 52.0093C451.284 54.3993 446.994 56.4141 442.418 58.0437C437.864 59.673 433.267 61.2271 428.698 62.8256C425.644 63.8936 422.679 65.0879 420.037 66.7324C417.769 68.142 415.938 69.8354 414.612 71.8806C414.511 72.0435 414.45 72.2299 414.247 72.6726L414.242 72.6624ZM509.743 80.8551C510.005 80.7282 510.281 80.632 510.507 80.4918C511.388 79.9379 512.371 79.5238 513.426 79.2464C516.186 78.519 518.931 77.7779 521.716 77.1189C523.919 76.5906 526.07 75.9839 528.09 75.1345C529.998 74.3345 531.864 73.4765 533.715 72.5878C534.824 72.0622 535.922 71.4988 536.911 70.8439C539.571 69.0719 541.863 67.0256 543.784 64.712C546.047 61.9918 547.805 59.0541 549.421 56.0458C549.506 55.8934 549.477 55.6977 549.5 55.4635C549.139 55.5021 548.883 55.5052 548.651 55.5595C546.138 56.1878 543.855 57.147 541.967 58.6003C540.547 59.6868 539.181 60.8278 537.896 62.016C534.301 65.3194 530.104 68.0074 525.149 69.9201C522.694 70.8641 520.359 71.9546 518.173 73.236C514.972 75.1038 512.236 77.3583 510.033 80.0089C509.842 80.2382 509.543 80.4516 509.761 80.8618L509.743 80.8551ZM440.811 78.0102C440.436 78.1694 440.293 78.1986 440.224 78.2648C437.785 80.6912 435.008 82.8464 432.033 84.8423C429.292 86.684 426.413 88.3726 423.216 89.6797C421.077 90.5512 418.896 91.3647 416.743 92.2226C414.441 93.1407 412.539 94.4463 411.044 96.1254C410.688 96.5183 410.413 96.9756 410.176 97.4221C409.458 98.7928 408.88 100.217 408.078 101.547C406.37 104.395 405.78 107.408 406.046 110.58C406.056 110.752 406.152 110.923 406.274 111.296C406.586 110.945 406.771 110.764 406.913 110.566C407.71 109.436 408.722 108.454 410.01 107.661C411.077 107.002 412.15 106.329 413.263 105.72C414.524 105.035 415.393 104.175 415.993 103.019C417.667 99.7724 420.076 96.9233 423.396 94.6309C425.396 93.2451 427.5 91.9578 429.513 90.5856C430.777 89.7245 432.043 88.8564 433.198 87.9037C436.401 85.2481 438.632 82.0709 440.561 78.7286C440.657 78.5555 440.692 78.359 440.806 77.9999L440.811 78.0102ZM328.015 84.8063C326.617 84.2484 325.414 83.8155 324.245 83.303C323.19 82.8339 322.194 82.2953 321.175 81.781C318.201 80.2958 315.115 79.0114 311.757 78.2187C308.295 77.4031 304.841 77.3373 301.379 77.9733C300.496 78.1317 299.81 78.4494 299.257 79.0441C298.533 79.8335 297.707 80.576 296.866 81.2876C294.527 83.2657 291.783 84.8461 288.938 86.321C288.714 86.4371 288.5 86.5738 288.071 86.8128C288.525 86.8349 288.72 86.8842 288.872 86.8412C292.624 85.7958 296.522 85.7119 300.488 85.9643C303.479 86.1559 306.486 86.2442 309.483 86.312C314.804 86.4348 320.09 86.1831 325.291 85.413C326.134 85.2895 326.992 85.1968 328.01 84.7961L328.015 84.8063ZM522.256 -6.4751C522.292 -6.38608 522.304 -6.25551 522.375 -6.21163C524.784 -4.87451 527.295 -3.68307 530.089 -2.96278C530.619 -2.82801 531.191 -2.71095 531.742 -2.71059C534.085 -2.70733 536.294 -3.07399 538.338 -4.02347C540.087 -4.84219 541.895 -5.59628 543.728 -6.29903C545.966 -7.15793 548.319 -7.7464 550.881 -7.71823C551.091 -7.71383 551.303 -7.80922 551.612 -7.8679C551.35 -8.16063 551.199 -8.3859 550.982 -8.56909C549.538 -9.79035 548.118 -11.036 546.617 -12.2118C545.476 -13.0996 544.222 -13.8793 543.023 -14.7217C542.259 -15.2561 541.361 -15.4725 540.404 -15.4509C539.666 -15.4387 538.904 -15.385 538.195 -15.2356C536.313 -14.8453 534.65 -14.0861 533.209 -13.0577C532.342 -12.4317 531.502 -11.7785 530.657 -11.1356C528.241 -9.2874 525.728 -7.56876 522.478 -6.68414C522.378 -6.65543 522.329 -6.54819 522.248 -6.47844L522.256 -6.4751ZM410.946 94.9639C411.447 94.6346 411.776 94.4243 412.096 94.2107C412.95 93.6468 413.74 93.008 414.668 92.5395C416.02 91.8631 417.445 91.2649 418.894 90.718C421.978 89.5774 424.974 88.3277 427.748 86.7504C431.117 84.829 434.196 82.6462 437.048 80.2596C439.222 78.4452 441.159 76.465 442.728 74.2691C442.905 74.0262 443.186 73.789 442.852 73.4352C442.652 73.527 442.418 73.6054 442.245 73.7244C440.032 75.1884 437.481 76.1542 434.807 76.9564C432.382 77.6936 429.938 78.3898 427.526 79.1407C424.821 79.9811 422.185 80.9651 419.764 82.2492C416.081 84.2019 413.348 86.7934 411.639 90.1021C410.853 91.6146 410.964 93.1922 410.955 94.9672L410.946 94.9639ZM473.263 5.08753C473.829 6.62875 474.417 8.11127 475.434 9.47174C476.907 11.4253 478.827 13.0125 481.221 14.2431C482.395 14.8415 483.562 15.4538 484.689 16.1181C486.806 17.3692 488.295 18.9683 488.777 21.0816C488.799 21.157 488.944 21.2206 489.034 21.2884C491.225 21.4688 496.251 21.437 497.464 21.2197C497.427 20.6938 497.461 20.1361 497.33 19.6079C496.986 18.2774 496.696 16.9255 496.163 15.6316C494.597 11.8388 491.495 9.05477 487.07 7.20143C485.71 6.63275 484.394 6.30779 482.998 6.95035C482.898 6.99625 482.762 7.01159 482.649 7.04389C480.275 7.70832 477.993 7.46014 475.799 6.40598C474.935 5.9931 474.103 5.54198 473.255 5.10139L473.263 5.08753ZM429.502 33.8115C429.292 33.5973 429.215 33.4503 429.074 33.3797C426.207 32.0445 423.232 30.9446 420.064 30.1909C419.136 29.9714 418.393 30.0662 417.583 30.4369C413.895 32.111 409.882 33.0907 405.612 33.3682C403.815 33.4892 402.002 33.4865 400.191 33.5011C397.76 33.5229 395.317 33.4899 392.891 33.5392C391.328 33.5646 389.793 33.7685 388.363 34.2807C388.096 34.3802 387.748 34.4153 387.718 34.7562C387.809 34.8583 387.9 35.0017 388.025 35.1C388.361 35.3368 388.704 35.5597 389.06 35.7791C391.437 37.2301 394.123 38.0687 396.966 38.6233C401.099 39.4343 405.168 39.2142 409.199 38.4511C412.342 37.8532 415.342 36.9406 418.302 35.9459C421.627 34.8299 425.064 34.0669 428.722 33.917C428.94 33.9076 429.159 33.8568 429.502 33.8115ZM386.387 65.9607C385.69 66.0894 385.29 66.1801 384.878 66.2331C383.962 66.354 383.055 66.5368 382.128 66.5615C378.548 66.6657 375.017 66.3188 371.58 65.3619C370.144 64.9661 368.755 64.4872 367.331 64.0706C365.668 63.588 364.017 63.0847 362.328 62.6678C360.33 62.1755 358.292 61.9106 356.22 61.8594C353.116 61.7929 350.671 62.7575 348.869 64.7051C348.256 65.3694 347.83 66.1552 347.364 66.9003C347.255 67.077 347.318 67.3274 347.296 67.596C347.612 67.5234 347.785 67.4801 347.966 67.4401C348.202 67.3789 348.433 67.3245 348.678 67.2666C353.967 65.976 358.997 66.5082 363.724 69.0975C364.406 69.4747 365.072 69.8624 365.761 70.2258C366.606 70.6733 367.45 71.1208 368.319 71.544C369.796 72.2661 371.334 72.5334 372.988 72.1148C373.456 71.9992 373.951 71.928 374.428 71.8329C378.754 70.9975 382.26 69.0194 385.603 66.8197C385.87 66.6445 386.024 66.3675 386.413 65.9536L386.387 65.9607ZM385.926 68.0163C385.888 67.893 385.892 67.8275 385.852 67.8039C385.813 67.7803 385.713 67.7678 385.677 67.7957C385.142 68.1288 384.611 68.455 384.084 68.7914C379.654 71.575 374.57 73.0696 368.886 73.3122C366.712 73.4067 364.533 73.4325 362.346 73.3964C361.054 73.3738 359.905 73.5904 358.75 73.9893C356.719 74.6841 355.127 75.814 353.614 77.0496C350.636 79.4892 348.669 82.4225 347.336 85.6648C347.302 85.7272 347.406 85.8257 347.445 85.9078C347.506 85.914 347.576 85.9407 347.617 85.923C348.023 85.7083 348.437 85.497 348.829 85.2688C351.751 83.5212 354.875 82.0602 358.328 81.0769C360.936 80.334 363.582 79.6388 366.31 79.1766C367.948 78.9027 369.559 78.5603 371.165 78.1904C373.947 77.5556 376.369 76.4228 378.436 74.8194C378.697 74.6168 378.976 74.4209 379.249 74.2147C381.783 72.3445 383.951 70.2171 385.917 68.013L385.926 68.0163ZM487.934 21.2051C487.858 20.807 487.849 20.4596 487.706 20.1448C487.094 18.7039 485.921 17.5689 484.412 16.6752C483.236 15.9839 482.008 15.3483 480.78 14.7127C477.577 13.065 475.259 10.8394 473.734 8.06085C473.049 6.80997 472.347 5.55243 471.612 4.31591C471.344 3.86158 471.02 3.39416 470.588 3.04497C469.393 2.06154 468.137 1.11322 466.878 0.189038C463.205 -2.50219 458.895 -3.41435 454.141 -3.0692C453.92 -3.05283 453.714 -2.9885 453.178 -2.8824C453.927 -2.58856 454.345 -2.40428 454.787 -2.24439C456.524 -1.60793 458.146 -0.822191 459.654 0.130001C462.408 1.85863 464.582 3.94496 465.812 6.60315C466.163 7.36608 466.564 8.11467 466.995 8.84914C467.905 10.4207 468.985 11.8974 470.51 13.183C472.329 14.7232 474.45 15.9089 476.708 16.9451C479.124 18.0586 481.565 19.1477 483.134 21.0795C484.771 21.2081 486.309 21.4582 487.952 21.2117L487.934 21.2051ZM401.979 26.4558C399.74 25.3093 397.701 24.2808 395.69 23.2211C394.258 22.4744 392.829 21.7035 391.441 20.8978C390.492 20.3518 389.481 20.1849 388.409 20.3971C387.336 20.6093 386.243 20.8389 385.244 21.205C383.559 21.8132 381.95 22.5339 380.298 23.1967C378.576 23.8912 376.79 24.3939 374.822 24.4998C374.571 24.5131 374.196 24.404 374.073 24.7597C375.802 25.8882 377.57 26.9646 379.217 28.1456C380.918 29.3638 382.496 30.6867 384.155 31.9811C384.423 31.8988 384.66 31.8547 384.872 31.7594C387.347 30.5881 390.042 29.937 392.887 29.5525C394.23 29.3681 395.557 29.1185 396.868 28.8209C398.36 28.4834 399.784 28.0022 401.023 27.2411C401.348 27.0377 401.605 26.7664 401.983 26.4489L401.979 26.4558ZM547.909 71.6357C548.206 71.5978 548.399 71.6127 548.541 71.5491C550.237 70.8445 551.919 70.1264 553.601 69.4082C555.655 68.5377 556.97 67.1428 557.844 65.4539C559.129 62.9654 559.505 60.357 558.88 57.6607C558.605 56.4738 558.139 55.3063 557.683 54.1594C556.836 52.0333 555.948 49.9248 555.478 47.7323C555.449 47.6123 555.293 47.5109 555.142 47.3442C554.601 47.8596 554.402 48.4296 554.136 48.9659C552.222 52.8342 550.282 56.6926 547.962 60.4144C547.636 60.9445 547.623 61.4263 547.838 61.9947C549.002 65.0218 549.13 68.0404 547.97 71.0296C547.907 71.1989 547.932 71.3843 547.909 71.6357ZM439.112 93.2102C439.287 93.1428 439.461 93.1166 439.571 93.0328C441.576 91.5816 443.594 90.1439 445.562 88.6622C447.481 87.2119 449.246 85.6363 450.789 83.9085C451.376 83.2514 451.729 82.5386 451.928 81.7417C452.34 80.0616 452.393 78.3617 452.055 76.6561C451.754 75.1152 451.389 73.575 450.973 72.0492C450.132 68.9771 449.594 65.8945 449.779 62.7689C449.791 62.614 449.921 62.3614 449.424 62.2812C449.213 62.6036 448.96 62.9265 448.794 63.2828C447.775 65.4619 446.774 67.6477 445.782 69.8369C445.046 71.4692 444.393 73.1246 443.621 74.7435C443.3 75.4181 443.169 76.056 443.308 76.7802C443.717 78.8908 443.592 80.9906 443.221 83.0726C442.665 86.2163 441.507 89.1814 439.658 91.9585C439.412 92.3261 438.945 92.6515 439.112 93.2102ZM547.203 -13.0374C547.346 -14.0229 547.02 -14.793 546.649 -15.5385C545.68 -17.5015 544.165 -19.1863 542.314 -20.6882C540.828 -21.8918 539.11 -22.8484 537.388 -23.7981C535.975 -24.5794 534.616 -25.3992 533.364 -26.3544C532.865 -26.7372 532.276 -27.0708 531.671 -27.3182C527.633 -28.9904 523.444 -29.4706 519.113 -28.5869C518.898 -28.5431 518.703 -28.4411 518.306 -28.2988C518.983 -27.9318 519.483 -27.6488 519.996 -27.3866C521.882 -26.4079 523.175 -25.0679 523.838 -23.3558C524.158 -22.5375 524.403 -21.6976 524.677 -20.8719C524.772 -20.584 524.87 -20.3031 524.955 -20.0358C527.017 -19.8882 529.009 -19.8086 530.981 -19.5946C532.973 -19.3808 534.906 -18.8876 536.786 -18.2976C538.678 -17.7111 540.516 -17.0277 542.178 -16.0842C543.826 -15.1543 545.399 -14.1272 547.181 -13.0372L547.203 -13.0374ZM379.902 104.371C380.083 104.331 380.27 104.318 380.419 104.241C383.388 102.754 386.346 101.247 389.323 99.7636C390.953 98.9497 392.018 97.7951 392.707 96.3629C393.489 94.7231 393.844 93.0128 393.82 91.2415C393.808 89.8864 393.719 88.5356 393.677 87.1774C393.612 85.1727 393.517 83.165 393.958 81.1853C393.985 81.0612 393.903 80.9211 393.821 80.6297C393.346 81.1031 392.968 81.4791 392.598 81.8584C389.981 84.5277 387.418 87.2342 384.739 89.8629C383.599 90.9806 382.962 92.223 382.803 93.6387C382.683 94.7339 382.636 95.8318 382.628 96.9361C382.621 99.2993 381.932 101.478 380.344 103.44C380.121 103.708 379.729 103.936 379.902 104.371ZM565.101 30.987C565.002 30.916 564.904 30.8449 564.814 30.7772C564.36 31.099 563.896 31.4175 563.442 31.7393C560.027 34.1463 556.259 36.0415 551.703 36.8143C550.252 37.0585 548.794 37.3337 547.373 37.6566C545.409 38.0995 543.434 38.5219 541.529 39.0879C537.697 40.2374 534.474 42.0883 531.941 44.6637C531.761 44.855 531.691 45.1138 531.536 45.4321C532.9 45.0961 534.064 44.7762 535.258 44.5179C541.325 43.2215 547.52 43.0313 553.805 43.7894C554.472 43.8675 555.142 44.0557 555.836 43.934C557.345 41.749 558.822 39.5851 560.317 37.4279C561.839 35.2394 563.67 33.202 565.117 30.9765L565.101 30.987ZM524.998 77.8575C523.214 78.797 521.78 79.87 520.495 81.0582C517.096 84.2183 514.493 87.7818 512.643 91.7078C511.789 93.5135 511.005 95.3459 510.178 97.1616C509.058 99.6377 507.794 102.05 505.999 104.252C505.871 104.405 505.855 104.625 505.749 104.912C507.772 103.561 509.652 102.297 511.544 101.046C514.107 99.3544 516.679 97.6832 518.839 95.6454C519.642 94.886 520.27 94.0599 520.76 93.1391C521.858 91.0657 522.332 88.8552 522.71 86.6251C523.198 83.7574 523.755 80.8992 525.092 78.2038C525.111 78.1692 525.074 78.1215 525.007 77.8608L524.998 77.8575ZM338.201 80.5994C337.639 80.293 337.638 80.2758 337.267 80.294C335.161 80.3808 333.146 80.0159 331.21 79.3371C329.942 78.8877 328.7 78.3726 327.486 77.8263C326.272 77.28 325.125 76.6331 323.915 76.0798C320.06 74.3264 315.978 73.5009 311.612 73.7005C308.365 73.8558 305.439 74.7297 302.625 75.8809C301.954 76.1538 301.507 76.5959 301.188 77.3048C301.732 77.2606 302.146 77.2419 302.549 77.1855C306.378 76.6896 310.138 77.0064 313.83 78.1357C316.379 78.9139 318.8 79.9035 321.13 81.0592C322.427 81.7043 323.7 82.3738 325.031 82.9566C325.972 83.3651 326.983 83.6834 327.981 83.988C329.297 84.3887 330.567 84.2602 331.791 83.7951C334.079 82.9218 336.224 81.868 338.205 80.5925L338.201 80.5994ZM318.477 138.924C318.934 138.712 319.106 138.652 319.241 138.561C321.868 136.81 324.049 134.772 325.615 132.315C326.912 130.283 327.903 128.153 328.746 125.965C330.297 121.967 331.051 117.817 331.836 113.669C331.855 113.559 331.748 113.426 331.634 113.173C331.244 113.57 330.951 113.869 330.648 114.165C329.277 115.488 327.92 116.825 326.526 118.132C324.567 119.961 322.599 121.787 320.603 123.585C319.628 124.463 319.033 125.478 318.853 126.643C318.706 127.577 318.651 128.537 318.697 129.486C318.779 130.944 318.993 132.393 319.144 133.843C319.295 135.31 319.196 136.749 318.607 138.135C318.533 138.308 318.536 138.494 318.463 138.911L318.477 138.924ZM442.636 77.5896C442.511 77.567 442.394 77.5477 442.269 77.5251C442.019 77.9753 441.769 78.4254 441.523 78.8686C440.207 81.2783 438.587 83.5471 436.716 85.695C434.626 88.1035 431.974 90.0715 429.088 91.8496C428.219 92.3827 427.223 92.8004 426.539 93.5549C426.666 94.3583 426.806 95.1582 426.907 95.9516C427.197 98.2769 426.895 100.561 426.321 102.818C426.25 103.118 426.065 103.433 426.357 103.863C426.607 103.622 426.769 103.483 426.905 103.333C429.108 100.893 431.521 98.5904 434.384 96.644C436.106 95.4713 437.342 94.0292 438.394 92.4585C438.914 91.6749 439.446 90.8878 439.905 90.0809C441.877 86.604 442.797 82.9194 442.761 79.0466C442.756 78.5582 442.675 78.0741 442.627 77.5862L442.636 77.5896ZM497.219 -16.6671C497.911 -16.2109 498.512 -16.0907 499.067 -15.9047C502.568 -14.7387 506.104 -13.635 509.563 -12.3929C510.944 -11.9001 512.304 -11.6169 513.743 -11.7234C514.977 -11.8068 516.211 -11.9658 517.407 -12.1898C519.528 -12.5898 521.498 -13.2907 523.434 -14.0635C527.259 -15.5844 531.205 -16.8247 535.475 -17.3705C535.683 -17.4005 535.983 -17.3868 535.897 -17.747C535.579 -17.843 535.242 -17.9628 534.885 -18.0653C530.928 -19.1364 526.899 -19.4465 522.841 -18.9789C520.324 -18.6877 517.816 -18.3175 515.373 -17.7967C510.538 -16.7695 505.626 -16.3675 500.591 -16.6244C499.776 -16.6663 498.97 -16.705 498.16 -16.7367C497.941 -16.7444 497.709 -16.7073 497.223 -16.674L497.219 -16.6671ZM544.756 65.5604C544.633 65.5137 544.494 65.4775 544.372 65.4308C544.087 65.7334 543.798 66.043 543.514 66.3456C540.654 69.434 537.187 71.9723 532.963 73.8282C531.561 74.4433 530.197 75.1233 528.771 75.7043C527.553 76.1968 526.741 76.9528 526.164 77.9159C525.897 78.3594 525.643 78.8165 525.428 79.2799C524.712 80.8191 524.269 82.4204 523.935 84.0549C523.45 86.4203 522.938 88.7758 522.453 91.1412C522.429 91.2413 522.497 91.3677 522.587 91.721C523.158 90.9987 523.587 90.4743 523.993 89.9328C526.22 86.9723 528.699 84.1499 531.338 81.4219C533.498 79.1914 535.875 77.1269 538.789 75.5273C540.149 74.7786 541.168 73.8412 542.005 72.734C543.305 71.0228 544.143 69.1692 544.566 67.1828C544.679 66.6552 544.705 66.1114 544.761 65.5707L544.756 65.5604ZM511.424 24.6079C505.801 22.81 498.012 21.8392 493.831 22.2601C493.715 22.3922 493.581 22.5589 493.449 22.7187C491.001 25.7541 487.442 27.0998 482.921 26.9882C480.849 26.937 478.814 26.6652 476.812 26.1626C475.609 25.8638 474.421 25.5202 473.228 25.1834C471.614 24.7278 469.973 24.3963 468.273 24.3442C468.054 24.3365 467.845 24.4077 467.417 24.4712C467.789 24.7558 467.99 24.9495 468.221 25.0878C470.501 26.4264 472.993 27.3842 475.661 28.0647C479.809 29.1164 484.017 29.4106 488.282 29.1228C491.888 28.8773 495.415 28.3333 498.878 27.5803C502.991 26.6889 507.083 25.7394 511.184 24.8103C511.235 24.7959 511.265 24.7405 511.424 24.6079ZM377.037 81.5849C379.278 81.6754 381.288 82.2983 383.314 82.835C384.091 83.0391 384.89 83.2257 385.69 83.3126C386.616 83.422 387.558 83.4453 388.494 83.4411C389.482 83.4397 390.203 83.0769 390.817 82.4299C393.595 79.5454 396.311 76.6204 398.73 73.5234C399.767 72.1903 400.618 70.7527 401.532 69.3557C401.657 69.1684 401.672 68.9309 401.81 68.4718C401.343 68.6631 401.134 68.7343 400.947 68.8225C397.789 70.3459 394.645 71.9 391.477 73.4028C387.661 75.2126 383.876 77.0426 380.323 79.1623C379.148 79.8641 378.005 80.5862 377.045 81.5711L377.037 81.5849ZM366.091 91.3665C366.422 91.4004 366.484 91.4237 366.543 91.4127C366.725 91.3899 366.916 91.3705 367.084 91.3169C369.465 90.5629 371.924 90.5683 374.426 91.0099C375.343 91.1745 376.265 91.3494 377.185 91.507C378.235 91.6804 379.289 91.7298 380.344 91.5694C381.42 91.4088 382.329 91.0506 383.009 90.3615C384.839 88.5168 386.673 86.6651 388.486 84.8137C388.651 84.6501 388.996 84.5049 388.769 84.2084C388.637 84.1583 388.517 84.0875 388.411 84.0888C386.191 84.1494 384.078 83.7135 381.976 83.1226C381.088 82.8682 380.173 82.6623 379.261 82.4908C376.946 82.0538 374.992 82.4587 373.348 83.8541C371.075 85.7901 368.926 87.8071 367.089 90.0269C366.756 90.4367 366.466 90.8633 366.096 91.3767L366.091 91.3665ZM410.706 27.9178C409.225 26.3805 408.795 24.8996 408.327 23.4294C407.982 22.3499 407.579 21.2987 406.926 20.2951C406.615 19.8241 406.22 19.4641 405.653 19.206C403.052 18.0225 400.723 16.5227 398.366 15.0543C396.56 13.9301 394.723 12.8443 392.865 11.7758C391.676 11.0881 390.378 10.56 388.991 10.1911C388.734 10.1185 388.416 9.94682 388.167 10.28C388.579 10.6466 388.984 11.0443 389.425 11.3968C391.068 12.7189 392.218 14.2979 393.115 15.9901C393.677 17.0601 394.131 18.1726 394.618 19.2642C394.941 19.9827 395.204 20.7123 395.56 21.4098C395.969 22.2202 396.613 22.8765 397.58 23.3707C399.722 24.4633 401.88 25.5455 404.219 26.3193C405.904 26.8772 407.647 27.3313 409.378 27.8062C409.643 27.8822 409.954 27.8578 410.697 27.9144L410.706 27.9178ZM361.956 116.519C366.602 108.071 372.566 100.595 379.706 93.4826C379.152 93.5064 378.846 93.4653 378.594 93.5371C377.023 93.9787 375.437 94.3896 373.913 94.9168C368.644 96.7265 364.997 99.8758 362.52 103.974C361.78 105.194 361.411 106.471 361.476 107.863C361.603 110.521 361.615 113.176 361.687 115.838C361.69 115.965 361.783 116.084 361.952 116.526L361.956 116.519ZM357.517 20.0469C358.014 20.127 358.373 20.2053 358.735 20.2423C363.114 20.7443 367.325 21.7024 371.259 23.4446C371.633 23.6122 372.069 23.7446 372.49 23.7878C373.988 23.9386 375.495 23.9758 376.924 23.5806C378.088 23.2606 379.236 22.8928 380.334 22.4636C382.876 21.4773 385.28 20.2621 388.119 19.7917C388.212 19.7768 388.273 19.666 388.423 19.5301C388.175 19.3851 387.959 19.2191 387.713 19.1085C384.376 17.6276 380.843 16.8438 377.08 16.8367C374.704 16.8372 372.35 17.0061 370.054 17.4151C365.957 18.1446 361.883 18.9667 357.798 19.7512C357.751 19.7586 357.726 19.8242 357.52 20.0227L357.517 20.0469ZM395.752 43.7733C395.708 43.6809 395.655 43.5852 395.615 43.4859C394.503 43.4234 393.391 43.4022 392.285 43.2914C388.982 42.9727 385.683 42.5886 382.379 42.3112C379.946 42.1061 377.508 41.9492 375.078 41.9125C371.163 41.8556 367.4 42.4608 363.829 43.676C363.528 43.7794 363.27 43.975 362.973 44.1471C364.51 44.9338 365.946 45.6736 367.389 46.3995C368.377 46.8935 369.419 47.2149 370.594 47.201C374.024 47.157 377.462 47.1748 380.894 47.0895C385.435 46.9739 389.745 46.0905 393.848 44.642C394.509 44.4071 395.121 44.0697 395.748 43.7802L395.752 43.7733ZM286.231 88.637C286.844 88.6779 287.447 88.7396 288.063 88.7564C293.22 88.9087 298.259 89.6368 303.212 90.9198C305.307 91.466 307.418 92.0018 309.508 92.5549C310.174 92.7328 310.824 92.8799 311.533 92.8062C313.406 92.6052 315.157 92.1648 316.674 91.2662C318.669 90.08 320.074 88.4673 321.67 86.7767C321.164 86.7517 320.862 86.7037 320.56 86.7314C313.8 87.3273 307 87.0774 300.192 86.7073C299.068 86.6484 297.941 86.5963 296.819 86.5718C293.074 86.4957 289.609 87.3484 286.222 88.6337L286.231 88.637ZM550.089 54.5553C550.033 54.408 550.029 54.3393 549.998 54.319C549.84 54.259 549.671 54.1612 549.513 54.1596C547.01 54.062 544.526 54.1808 542.095 54.6223C539.605 55.0749 537.239 55.8011 535.035 56.7903C531.912 58.1928 528.977 59.7927 526.405 61.8079C525.638 62.4051 525.233 63.0394 525.308 63.8985C525.328 64.1494 525.296 64.3974 525.295 64.6485C525.283 66.1037 525.168 67.5532 524.734 68.9652C524.717 69.0342 524.843 69.1325 524.966 69.3134C525.736 69.0532 526.416 68.6495 527.162 68.338C530.133 67.0955 532.732 65.4515 535.036 63.5186C536.604 62.2033 538.127 60.854 539.682 59.5251C542.291 57.2893 545.337 55.6056 549.11 54.8283C549.448 54.7555 549.774 54.645 550.098 54.5586L550.089 54.5553ZM564.965 4.04794C565.031 4.00588 565.101 3.9569 565.167 3.91485C564.983 3.71063 564.832 3.4854 564.624 3.30555C560.905 0.0851323 557.17 -3.12478 553.467 -6.35571C552.997 -6.7698 552.472 -6.9528 551.83 -7.03808C550.175 -7.24898 548.589 -7.04788 547.035 -6.6752C545.013 -6.18692 543.121 -5.47317 541.278 -4.65678C539.339 -3.80142 537.462 -2.84702 535.291 -2.35697C535.228 -2.33903 535.21 -2.21155 535.126 -2.0592C535.454 -2.00117 535.75 -1.92209 536.042 -1.89459C537.724 -1.73216 539.409 -1.57669 541.086 -1.42452C543.89 -1.16185 546.699 -0.947402 549.497 -0.636506C554.534 -0.0768918 559.265 1.28093 563.663 3.45106C564.086 3.66276 564.522 3.85369 564.953 4.05154L564.965 4.04794ZM379.085 47.8436C378.694 47.8035 378.348 47.7388 378.006 47.7428C375.634 47.7537 373.268 47.792 370.9 47.7959C364.201 47.8028 358.047 49.2756 352.255 51.7417C352.059 51.8265 351.762 51.8644 351.913 52.2238C352.094 52.2595 352.32 52.3119 352.553 52.3504C354.64 52.7007 356.745 52.9991 358.818 53.4115C360.463 53.736 362.085 54.1778 363.698 54.6162C364.564 54.8536 365.399 54.8782 366.272 54.7578C369.035 54.3673 371.432 53.4515 373.393 51.8495C375.068 50.4744 376.776 49.1367 378.897 48.1829C378.972 48.1442 378.982 48.0305 379.085 47.8436ZM307.423 145.25C307.716 145.161 307.958 145.127 308.144 145.021C310.745 143.546 313.35 142.064 315.928 140.554C316.357 140.298 316.687 139.912 316.977 139.544C318.117 138.082 318.57 136.443 318.466 134.7C318.381 133.401 318.223 132.099 318.086 130.797C317.949 129.495 317.8 128.197 318.022 126.897C318.041 126.787 317.913 126.654 317.809 126.422C317.461 126.742 317.169 126.983 316.921 127.258C314.707 129.678 312.56 132.132 310.285 134.512C308.447 136.446 307.632 138.585 307.866 141.048C307.987 142.302 307.868 143.549 307.383 144.748C307.339 144.866 307.404 145.016 307.427 145.243L307.423 145.25ZM386.789 34.117C387.108 34.0376 387.35 34.0038 387.567 33.9187C389.5 33.17 391.578 32.9046 393.71 32.8863C396.269 32.8629 398.832 32.8911 401.398 32.9123C406.475 32.9589 411.312 32.2344 415.846 30.4884C416.264 30.3287 416.639 30.111 417.311 29.7797C416.23 29.5104 415.424 29.4718 414.635 29.3642C413.824 29.2568 413.019 29.1597 412.212 29.0454C411.406 28.9311 410.599 28.8168 409.803 28.6645C409.007 28.5123 408.214 28.3359 407.432 28.1388C406.65 27.9416 405.894 27.6788 405.115 27.4576C404.354 27.243 403.661 26.8281 402.756 26.7769C401.446 27.9137 399.792 28.6763 397.939 29.1282C396.284 29.5296 394.598 29.8522 392.897 30.1269C391.009 30.4312 389.141 30.7767 387.356 31.355C386.51 31.6368 385.683 31.9424 384.961 32.3637C385.359 32.985 385.963 33.565 386.775 34.1034L386.789 34.117ZM455.688 54.4745C455.584 54.4516 455.471 54.4254 455.367 54.4026C454.281 55.7088 453.239 57.0317 452.114 58.3143C451.231 59.3119 450.822 60.4313 450.658 61.644C450.313 64.197 450.506 66.754 451.058 69.2963C451.374 70.7339 451.788 72.1668 452.151 73.597C452.683 75.6786 453.116 77.7649 452.988 79.8888C452.978 80.0024 453.092 80.1215 453.192 80.3439C453.782 79.8725 453.95 79.3408 454.189 78.853C455.951 75.296 456.612 71.5629 456.362 67.6926C456.253 65.9396 456.04 64.1809 455.846 62.4289C455.574 59.9176 455.362 57.4125 455.741 54.9141C455.766 54.7728 455.701 54.6222 455.688 54.4745ZM561.213 38.3736C561.093 38.3613 560.972 38.3489 560.852 38.3366C560.653 38.5797 560.441 38.8092 560.265 39.0693C559.231 40.5882 558.263 42.1407 557.154 43.6226C556.211 44.8824 555.999 46.2195 556.255 47.6509C556.373 48.2997 556.512 48.9481 556.747 49.5748C557.431 51.4208 558.143 53.2527 558.874 55.0913C560.211 58.4361 560.279 61.7341 558.88 65.0013C558.787 65.226 558.729 65.464 558.56 65.9785C559.026 65.6359 559.279 65.5057 559.434 65.3215C560.186 64.4252 560.925 63.5152 561.646 62.5986C563.412 60.3521 563.662 57.8381 563.243 55.2288C563.131 54.5318 562.9 53.8397 562.695 53.1576C562.521 52.5714 562.305 51.9858 562.102 51.3966C561.18 48.6797 560.877 45.9383 561.196 43.1654C561.319 42.1217 561.355 41.0618 561.375 40.0124C561.389 39.4722 561.269 38.9233 561.21 38.3805L561.213 38.3736ZM391.988 20.2C392.067 20.0374 392.168 19.933 392.142 19.8645C391.694 18.855 391.114 17.9125 390.163 17.1223C388.666 15.881 386.87 15.0457 384.919 14.4118C383.222 13.8574 381.478 13.3861 379.8 12.7971C378.414 12.3113 376.982 11.8329 375.763 11.1249C374.84 10.5889 374.089 10.5462 373.189 10.8492C373.017 10.9097 372.841 10.96 372.673 11.0136C369.239 12.0208 366.032 13.383 362.775 14.6839C362.516 14.7867 362.299 14.9475 361.977 15.1268C362.435 15.4688 362.879 15.4704 363.298 15.462C364.673 15.4492 366.043 15.4089 367.414 15.3858C368.981 15.3536 370.565 15.3864 372.049 15.8848C372.971 16.1939 373.854 16.2453 374.795 16.1757C379.804 15.8104 384.495 16.7249 388.911 18.7848C389.677 19.1438 390.432 19.5235 391.194 19.8895C391.454 20.0137 391.721 20.1068 391.997 20.2205L391.988 20.2ZM299.357 148.83C299.416 148.819 299.497 148.825 299.521 148.801C299.662 148.586 299.833 148.374 299.925 148.149C300.826 146.143 302.008 144.244 303.259 142.372C305.92 138.419 308.92 134.638 312.164 130.991C312.468 130.654 312.72 130.296 313.013 129.922C312.761 129.859 312.627 129.775 312.539 129.8C310.83 130.223 309.101 130.604 307.431 131.109C306.222 131.471 305.112 131.979 304.14 132.699C301.683 134.507 300.042 136.717 298.934 139.231C298.555 140.085 298.409 140.961 298.496 141.875C298.702 144.025 298.884 146.184 299.082 148.331C299.101 148.506 299.026 148.738 299.348 148.827L299.357 148.83ZM474.947 20.5193C473.77 21.7406 472.132 21.9973 470.435 22.1309C468.614 22.2763 466.817 22.0533 465.034 21.6925C464.631 21.6148 464.218 21.5749 463.438 21.4706C464.219 22.1287 464.766 22.5385 465.234 22.9939C465.808 23.5478 466.456 23.7946 467.36 23.7702C469.635 23.7055 471.841 24.1265 473.993 24.7615C475.003 25.0626 476.017 25.3396 477.045 25.5889C479.355 26.1498 481.707 26.4419 484.097 26.3792C486.756 26.3099 489.071 25.5808 491 24.1683C491.699 23.6544 492.392 23.113 492.731 22.2353C489.654 22.1204 486.734 22.0483 483.809 21.8902C480.866 21.7255 477.974 21.2196 474.934 20.5229L474.947 20.5193ZM320.995 121.847C318.738 121.498 316.592 121.159 314.442 120.827C314.071 120.769 313.695 120.702 313.323 120.703C312.139 120.713 310.96 120.717 309.784 120.789C308.971 120.84 308.249 121.127 307.604 121.544C304.915 123.255 302.791 125.323 301.309 127.821C301.217 127.987 301.204 128.183 301.113 128.518C301.823 128.251 302.381 128.069 302.918 127.846C303.972 127.4 305.102 127.143 306.293 127.118C307.475 127.091 308.658 127.139 309.842 127.204C310.781 127.251 311.711 127.354 312.644 127.432C314.484 127.596 315.907 127.039 317.025 125.922C318.132 124.808 319.282 123.711 320.397 122.6C320.61 122.388 320.765 122.128 320.974 121.847L320.995 121.847ZM513.204 88.3646C512.424 88.0677 511.769 88.2543 511.132 88.3891C509.2 88.8109 507.471 89.5365 505.923 90.5489C504.974 91.169 504.438 91.9046 504.297 92.9245C503.954 95.4533 503.509 97.9766 503.076 100.496C502.674 102.826 502.028 105.097 500.955 107.281C500.825 107.533 500.787 107.812 500.688 108.144C500.926 108.058 501.062 108.043 501.139 107.98C504.193 105.251 506.764 102.262 508.385 98.7857C508.733 98.0455 509.08 97.3053 509.44 96.5615C510.64 94.0155 511.85 91.473 513.046 88.9168C513.129 88.7473 513.148 88.5613 513.199 88.3543L513.204 88.3646ZM539.916 -16.1572C539.102 -16.7358 538.401 -16.7344 537.743 -16.7919C536.093 -16.9341 534.514 -16.6712 532.948 -16.3534C529.753 -15.6999 526.736 -14.7183 523.804 -13.545C520.7 -12.3113 517.502 -11.2897 513.938 -11.1203C513.832 -11.119 513.734 -11.0387 513.588 -10.9854C513.689 -10.8628 513.763 -10.7088 513.904 -10.6383C515.981 -9.56208 518.085 -8.51718 520.15 -7.42021C520.738 -7.10382 521.286 -7.02088 521.917 -7.18313C522.329 -7.29464 522.742 -7.38897 523.145 -7.521C525.051 -8.14551 526.711 -9.07324 528.221 -10.1677C529.497 -11.0909 530.768 -12.0244 532 -12.9815C534.133 -14.6269 536.606 -15.7569 539.921 -16.1469L539.916 -16.1572ZM424.102 30.3702C423.555 28.9285 423.078 27.5135 422.475 26.1344C422.141 25.3781 421.648 24.6616 421.143 23.9658C420.614 23.2359 419.81 22.7536 418.76 22.563C417.661 22.3627 416.561 22.1281 415.456 21.9589C413.173 21.6178 410.907 21.2077 408.745 20.4593C408.534 20.3793 408.286 20.3684 407.966 20.3137C408.603 22.0915 409.199 23.7699 409.82 25.4412C409.984 25.8727 410.245 26.2824 410.497 26.6888C411.162 27.7644 412.133 28.3859 413.709 28.5083C417.142 28.7842 420.519 29.3324 423.769 30.3776C423.822 30.3976 423.889 30.3727 424.085 30.3635L424.102 30.3702ZM523.808 77.4966C523.267 77.4583 523.141 77.4185 523.031 77.4439C519.459 78.0881 515.994 79.0165 512.649 80.15C510.443 80.895 508.891 82.334 507.458 83.8266C507.277 84.0179 507.164 84.2601 507.063 84.4986C506.415 86.1058 505.771 87.706 505.15 89.3232C505.064 89.534 505.076 89.7816 505.022 90.164C506.536 89.4822 507.818 88.8548 509.169 88.3125C510.616 87.7313 512.198 87.52 513.854 87.6139C516.434 83.8065 519.392 80.311 523.826 77.5033L523.808 77.4966ZM555.662 -5.56986C556.54 -5.81415 556.794 -6.40534 557.121 -6.9183C558.375 -8.89038 558.857 -11.0391 559.147 -13.244C559.236 -13.9399 559.008 -14.5048 558.469 -15.0625C556.473 -17.1235 553.983 -18.6591 551.047 -19.7355C550.802 -19.8289 550.519 -19.8359 550.035 -19.9196C550.987 -18.3657 551.454 -16.9128 551.383 -15.3709C551.316 -13.7775 550.379 -12.4145 549.723 -10.8692C551.672 -9.08634 553.61 -7.2827 555.658 -5.56293L555.662 -5.56986ZM479.815 68.4472C479.274 68.3504 479.104 68.294 478.924 68.2926C476.275 68.3068 473.736 68.7324 471.323 69.5246C470.133 69.9101 468.978 70.3847 468.02 71.1184C467.465 71.5446 467.066 72.0137 466.951 72.6239C466.793 73.4617 466.563 74.2968 466.56 75.143C466.57 77.4958 466.674 79.8508 466.757 82.2061C466.76 82.3334 466.91 82.4657 467 82.6091C467.721 82.4561 468.21 82.072 468.625 81.6509C469.34 80.9166 470.106 80.1852 470.619 79.357C471.389 78.1233 471.974 76.8196 472.616 75.5289C473.049 74.6535 473.356 73.7384 473.841 72.883C474.901 71.0302 476.451 69.5568 478.942 68.8531C479.169 68.7885 479.357 68.659 479.806 68.4439L479.815 68.4472ZM376.758 56.2608C376.978 56.2857 377.104 56.3255 377.219 56.3104C380.735 55.8629 383.876 54.811 386.4 52.7861C387.222 52.1262 388.004 51.4256 388.773 50.7285C390.472 49.1777 392.152 47.6031 393.855 46.0454C394.198 45.7317 394.582 45.4417 395.009 45.0926C394.757 45.0887 394.623 45.0628 394.513 45.0882C394.164 45.1817 393.806 45.272 393.472 45.3963C390.578 46.4246 387.538 47.1038 384.38 47.4026C383.003 47.5324 382.069 48.0491 381.441 48.9508C380.904 49.7277 380.424 50.5349 380.027 51.3651C379.257 53.0013 378.393 54.5766 376.878 55.8535C376.805 55.9094 376.817 56.04 376.762 56.2539L376.758 56.2608ZM487.919 71.7947C488.721 71.2864 488.866 70.7962 489.104 70.3669C491.063 66.7422 492.016 62.9024 492.26 58.9266C492.43 56.2312 492.621 53.5355 492.791 50.8402C492.806 50.6783 492.706 50.5144 492.618 50.1955C490.706 51.9002 489.255 53.6545 487.858 55.4459C487.573 55.807 487.461 56.2762 487.351 56.704C486.986 58.1255 486.935 59.5743 487.154 61.0336C487.369 62.4827 487.617 63.9279 487.89 65.366C488.238 67.1678 488.324 68.9623 488.03 70.7545C487.989 70.9992 487.97 71.2437 487.91 71.7913L487.919 71.7947ZM504.194 22.055C504.2 21.7385 504.253 21.4902 504.213 21.2568C503.897 19.3411 503.155 17.5233 502.013 15.7963C500.814 13.9805 499.256 12.3719 497.55 10.8579C495.173 8.73612 492.265 7.20883 489.055 6.05317C488.207 5.74674 487.406 5.79402 486.534 6.27559C487.136 6.54709 487.62 6.76496 488.104 6.98283C490.907 8.26026 493.301 9.91057 494.975 12.1507C496.832 14.6364 497.838 17.3351 498.19 20.1791C498.236 20.5742 498.282 20.9692 498.327 21.4055C500.289 21.6162 502.196 21.831 504.198 22.0482L504.194 22.055ZM399.374 90.1026C399.557 89.8115 399.761 89.5202 399.927 89.2224C401.702 86.023 402.775 82.6565 402.896 79.1121C402.997 76.0632 402.887 72.9927 402.854 69.9351C402.854 69.8594 402.738 69.7817 402.594 69.6011C402.385 69.8822 402.212 70.1181 402.043 70.3644C401.172 71.6096 400.38 72.902 399.425 74.1069C397.452 76.6103 396.804 79.3079 397.681 82.2764C397.855 82.8626 398.024 83.4557 398.206 84.0452C398.79 86.0127 399.328 87.9877 399.371 90.1096L399.374 90.1026ZM524.031 -19.9768C524.01 -20.9328 523.631 -21.7401 523.382 -22.573C522.685 -24.9107 520.851 -26.4817 518.263 -27.6103C517.305 -28.0255 516.485 -28.0192 515.63 -27.6067C514.684 -27.1449 513.683 -26.7375 512.828 -26.1908C511.2 -25.1499 509.654 -24.0274 508.077 -22.9252C508.02 -22.8798 508.063 -22.7462 508.052 -22.574C508.397 -22.5265 508.748 -22.4516 509.108 -22.4317C510.111 -22.3851 511.104 -22.3763 512.107 -22.3296C515.396 -22.1759 518.591 -21.6633 521.444 -20.1904C522.293 -19.7498 523.046 -19.6727 524.031 -19.9768ZM453.834 13.7517C454.027 14.0349 454.055 14.1378 454.14 14.1953C456.73 15.9121 459.151 17.7822 461.47 19.7396C461.845 20.0585 462.365 20.3069 462.872 20.4832C465.158 21.2955 467.548 21.6353 470.014 21.5511C471.081 21.5213 472.113 21.344 473.07 20.9956C473.363 20.8889 473.587 20.6558 474.001 20.3688C473.011 19.9161 472.09 19.7413 471.262 19.4174C470.407 19.0836 469.545 18.7635 468.719 18.3983C467.892 18.0332 467.093 17.6195 466.297 17.199C465.514 16.7748 464.746 16.3229 463.982 15.8641C463.227 15.4087 462.487 14.9256 461.744 14.4493C460.996 13.98 460.261 13.5071 459.429 12.9804C457.752 13.6503 455.935 13.8473 453.838 13.7448L453.834 13.7517ZM495.619 -17.9897C495.893 -17.8519 496 -17.7775 496.113 -17.7513C496.42 -17.693 496.724 -17.6278 497.041 -17.6075C502.298 -17.2156 507.535 -17.0745 512.667 -18.0812C515.133 -18.5678 517.621 -18.9791 520.093 -19.4383C520.305 -19.4752 520.49 -19.5978 520.703 -19.676C520.56 -19.8394 520.511 -19.942 520.418 -19.9856C520.088 -20.1365 519.754 -20.2805 519.409 -20.4037C517.183 -21.2098 514.851 -21.5778 512.457 -21.7181C510.587 -21.8266 508.714 -21.8939 506.823 -21.9851C501.612 -19.3814 502.221 -19.4093 495.624 -17.9794L495.619 -17.9897ZM512.598 23.6962C511.55 22.5081 510.658 21.5142 509.788 20.5201C509.245 19.8936 508.689 19.2707 508.191 18.6196C507.166 17.273 506.213 15.8945 505.159 14.562C502.808 11.6109 499.959 9.04069 496.181 7.20722C494.761 6.5154 493.262 5.98621 491.622 5.80609C491.333 5.77167 491.04 5.80264 490.394 5.79996C498.651 9.59965 503.913 14.8003 505.189 22.174C507.341 22.8262 511.041 23.6149 512.589 23.6929L512.598 23.6962ZM486.286 58.354C486.152 58.328 486.027 58.3054 485.893 58.2795C485.707 58.519 485.49 58.7383 485.347 58.9945C484.512 60.5386 483.72 62.0993 482.875 63.64C482.452 64.4018 482.427 65.1554 482.649 65.9783C483.702 69.9113 483.61 73.7857 482.141 77.58C482.055 77.7908 482.074 78.0245 481.989 78.5793C482.801 77.8817 483.318 77.4078 483.872 76.9644C485.903 75.3134 486.812 73.2353 487.243 70.9668C487.518 69.4775 487.57 67.9703 487.326 66.4596C486.893 63.7611 486.17 61.0865 486.295 58.3573L486.286 58.354ZM481.842 66.4763C481.303 66.8748 481.262 67.3879 481.085 67.8406C479.955 70.8328 478.842 73.8317 477.712 76.824C476.607 79.7506 474.853 82.3959 472.535 84.7933C471.744 85.6076 470.935 86.4152 470.161 87.2362C469.203 88.2554 468.258 89.2882 467.336 90.3379C466.993 90.7272 466.734 91.174 466.44 91.5903C466.938 91.4193 467.285 91.1572 467.587 90.8612C469.852 88.5951 472.31 86.4609 474.867 84.4149C476.431 83.165 478.003 81.9184 479.545 80.6515C479.919 80.3409 480.298 79.9821 480.487 79.5843C482.462 75.5295 483.158 71.3316 482.093 66.9412C482.06 66.8109 481.958 66.6882 481.838 66.4832L481.842 66.4763ZM564.24 55.8602C564.326 55.8764 564.421 55.8959 564.508 55.9121C564.601 55.6289 564.734 55.3522 564.78 55.0592C564.996 53.5225 565.31 51.9812 565.351 50.4363C565.408 48.1344 565.333 45.8237 565.202 43.5171C565.001 39.942 564.997 36.3922 565.727 32.8784C565.766 32.675 565.942 32.4149 565.565 32.2543C564.938 32.8293 562.1 36.337 561.896 36.8382C561.803 37.0629 561.76 37.3317 561.813 37.5615C562.322 39.6263 562.133 41.6684 561.91 43.7143C561.714 45.519 561.759 47.3313 562.242 49.1177C562.857 51.3738 563.565 53.6151 564.236 55.8672L564.24 55.8602ZM565.942 3.05264C565.965 2.93542 566.014 2.8282 565.987 2.74252C565.009 -0.389918 564.048 -3.53287 563.028 -6.6648C562.385 -8.62133 561.644 -10.5561 560.483 -12.3827C560.388 -12.5363 560.239 -12.6687 559.963 -12.975C559.691 -11.8539 559.523 -10.9197 559.228 -10.0253C558.934 -9.11372 558.589 -8.20496 558.134 -7.3465C557.673 -6.49831 557.038 -5.71685 556.501 -4.93998C556.938 -4.44637 564.78 2.45064 565.428 2.89016C565.557 2.9815 565.763 2.99283 565.946 3.04571L565.942 3.05264ZM375.837 10.3983C376.797 11.1161 377.78 11.4657 378.772 11.8014C380.112 12.2534 381.487 12.643 382.832 13.0881C384.351 13.5998 385.883 14.0908 387.343 14.6893C390.265 15.8862 392.195 17.7621 393.08 20.3143C393.362 21.1262 393.392 21.1293 394.647 21.5066C394.667 21.4135 394.758 21.3058 394.719 21.2237C394.152 19.8751 393.615 18.5296 392.985 17.199C391.684 14.4384 389.73 12.033 386.772 10.1761C386.104 9.75402 385.407 9.48018 384.553 9.4318C381.773 9.26173 379.069 9.50697 376.416 10.0818C376.26 10.1146 376.13 10.2331 375.837 10.3983ZM330.016 113.354C329.562 113.466 329.346 113.51 329.145 113.567C326.266 114.434 323.394 115.345 320.487 116.167C317.391 117.043 314.484 118.209 311.588 119.413C311.367 119.505 310.973 119.564 311.166 120.04C313.195 119.958 315.214 120.316 317.225 120.687C318.081 120.846 318.956 120.952 319.823 121.014C320.373 121.056 320.954 121.042 321.491 120.953C321.889 120.887 322.336 120.73 322.595 120.493C324.906 118.395 327.197 116.273 329.471 114.145C329.662 113.974 329.762 113.735 330.016 113.354ZM480.108 67.5941C480.914 65.7787 481.678 64.0566 482.426 62.3279C482.478 62.2137 482.383 62.0601 482.35 61.8713C480.312 61.6064 478.355 61.5573 476.425 62.0721C475.828 62.2305 475.325 62.4669 474.972 62.9113C473.571 64.7097 471.836 66.3057 470.128 67.9116C469.579 68.4238 468.933 68.8992 468.692 69.6967C470.077 69.5531 471.063 68.7881 472.32 68.5703C473.588 68.3489 474.83 68.0418 476.111 67.8753C477.388 67.7157 478.698 67.6865 480.111 67.5872L480.108 67.5941ZM482.978 61.2378C483.259 60.7495 483.509 60.3578 483.727 59.9459C484.816 57.9448 486.099 56.0343 487.642 54.248C488.655 53.0733 489.707 51.9223 490.729 50.751C490.912 50.5356 491.019 50.266 491.264 49.8641C484.352 52.1473 479.893 56.1868 476.372 61.2884C477.602 61.2119 478.63 61.1 479.664 61.0913C480.719 61.0822 481.772 61.1729 482.982 61.2309L482.978 61.2378ZM363.711 116.013C363.914 115.839 364.126 115.668 364.32 115.49C366.355 113.64 368.386 111.796 370.695 110.159C372.738 108.714 373.973 106.852 374.978 104.869C375.842 103.16 376.332 101.358 376.288 99.4705C376.279 99.2573 376.372 98.9742 375.984 98.8515C372.883 101.437 364.58 112.804 363.711 116.013ZM393.465 96.9455C395.164 95.6045 396.416 94.4202 397.408 93.0532C397.499 92.9283 397.549 92.7798 397.596 92.6382C398.274 90.556 398.669 88.4495 398.045 86.2658C397.695 85.0419 397.362 83.8075 397.003 82.5803C396.608 81.2469 396.418 79.9076 396.62 78.5499C396.647 78.3673 396.656 78.178 396.674 77.9748C396.156 77.9706 396.065 78.2297 395.929 78.4377C394.897 79.9909 394.421 81.6889 394.416 83.4571C394.4 85.6071 394.475 87.7665 394.545 89.9155C394.621 92.0335 394.491 94.1231 393.589 96.1116C393.528 96.2396 393.547 96.3976 393.478 96.9419L393.465 96.9455ZM314.511 128.101C313.602 128.057 312.939 128.048 312.264 128.001C311.517 127.951 310.768 127.867 310.017 127.807C309.325 127.753 308.644 127.662 307.96 127.67C307.088 127.673 306.209 127.69 305.353 127.817C303.676 128.068 302.198 128.646 300.948 129.579C300.295 130.068 299.854 130.614 299.625 131.315C298.994 133.197 298.617 135.117 298.496 137.076C298.481 137.255 298.402 137.493 298.847 137.571C299.094 137.203 299.36 136.818 299.606 136.433C300.324 135.331 301.193 134.32 302.199 133.386C303.629 132.052 305.34 131.034 307.429 130.462C308.656 130.124 309.908 129.838 311.13 129.49C312.059 129.231 312.967 128.914 313.871 128.604C314.055 128.54 314.181 128.37 314.494 128.112L314.511 128.101ZM374.433 107.304C374.916 107.161 375.093 107.128 375.238 107.057C377.095 106.179 378.264 104.779 379.439 103.389C381.039 101.499 381.836 99.3946 381.854 97.0691C381.87 95.8168 381.98 94.5668 382.026 93.3176C382.031 93.1937 381.937 93.0572 381.866 92.8792C381.663 92.9779 381.478 93.0248 381.365 93.1328C380.083 94.3897 378.834 95.6669 377.526 96.9138C377.006 97.4119 376.884 97.9362 376.958 98.5682C377.253 101.248 376.489 103.733 375.128 106.109C374.955 106.421 374.765 106.726 374.437 107.297L374.433 107.304ZM535.038 15.0549C532.05 14.0342 529.466 13.1086 526.841 12.2762C525.794 11.9446 524.661 11.731 523.552 11.6443C521.258 11.4582 518.948 11.3754 516.646 11.2616C516.367 11.2477 516.017 11.1899 515.841 11.5257C515.95 11.6172 516.044 11.7537 516.18 11.814C519.448 13.1513 522.708 14.4852 525.995 15.7879C526.485 15.9747 527.073 16.0813 527.617 16.0955C529.751 16.17 531.836 15.9493 533.872 15.4918C534.151 15.43 534.407 15.2929 535.038 15.0549ZM357.432 73.5715C356.873 73.5849 356.549 73.52 356.31 73.6054C355.248 73.9894 354.145 74.3327 353.181 74.8463C349.52 76.7987 346.761 79.3802 345.046 82.6615C344.613 83.4784 344.225 84.3119 343.845 85.1489C343.068 86.8745 342.251 88.5766 341.013 90.1185C340.921 90.2262 340.905 90.3709 340.783 90.6854C341.395 90.3479 341.843 90.1328 342.237 89.8632C342.979 89.3488 343.675 88.8005 344.421 88.2792C345.22 87.7194 345.797 87.0418 346.179 86.2392C346.777 84.9904 347.366 83.7382 348.047 82.5296C349.965 79.074 352.872 76.2637 356.722 74.1062C356.908 74.0008 357.053 73.8546 357.432 73.5715ZM345.509 18.7441C345.519 18.8403 345.538 18.9399 345.548 19.036C346.349 19.1229 347.147 19.2339 347.95 19.2966C352.606 19.644 357.133 19.1708 361.59 18.2513C364.456 17.6567 367.357 17.1511 370.234 16.5943C370.471 16.5502 370.685 16.4307 370.911 16.3489C370.065 16.0769 369.263 15.9728 368.467 15.9547C367.598 15.934 366.724 15.9788 365.858 16.0096C364.177 16.057 362.498 16.1388 360.836 15.7491C360.255 15.6115 359.741 15.7346 359.217 15.9127C355.149 17.2405 350.915 18.1023 346.533 18.5807C346.185 18.6158 345.843 18.6955 345.501 18.758L345.509 18.7441ZM432.575 3.32931C433.062 3.54025 433.554 3.74428 434.042 3.95522C436.391 4.95938 438.788 5.89763 441.075 6.9954C444.526 8.65387 448.23 9.22583 452.108 9.17653C452.395 9.17658 452.672 9.09761 452.948 9.05996C452.886 8.61695 452.501 8.48735 452.213 8.31877C449.758 6.93059 447.121 5.83349 444.294 5.05856C440.497 4.02335 436.584 3.59836 432.584 3.33264L432.575 3.32931ZM367.415 55.3359C369.04 55.8877 371.425 56.2929 373.216 56.43C374.367 56.5161 375.276 56.2164 376.063 55.6017C377.05 54.8367 377.82 53.947 378.373 52.9498C379.2 51.4609 379.982 49.9553 380.778 48.4633C380.794 48.4356 380.743 48.3743 380.707 48.2853C380.558 48.2871 380.345 48.2311 380.229 48.2875C379.327 48.7075 378.376 49.0834 377.561 49.5953C376.41 50.3312 375.31 51.1285 374.29 51.973C372.582 53.3863 370.603 54.4107 368.245 54.989C367.984 55.0574 367.752 55.1874 367.415 55.3359ZM549.107 -11.5567C549.365 -12.0207 549.628 -12.3988 549.821 -12.8035C550.077 -13.3603 550.345 -13.9208 550.48 -14.5071C550.873 -16.2283 550.534 -17.8926 549.494 -19.4798C549.036 -20.183 548.422 -20.702 547.397 -20.8997C546.241 -21.1303 545.101 -21.447 543.971 -21.7432C543.08 -21.9735 542.2 -22.2417 540.916 -22.6049C541.765 -21.9545 542.307 -21.555 542.838 -21.1347C544.467 -19.8262 545.795 -18.3388 546.846 -16.6966C547.6 -15.5119 548.055 -14.248 548.082 -12.9206C548.094 -12.3875 548.229 -11.9247 549.116 -11.5534L549.107 -11.5567ZM367.587 47.2468C365.802 46.181 364.386 45.3481 362.706 44.8588C361.874 44.6176 361.17 44.6431 360.411 45.0167C358.047 46.1798 355.834 47.5097 353.763 48.9857C352.674 49.7623 351.504 50.4744 350.521 51.5764C353.36 50.6107 355.981 49.6544 358.669 48.8245C361.379 47.9944 364.257 47.5889 367.574 47.2504L367.587 47.2468ZM529.144 16.8618C529.475 17.0298 529.662 17.1514 529.868 17.2212C532.292 18.0525 534.802 18.4047 537.401 18.2708C540.862 18.0957 544.094 17.28 547.264 16.2897C547.394 16.2469 547.484 16.1049 547.739 15.8748C546.999 15.8698 546.46 15.8659 545.917 15.8688C543.486 15.8907 541.036 15.9472 538.624 15.5904C537.222 15.3834 535.973 15.5117 534.648 15.8714C532.967 16.3212 531.17 16.5179 529.153 16.8651L529.144 16.8618ZM422.299 24.0038C422.731 24.9652 423.094 25.7074 423.402 26.4708C423.722 27.2892 423.992 28.1218 424.279 28.944C424.326 29.0879 424.391 29.2385 424.476 29.3717C425.055 30.3555 425.807 31.179 427.128 31.6484C428.22 32.0311 429.241 32.5625 430.304 33.0177C430.62 33.155 430.963 33.2439 431.374 33.3835C430.044 30.0832 425.766 25.0979 422.299 24.0038ZM546.898 62.1985C546.123 63.0779 545.357 63.885 545.479 65.0978C545.563 65.8846 545.417 66.7015 545.243 67.4741C544.829 69.4053 543.992 71.2005 542.749 72.8663C542.591 73.0745 542.415 73.2761 542.748 73.537C543.576 73.2486 544.392 72.8881 545.267 72.6679C546.395 72.376 546.91 71.7335 547.242 70.8868C548.339 68.1083 548.224 65.2959 547.252 62.4592C547.221 62.3804 547.081 62.327 546.893 62.1882L546.898 62.1985ZM307.031 139.245C306.436 139.228 306.328 139.556 306.164 139.796C304.931 141.616 303.657 143.413 302.494 145.26C301.775 146.404 301.209 147.614 300.594 148.798C300.475 149.013 300.319 149.255 300.655 149.492C302 148.654 303.323 147.782 304.704 146.975C305.426 146.553 305.902 146.021 306.272 145.374C307.394 143.41 307.191 141.328 307.035 139.238L307.031 139.245ZM446.532 9.4179C446.511 9.49383 446.499 9.57308 446.478 9.649C448.172 10.63 449.862 11.6178 451.568 12.578C451.922 12.7802 452.354 12.9196 452.773 12.9869C454.398 13.2703 456.004 13.2445 457.586 12.899C457.923 12.8262 458.306 12.7288 458.402 12.2702C457.079 11.3467 455.744 10.3684 454.344 9.65918C453.278 9.70618 452.411 9.77835 451.548 9.78511C450.74 9.78778 449.925 9.74582 449.118 9.69C448.25 9.62802 447.397 9.52115 446.537 9.42813L446.532 9.4179ZM533.054 13.4686C535.843 14.5983 539.303 15.1696 541.423 14.8281C541.297 14.4443 541.162 14.0572 541.044 13.6768C540.836 13.0188 540.344 12.6634 539.504 12.4945C537.907 12.1797 536.417 11.5954 535.014 10.893C534.316 10.5435 533.631 10.1733 532.917 9.83429C532.666 9.71342 532.359 9.65515 532.067 9.56916C532.412 10.9169 532.731 12.1962 533.05 13.4755L533.054 13.4686ZM430.706 1.61084C430.695 1.70729 430.679 1.7935 430.668 1.88995C431.205 1.99368 431.742 2.11457 432.283 2.21137C432.832 2.31151 433.393 2.39091 433.945 2.46694C434.436 2.5368 434.928 2.60667 435.424 2.66961C435.976 2.74564 436.535 2.80782 437.096 2.88718C437.648 2.96321 438.209 3.04256 438.757 3.12551C439.313 3.2118 439.862 3.29476 440.411 3.3949C440.903 3.48195 441.392 3.57592 441.874 3.68374C442.424 3.80107 442.955 3.95303 443.504 4.05317C444.023 4.15023 444.514 4.41273 445.086 4.33716C445.064 4.18607 445.096 4.07219 445.036 4.00754C443.8 2.69782 442.284 1.62531 440.622 0.681811C440.002 0.327967 439.394 0.256056 438.692 0.450105C436.763 0.982008 434.766 1.31176 432.719 1.46323C432.043 1.51595 431.37 1.56172 430.698 1.60751L430.706 1.61084ZM423.625 107.084C424.555 106.306 424.796 105.777 425.553 102.844C426.279 100.008 426.652 97.1551 425.813 94.1758C424.999 94.3609 424.557 94.7376 424.053 95.2251C424.38 97.1785 424.714 99.1765 424.487 101.171C424.255 103.138 423.924 105.092 423.633 107.087L423.625 107.084ZM528.132 11.7277C528.193 11.5413 528.236 11.4823 528.221 11.4515C528.161 11.3112 528.105 11.164 527.995 11.038C527.045 9.99663 525.832 9.19914 524.418 8.59326C523.689 8.28197 523.012 8.25902 522.284 8.51873C520.824 9.02789 519.34 9.50295 517.875 10.0018C517.691 10.0659 517.528 10.1883 517.078 10.4447C518.582 10.506 519.755 10.5334 520.919 10.616C522.16 10.7114 523.402 10.8068 524.632 10.9986C525.785 11.1776 526.918 11.4669 528.144 11.7242L528.132 11.7277ZM532.03 13.1539C532.118 11.5602 531.619 10.204 530.613 8.93969C530.483 8.77268 530.264 8.63077 530.049 8.54044C528.5 7.89143 526.906 7.6282 525.218 7.99213C525.239 8.10885 525.221 8.17788 525.249 8.20508C525.371 8.31027 525.498 8.42572 525.644 8.50655C527.225 9.38565 528.642 10.3871 529.38 11.8678C529.556 12.22 529.894 12.4327 530.326 12.5721C530.846 12.7448 531.365 12.9175 532.033 13.147L532.03 13.1539ZM550.324 14.8295C548.136 13.6101 544.773 12.9413 541.716 13.0015C541.703 13.1393 541.627 13.295 541.67 13.4286C541.869 13.9491 542.102 14.4658 542.361 15.0509C545.058 15.1807 547.681 15.0224 550.315 14.8261L550.324 14.8295Z" fill="#A38257" fill-opacity="0.1"/>
</g>
<defs>
<clipPath id="clip0_9_134">
<rect width="500" height="300" fill="white"/>
</clipPath>
</defs>
</svg>
