<svg width="500" height="300" viewBox="0 0 500 300" fill="none" xmlns="http://www.w3.org/2000/svg">
<g clip-path="url(#clip0_9_132)">
<rect width="500" height="300" fill="#CDD5B3"/>
<g clip-path="url(#clip1_9_132)">
<path d="M437.023 -74.5362C438.446 -71.6906 439.648 -68.7432 440.032 -65.5639C440.431 -62.2804 440.646 -58.9595 440.929 -55.6598C441.061 -54.1207 441.112 -52.5704 441.244 -51.0313C441.572 -47.1597 442.75 -43.5365 444.516 -40.0897C444.953 -39.2421 445.413 -38.3977 445.895 -37.5682C447.701 -34.5163 449.108 -31.279 450.373 -27.9628C451.308 -25.4857 452.357 -23.0363 453.503 -20.6592C455.627 -16.2594 458.954 -13.0421 463.352 -10.8707C468.483 -8.34152 473.845 -6.52882 479.516 -5.79757C483.457 -5.2853 487.432 -4.95471 491.384 -4.53826C491.9 -4.48035 492.413 -4.43401 492.931 -4.44715C494.083 -4.47801 494.827 -4.05079 495.378 -2.97142C496.674 -0.450098 498.546 1.63685 500.68 3.48669C501.014 3.77041 501.319 4.09369 501.634 4.40379C501.675 4.44524 501.675 4.52787 501.696 4.5957C500.755 4.86855 500.755 4.86855 499.927 4.68895C497.617 4.19701 495.332 3.54814 493.004 3.27098C489.345 2.83733 485.665 2.59531 481.989 2.37644C480.907 2.31498 479.805 2.622 478.705 2.77533C477.397 2.95771 476.086 3.19957 474.767 3.30093C470.282 3.63135 466.339 2.25804 462.927 -0.628973C460.666 -2.54369 458.801 -4.83224 457.01 -7.18995C453.191 -12.2383 448.389 -16.0406 442.595 -18.5836C441.313 -19.1481 440.032 -19.7011 438.732 -20.2277C434.621 -21.8726 430.306 -22.8637 426.086 -24.1867C425.888 -24.2535 425.648 -24.1964 425.293 -24.2059C425.42 -23.8815 425.471 -23.6054 425.64 -23.4048C427.084 -21.6003 428.11 -19.5723 428.839 -17.3851C428.959 -17.036 429.102 -16.6901 429.219 -16.3526C431.13 -10.9437 434.871 -7.30029 440.096 -5.11455C443.867 -3.54019 447.837 -2.73695 451.87 -2.24917C453.994 -1.99086 456.117 -1.74414 458.24 -1.49741C458.912 -1.41418 459.523 -1.2634 460.011 -0.729617C463.118 2.68358 467.065 4.50476 471.559 5.25852C471.607 5.26364 471.653 5.33981 471.815 5.48248C471.593 5.66684 471.412 5.89265 471.177 5.98442C465.372 8.26881 460.125 11.5136 455.012 15.0349C451.74 17.2963 448.35 19.3855 445.021 21.5724C443.886 22.3206 442.656 22.7164 441.306 22.8573C432.063 23.8395 423.741 21.7789 416.642 15.5479C414.585 13.7462 412.685 11.793 410.993 9.64554C409.16 7.32901 407.403 4.96645 405.516 2.69271C403.674 0.483569 401.801 -1.69758 399.782 -3.7404C398.339 -5.20286 396.717 -6.51057 395.072 -7.73242C391.254 -10.5745 386.949 -12.1688 382.184 -12.4955C379.396 -12.6849 376.594 -12.8959 373.822 -13.2291C370.042 -13.6813 366.53 -15.0086 363.299 -17.024C361.864 -17.9213 360.448 -18.8565 359.013 -19.7537C356.119 -21.5565 353.084 -23.0094 349.73 -23.7924C347.192 -24.3942 344.631 -24.568 342.046 -24.4081C338.887 -24.2153 335.726 -23.9516 332.564 -23.6994C329.097 -23.4283 325.641 -23.5952 322.183 -23.939C316.129 -24.5343 310.292 -26.033 304.571 -28.0551C303.876 -28.3004 303.176 -28.4977 302.474 -28.7066C302.425 -28.7233 302.339 -28.6641 302.16 -28.592C302.621 -28.1608 303.033 -27.7462 303.473 -27.3828C305.945 -25.3914 308.396 -23.3851 310.897 -21.4448C315.764 -17.6754 319.588 -13.0996 322.144 -7.46216C323.389 -4.70964 324.769 -2.0112 326.298 0.583621C329.925 6.79153 335.109 11.39 341.412 14.7941C343.377 15.8534 345.502 16.4538 347.669 16.9304C348.886 17.1972 350.115 17.4624 351.335 17.7524C354.718 18.5785 357.91 19.8914 360.937 21.6286C363.362 23.0249 365.843 24.319 368.354 25.5734C371.271 27.0309 374.377 27.9783 377.568 28.6071C381.668 29.4157 385.788 29.1717 389.903 28.645C397.576 27.6576 404.803 25.1631 411.815 21.9672C413.822 21.05 415.825 20.0982 417.931 19.1202C420.921 20.9333 423.909 22.8174 427.377 23.7379C430.77 24.6334 434.234 25.0235 438.078 25.1718C437.369 26.014 436.736 26.2085 436.173 26.4876C428.688 30.2686 420.818 32.8882 412.545 34.3133C408.547 35.0006 404.54 35.6301 400.589 36.4879C397.715 37.1129 394.871 37.9578 392.103 38.922C386.027 41.0435 379.952 40.9703 373.843 39.2146C370.426 38.2281 367.205 36.7895 364.22 34.8459C361.936 33.3591 359.622 31.9119 357.32 30.4631C356.505 29.9514 355.694 29.4628 354.879 28.9511C351.01 26.5054 346.743 25.5194 342.219 25.7373C337.143 25.9732 332.073 26.338 326.995 26.645C325.299 26.7517 323.614 26.8568 321.92 26.9751C321.651 26.989 321.381 27.0857 320.91 27.175C321.126 27.5459 321.221 27.804 321.398 27.9682C324.194 30.5045 327.209 32.7506 330.653 34.347C333.276 35.5622 335.732 37.0132 338.147 38.588C339.561 39.5116 341.054 40.3181 342.537 41.1378C346.079 43.0981 349.907 43.5555 353.884 43.3076C359.088 42.9714 364.078 41.7799 368.927 39.5816C373.852 41.4788 378.933 42.8823 384.643 42.3692C384.258 42.8241 384.131 43.1013 383.914 43.2378C381.169 44.954 378.442 46.7264 375.636 48.3449C372.106 50.3592 368.24 51.2404 364.19 51.2979C361.387 51.3348 358.585 51.3007 355.791 51.2302C350.556 51.0871 345.327 50.9903 340.108 51.553C333.376 52.2675 326.912 53.8887 320.889 57.0648C314.556 60.3902 309.739 65.1916 306.542 71.6197C304.34 76.0563 302.636 80.6714 300.997 85.3363C299.24 90.3364 297.546 95.363 295.679 100.331C293.147 107.056 289.587 113.251 285.422 119.094C284.189 120.824 282.996 122.595 281.819 124.305C282.123 124.876 282.508 124.68 282.829 124.612C289.533 123.276 295.863 120.942 301.791 117.508C304.465 115.955 307.197 114.477 309.81 112.826C314.841 109.647 320.294 107.884 326.213 107.341C329.149 107.074 332.083 106.712 334.963 106.121C342.444 104.606 348.987 101.263 354.251 95.6087C357.781 91.8128 359.748 87.3027 360.55 82.2234C361.139 78.4954 361.36 74.7479 361.425 70.9867C361.475 67.9592 361.668 64.947 362.232 61.9659C362.568 60.1491 363.052 58.3708 363.92 56.7277C364.396 55.8236 365.023 54.9928 365.601 54.1452C366.081 53.4411 366.76 53.0633 367.631 52.9654C371.829 52.5216 375.565 50.7972 379.122 48.6375C380.503 47.7959 381.911 46.9743 383.229 46.0235C389.468 41.5194 396.487 39.054 404.001 37.7702C407.92 37.1057 411.852 36.4511 415.757 35.6825C425.335 33.804 434.196 30.0788 442.647 25.278C447.326 22.6196 451.851 19.6996 456.257 16.6074C459.996 13.974 463.855 11.5244 467.992 9.5435C472.948 7.17694 478.101 5.46713 483.585 4.8558C487.059 4.46581 490.534 4.6774 493.932 5.35973C497.975 6.17643 501.968 7.22433 505.984 8.18638C506.253 8.25503 506.506 8.37322 507.004 8.56329C506.59 8.8098 506.385 9.02726 506.141 9.06116C501.099 9.70537 496.73 11.8838 492.653 14.8004C490.68 16.22 488.664 17.5866 486.662 18.9632C482.666 21.7032 478.346 23.7215 473.644 24.861C468.28 26.1635 462.898 27.4214 457.516 28.6793C454.569 29.3734 451.646 30.1586 448.86 31.3376C446.633 32.2853 444.42 33.3373 442.322 34.5384C435.702 38.3405 431.188 43.8783 429.028 51.2353C427.973 54.8395 427.09 58.4906 426.121 62.1182C425.532 64.3242 424.981 66.5485 424.318 68.7294C423.064 72.8569 421.103 76.6465 418.502 80.0769C417.385 81.5424 416.202 82.9581 415.083 84.412C413.554 86.395 412.039 88.388 410.551 90.4125C407.289 94.8555 405.623 99.9137 404.795 105.315C404.143 109.606 403.494 113.921 402.562 118.157C401.94 120.969 401.388 123.784 401.114 126.642C401.049 127.359 401.055 128.078 401.038 128.8C401.333 128.806 401.53 128.861 401.603 128.792C404.727 125.725 408.564 123.88 412.639 122.474C415.003 121.661 417.441 121.038 419.825 120.28C422.843 119.329 425.893 118.443 428.85 117.311C436.198 114.493 442.212 109.902 446.802 103.469C449.319 99.944 450.915 95.9929 452.172 91.8886C452.9 89.498 453.69 87.1224 454.79 84.857C456.293 81.7567 458.288 79.0597 461.012 76.9335C463.279 75.1662 465.546 73.3988 467.827 71.6529C473.52 67.2957 477.003 61.5595 478.436 54.5752C478.851 52.5587 479.19 50.5056 479.329 48.4567C479.724 42.573 479.977 36.6854 480.299 30.7882C480.375 29.3853 480.464 27.9924 480.624 26.6014C480.797 25.1378 481.447 24.1268 482.899 23.3698C485.493 22.0051 487.936 20.3193 490.402 18.7129C491.949 17.7067 493.452 16.6358 494.941 15.555C499.199 12.4953 504 11.0471 509.161 10.5752C512.341 10.285 515.478 10.355 518.624 11.0018C520.264 11.3394 521.954 11.4459 523.565 11.6579C523.786 12.1461 523.485 12.2707 523.22 12.4021C522.956 12.5334 522.687 12.6416 522.411 12.7745C518.859 14.3789 515.797 16.6229 513.275 19.6058C511.128 22.147 508.873 24.5854 506.297 26.679C504.412 28.2162 502.468 29.6789 500.538 31.1516C498.778 32.4943 496.974 33.7724 495.229 35.1366C491.771 37.837 488.87 41.0616 486.401 44.6743C485.645 45.7708 485.015 46.9206 484.566 48.1867C484.011 49.7036 483.345 51.1888 482.764 52.6973C482.616 53.072 482.629 53.5067 482.553 54.0601C483.089 53.9264 483.435 53.8664 483.772 53.7485C485.875 53.0069 488.059 52.6787 490.263 52.4894C495.113 52.0726 499.4 50.236 503.213 47.2855C506.982 44.3646 510.035 40.7886 512.275 36.5471C513.85 33.5429 515.275 30.477 516.434 27.283C517.092 25.4805 517.812 23.7046 518.533 21.9404C519.809 18.8244 521.911 16.4665 524.852 14.7939C528.23 12.8716 531.815 11.6755 535.688 11.2769C542.167 10.6094 548.482 9.18612 554.601 6.95235C555.365 6.68056 556.095 6.33099 556.812 5.97145C557.176 5.79088 557.32 5.38151 557.118 5.03212C556.995 4.82513 556.658 4.61246 556.422 4.61002C555.997 4.61025 555.554 4.73107 555.15 4.88176C548.788 7.06679 542.272 8.56545 535.586 9.35621C528.1 10.2468 520.722 9.80069 513.418 8.02282C512.343 7.75976 511.283 7.43561 510.193 7.23364C508.922 6.99802 507.819 6.45558 506.804 5.68866C505.447 4.67435 504.08 3.67323 502.754 2.61936C499.121 -0.248559 496.626 -3.92413 495.178 -8.30024C494.528 -10.2509 494.024 -12.2572 493.352 -14.2047C492.419 -16.9181 491.474 -19.63 490.407 -22.2894C488.734 -26.4216 485.97 -29.7411 482.383 -32.3676C480.833 -33.4966 479.233 -34.5597 477.655 -35.6375C475.701 -36.9579 473.737 -38.2651 471.793 -39.5986C468.143 -42.0865 465.169 -45.2233 462.852 -48.971C460.916 -52.1109 459.003 -55.254 457.045 -58.3791C454.801 -61.9481 452.314 -65.3179 449.314 -68.2977C447.151 -70.4385 444.781 -72.2908 442.112 -73.7474C440.693 -74.5289 439.246 -75.2593 437.808 -76.0144C437.349 -76.2572 436.89 -76.4174 436.166 -76.4463C436.531 -75.6947 436.813 -75.1088 437.105 -74.536L437.023 -74.5362Z" fill="#335650" fill-opacity="0.05"/>
<path d="M404.85 -75.3593C406.402 -74.8914 407.963 -74.4367 409.507 -73.944C412.409 -73.0154 415.077 -71.653 417.615 -69.9538C421.13 -67.5887 424.205 -64.7491 427.088 -61.6705C429.6 -58.9765 432.081 -56.243 434.571 -53.5343C437.561 -50.2818 441.063 -47.7613 445.118 -46.0141C447.289 -45.0781 449.458 -44.1652 451.628 -43.2407C453.386 -42.4829 455.153 -41.7382 456.894 -40.9309C460.91 -39.0367 464.264 -36.3069 466.686 -32.5622C468.25 -30.149 469.681 -27.6702 471.114 -25.1799C472.142 -23.3883 473.017 -21.5162 474.022 -19.7214C476.283 -15.6946 479.422 -12.5572 483.53 -10.4281C485.032 -9.64636 486.571 -8.92892 488.091 -8.18511C489.231 -7.62435 490.42 -7.30638 491.705 -7.30869C492.813 -7.32152 493.916 -7.19223 495.02 -7.14557C502.529 -6.77673 509.865 -7.72893 517.036 -10.0269C523.452 -12.0779 529.566 -14.7712 535.4 -18.1214C535.782 -18.3399 536.191 -18.5385 536.603 -18.6314C536.833 -18.6752 537.206 -18.5385 537.374 -18.3495C537.64 -18.0445 537.57 -17.6217 537.251 -17.3649C536.612 -16.8746 535.959 -16.3942 535.262 -15.9784C529.676 -12.6273 523.738 -10.0293 517.509 -8.15786C513.784 -7.03659 510.491 -5.18506 507.539 -2.66141C504.967 -0.462061 503.351 2.25281 502.689 5.54268C502.314 7.4238 501.938 9.29334 501.636 11.1879C501.1 14.5427 500.285 17.8304 499.297 21.0712C497.907 25.6544 495.588 29.7534 492.429 33.3325C489.25 36.9378 485.379 39.5543 480.693 40.8921C478.559 41.4965 476.479 42.2349 474.558 43.3523C474.252 43.5248 473.916 43.6542 473.418 43.8889C473.387 43.3269 473.292 42.9035 473.366 42.5038C473.651 40.9066 474.022 39.3329 474.281 37.7274C474.497 36.3993 474.89 35.1529 475.428 33.9334C477.168 29.915 479.412 26.204 482.29 22.9001C483.745 21.2341 485.268 19.6295 486.749 17.9835C488.371 16.1644 489.997 14.3684 491.565 12.4979C493.699 9.9467 495.465 7.12822 497.079 4.23651C498.988 0.831818 501.572 -1.95914 504.753 -4.19612C504.988 -4.37051 505.238 -4.52337 505.472 -4.70934C505.695 -4.88212 505.977 -5.06297 505.668 -5.50361C504.043 -5.39501 502.373 -5.18574 500.694 -5.21118C497.489 -5.2599 494.389 -4.73316 491.327 -3.846C486.348 -2.4083 481.906 -0.0780334 478.308 3.73914C477.045 5.08348 475.779 6.41625 474.448 7.69922C472.326 9.74141 470.248 11.8482 467.956 13.6899C466.682 14.7053 466.224 15.8193 466.334 17.2905C466.445 18.6791 466.616 20.0712 466.81 21.4601C467.602 27.3082 468.461 33.135 469.195 38.9912C469.456 41.0314 469.497 43.1023 469.479 45.1697C469.387 52.2973 467.056 58.5927 462.291 63.9413C460.385 66.095 458.491 68.247 456.6 70.4222C454.32 73.0291 452.866 76.0519 451.985 79.384C451.346 81.8212 451.018 84.2974 450.752 86.7887C450.297 91.0527 449.476 95.2378 447.665 99.1716C444.382 106.343 439.342 112.001 432.653 116.155C429.972 117.827 427.141 119.272 424.355 120.781C422.15 121.974 419.88 123.046 417.706 124.293C413.982 126.44 410.561 128.982 408.067 132.586C408.007 132.666 407.815 132.645 407.516 132.699C407.404 131.983 407.26 131.283 407.194 130.561C406.913 127.697 406.927 124.84 407.008 121.95C407.123 117.615 406.94 113.252 406.771 108.91C406.564 103.452 407.243 98.1656 409.605 93.1874C410.681 90.9253 411.796 88.6814 412.923 86.4359C413.754 84.786 414.651 83.1744 415.459 81.5277C417.361 77.652 418.573 73.5657 419.014 69.2802C419.251 67.0053 419.369 64.7234 419.524 62.4482C419.793 58.7058 419.964 54.9417 420.329 51.2095C421.058 43.58 424.452 37.2898 430.223 32.3082C432.056 30.731 434.038 29.2866 436.042 27.9216C438.543 26.2278 441.273 24.9032 444.039 23.668C449.08 21.4075 454.123 19.1585 459.16 16.8633C463.564 14.8568 467.431 12.0404 470.822 8.60597C472.529 6.88135 474.245 5.14353 475.923 3.38742C479.37 -0.243514 483.248 -3.22681 488.079 -4.79721C488.304 -4.87579 488.469 -5.1347 488.827 -5.44421C488.295 -5.53523 488.024 -5.61546 487.752 -5.62463C483.632 -5.80532 479.511 -6.0802 475.388 -6.11877C471.916 -6.14194 468.475 -5.68574 465.138 -4.65407C459.868 -3.02234 455.129 -0.367489 450.712 2.90322C447.021 5.62438 443.707 8.76491 440.519 12.053C436.776 15.9258 432.882 19.6429 428.791 23.1394C421.401 29.456 413.403 34.7954 404.354 38.4406C400.668 39.9339 396.932 41.3162 393.209 42.7086C386.079 45.3901 379.641 49.1433 374.38 54.7381C373.27 55.9193 372.039 56.9878 370.845 58.0746C367.767 60.8754 364.419 63.2656 360.379 64.5015C359.542 64.7598 358.95 65.2553 358.61 66.0342C358.199 66.9765 357.74 67.9136 357.45 68.8861C356.907 70.6609 356.774 72.4965 356.784 74.3475C356.794 77.3785 357.177 80.381 357.698 83.3526C358.345 87.0616 358.852 90.7785 358.965 94.5502C359.139 99.6939 358.062 104.493 355.312 108.888C351.212 115.442 345.434 119.953 338.37 122.861C335.648 123.984 332.837 124.895 330 125.703C324.295 127.349 319.265 130.115 314.936 134.187C312.683 136.307 310.278 138.27 307.943 140.307C302.758 144.841 296.979 148.325 290.651 150.919C290.349 151.043 290.008 151.303 289.596 150.806C290.429 148.908 291.265 146.951 292.151 145.01C295.134 138.483 297.461 131.728 298.679 124.644C299.579 119.421 300.286 114.166 301.065 108.925C301.789 104.045 302.597 99.1777 303.915 94.4158C305.842 87.5043 309.659 81.8749 315.243 77.4148C320.562 73.1688 326.599 70.3447 333.072 68.3683C338.097 66.83 343.246 65.9349 348.413 65.0845C351.181 64.6277 353.931 64.1262 356.673 63.5669C360.642 62.7538 364.265 61.1513 367.353 58.5025C369.808 56.3903 372.147 54.1291 374.518 51.9224C374.705 51.7429 374.784 51.4606 375.077 50.936C369.561 52.5074 364.301 52.0965 359.109 51.1686C354.761 54.2528 350.088 56.3674 345.043 57.6727C341.183 58.6712 337.34 58.9476 333.495 57.6903C331.888 57.1709 330.271 56.6532 328.694 56.0117C326.029 54.9203 323.333 53.9511 320.536 53.2674C316.857 52.3528 313.48 50.7236 310.244 48.756C310.037 48.6314 309.896 48.3797 309.605 48.0664C310.04 47.8877 310.292 47.7464 310.553 47.6746C312.191 47.2338 313.831 46.8162 315.472 46.3986C320.393 45.1343 325.306 43.812 330.25 42.6271C334.656 41.5643 339.02 41.7226 343.288 43.3929C344.186 43.7396 345.082 44.0748 345.969 44.4232C348.502 45.415 351.057 46.3919 353.584 47.4201C356.886 48.7648 360.315 49.5728 363.863 49.8921C370.196 50.4603 376.171 49.3911 381.736 46.1491C384.28 44.6735 386.91 43.3155 389.615 42.1479C393.333 40.5556 397.152 39.1735 400.942 37.7483C408.788 34.7899 416.019 30.7138 422.655 25.588C423.156 25.1996 423.738 24.8942 424.277 23.9341C420.489 24.5214 416.999 24.7956 413.496 24.5526C409.922 24.3076 406.628 23.0207 403.355 21.8017C401.468 23.1621 399.68 24.4733 397.888 25.7498C391.608 30.2125 384.989 34.0262 377.635 36.4558C373.709 37.7466 369.71 38.7645 365.519 38.7472C362.261 38.7412 359.038 38.3884 355.896 37.5168C353.206 36.7592 350.51 35.9553 347.871 35.0491C344.563 33.9175 341.198 33.2303 337.717 33.0551C336.469 32.9931 335.215 32.9674 333.961 32.9417C331.746 32.8847 329.549 32.6956 327.414 32.0257C320.591 29.8859 314.634 26.3392 309.892 20.9357C307.9 18.6649 306.034 16.2822 304.297 13.8106C300.724 8.75149 296.104 4.98289 290.609 2.20955C287.778 0.775501 284.995 -0.736061 282.192 -2.22125C281.682 -2.49233 281.21 -2.82774 280.669 -3.15347C280.832 -3.2587 280.905 -3.32787 280.953 -3.32275C281.683 -3.24759 282.411 -3.18401 283.135 -3.07252C289.136 -2.1749 295.145 -1.8094 301.203 -2.3709C304.663 -2.68821 308.089 -3.16595 311.44 -4.09346C314.497 -4.9327 317.551 -5.7951 320.615 -6.57648C323.121 -7.22091 325.674 -7.52968 328.285 -7.4218C331.725 -7.288 334.972 -6.43101 338.162 -5.21226C339.745 -4.60706 341.311 -3.95233 342.894 -3.34713C346.448 -1.97843 350.147 -1.33805 353.944 -1.60797C356.736 -1.80852 359.524 -2.12644 362.297 -2.46588C367.042 -3.04498 371.559 -2.29446 375.847 -0.225877C377.707 0.671116 379.541 1.6424 381.238 2.80988C383.601 4.43903 385.856 6.22482 388.081 8.05017C390.358 9.91536 392.537 11.9124 394.775 13.8304C396.853 15.6172 399.075 17.1715 401.439 18.5528C409.597 23.3265 418.156 23.7848 427.04 21.0711C428.33 20.6787 429.471 20.0595 430.448 19.1092C433.293 16.329 436.232 13.6301 439.023 10.7986C443.373 6.36911 447.923 2.19484 453.19 -1.15897C453.407 -1.29542 453.536 -1.5495 453.717 -1.77531C453.536 -1.8916 453.48 -1.95458 453.42 -1.95809C448.869 -1.85431 444.653 -2.89469 440.952 -5.65873C440.372 -6.09697 439.742 -6.12717 439.064 -6.07985C436.927 -5.92338 434.801 -5.76853 432.664 -5.61206C428.609 -5.32978 424.557 -5.36646 420.558 -6.20119C415.018 -7.35177 410.653 -10.2238 407.744 -15.1749C407.558 -15.4912 407.361 -15.8059 407.175 -16.1222C406.035 -18.1224 404.651 -19.9234 402.896 -21.4249C402.708 -21.5875 402.6 -21.8556 402.406 -22.1471C402.763 -22.2087 402.975 -22.2973 403.19 -22.28C407.578 -21.7828 412.011 -21.6341 416.365 -20.7899C417.736 -20.5209 419.111 -20.2172 420.475 -19.9119C426.642 -18.5063 432.074 -15.677 436.782 -11.4487C438.98 -9.47799 441.239 -7.57484 443.824 -6.13005C447.729 -3.93715 451.86 -3.33335 456.204 -4.50544C457.477 -4.84824 458.717 -5.35147 459.969 -5.7621C461.018 -6.10895 462.043 -6.62941 463.121 -6.76794C466.77 -7.25319 470.434 -7.71692 474.102 -7.98066C476.451 -8.14303 478.815 -7.94177 481.168 -7.90415C482.008 -7.89143 482.01 -7.87985 482.89 -8.33304C482.859 -8.38768 482.846 -8.48028 482.795 -8.50855C482.431 -8.7527 482.065 -9.00843 481.68 -9.22622C479.229 -10.6425 477.01 -12.3389 475.259 -14.5725C474.512 -15.5303 473.695 -15.8057 472.574 -15.5549C472.071 -15.4376 471.557 -15.4013 471.046 -15.3419C467.083 -14.9899 463.117 -14.5784 459.152 -14.3322C453.444 -13.9728 447.839 -14.7369 442.318 -16.2559C437.594 -17.5558 433.714 -20.0825 430.795 -24.0057C429.212 -26.133 427.737 -28.3343 426.337 -30.5932C424.476 -33.6139 422.478 -36.5209 420.125 -39.178C419.494 -39.8924 418.884 -40.6332 418.294 -41.3888C415.912 -44.431 414.065 -47.7722 413.013 -51.5074C412.594 -52.9946 412.253 -54.5046 411.833 -55.9917C410.94 -59.1827 410.103 -62.3933 409.086 -65.5433C408.106 -68.5924 406.366 -71.2524 404.433 -73.7792C404.043 -74.2911 403.665 -74.8047 403.158 -75.4774C403.875 -75.5774 404.358 -75.5031 404.85 -75.3593ZM497.205 8.52557C497.205 8.52557 497.1 8.44589 497.059 8.40444L496.938 8.89322C496.675 9.11875 496.345 9.29449 496.149 9.5814C493.575 13.3739 490.587 16.8229 487.414 20.1325C486.189 21.4125 485.029 22.7423 483.856 24.0622C483.581 24.372 483.388 24.7646 483.066 25.2461C483.458 25.1797 483.682 25.1837 483.859 25.1C485.647 24.2136 487.525 23.5505 489.491 23.182C490.181 23.0504 490.691 22.7315 491.065 22.113C493.483 18.1299 495.421 13.9188 496.931 9.51955C496.999 9.33303 496.895 9.08809 496.865 8.87976C496.968 8.77103 497.071 8.6623 497.186 8.55195L497.205 8.52557ZM409.783 102C411.476 98.5665 413.928 95.7585 416.818 93.3024C419.181 91.2974 421.808 89.6568 424.393 87.9748C426.979 86.2928 429.604 84.6407 432.084 82.7963C434.018 81.3468 435.775 79.6504 437.564 78.0087C438.265 77.3682 438.826 76.5702 439.419 75.8268C440.121 74.9384 440.479 73.9562 440.602 72.8064C441.041 68.9341 441.565 65.0736 442.1 61.2114C442.354 59.3944 442.717 57.5975 443.063 55.5907C442.626 55.6752 442.259 55.6673 441.986 55.8234C439.971 56.9421 438.244 58.4337 436.767 60.1971C435.018 62.2934 433.268 64.3782 431.624 66.5542C428.319 70.9441 424.57 74.8533 419.967 77.8904C419.135 78.4429 418.622 79.1634 418.206 80.071C416.987 82.6715 415.718 85.2437 414.384 87.7778C412.874 90.6549 411.436 93.5456 410.329 96.6026C409.391 99.1875 409.055 100.756 409.255 102.947C409.436 102.638 409.63 102.34 409.787 102.023L409.783 102ZM423.934 58.9544C424.92 57.1414 425.868 55.3101 426.829 53.4888C428.517 50.28 430.623 47.3552 432.988 44.6065C437.154 39.7897 442.388 36.8771 448.586 35.6352C449.16 35.5198 449.732 35.3928 450.316 35.2642C450.386 35.2545 450.449 35.1985 450.661 35.1099C454.238 28.6997 459.299 23.1918 463.732 17.2405C463.522 17.0927 463.382 16.9353 463.339 16.9649C457.204 20.1803 450.765 22.7418 444.463 25.6146C441.646 26.9042 438.908 28.3361 436.314 30.0429C433.656 31.7941 431.238 33.8303 429.06 36.1517C425.64 39.8025 423.497 44.0658 422.603 48.9927C422.023 52.1886 421.777 55.4204 421.637 58.6492C421.591 59.5878 421.57 60.5347 421.524 61.8979C422.841 60.8529 423.395 59.9144 423.92 58.9444L423.934 58.9544ZM444.61 49.5934C445.053 48.1158 445.507 46.6365 446.036 45.1823C446.565 43.7281 447.181 42.3088 447.759 40.8713C448.329 39.4586 449.163 38.1623 449.64 36.7625C449.146 36.265 448.706 36.4916 448.317 36.5812C442.524 37.8493 437.624 40.621 433.722 45.1296C431.394 47.814 429.326 50.6628 427.676 53.8073C426.753 55.5643 425.805 57.3129 424.857 59.0616C424.154 60.3631 423.346 61.5966 422.208 62.5695C421.671 63.0338 421.388 63.5452 421.372 64.2789C421.351 65.3084 421.199 66.3326 421.129 67.357C420.941 70.1559 420.499 72.9078 419.779 75.6157C419.696 75.946 419.648 76.283 419.517 76.9502C420.174 76.5872 420.54 76.4182 420.862 76.1846C424.046 73.8881 426.841 71.1739 429.266 68.0866C430.859 66.0591 432.439 64.0217 434.061 62.0258C437.829 57.406 438.527 56.8249 443.435 53.9459C443.807 52.549 444.188 51.0563 444.62 49.5802L444.61 49.5934ZM331.078 91.1236C330.81 91.4086 330.695 91.9322 330.705 92.3437C330.786 95.2113 329.868 97.8525 328.838 100.45C328.375 101.612 327.887 102.766 327.397 103.908C326.015 107.192 326.123 110.504 327.257 113.815C327.615 114.862 327.995 115.895 328.42 116.909C329.172 118.751 329.857 120.614 330.121 122.595C330.158 122.861 330.313 123.123 330.462 123.515C331.221 123.291 331.929 123.122 332.603 122.875C334.548 122.19 336.466 121.474 338.412 120.79C339.143 120.535 339.672 120.095 340.048 119.406C341.601 116.499 342.543 113.441 342.566 110.134C342.583 108.398 342.017 106.789 341.397 105.224C340.647 103.311 339.762 101.452 338.866 99.5947C337.534 96.8072 336.213 94.0181 335.631 90.9488C335.444 89.9483 335.362 88.9333 335.169 87.4618C333.419 88.7087 332.227 89.8896 331.074 91.1005L331.078 91.1236ZM378.486 23.2638C374.956 21.1366 372.208 18.1808 369.705 14.9547C368.265 13.0906 366.89 11.1822 365.47 9.29178C363.864 7.16771 362.132 5.1556 359.905 3.6492C358.576 2.74902 357.145 1.96915 355.698 1.2388C354.441 0.599979 353.074 0.354122 351.642 0.329508C350.401 0.313792 349.156 0.0980957 347.914 -0.011826C347.496 -0.0479285 347.081 -0.0608902 346.532 -0.102387C346.724 0.260186 346.781 0.500012 346.931 0.644293C349.372 3.08846 350.891 6.10963 352.345 9.1752C353.317 11.2343 354.311 13.2903 355.415 15.2838C356.235 16.7623 357.197 18.162 358.2 19.5205C358.898 20.4616 359.735 21.3006 360.56 22.1413C361.523 23.1278 362.685 23.6738 364.085 23.7264C366.729 23.8178 369.372 23.9919 372.021 24.0355C374.221 24.0709 376.424 23.9643 378.882 23.9047C378.634 23.4792 378.588 23.3204 378.484 23.2523L378.486 23.2638ZM336.763 82.6497C333.554 83.5809 330.266 83.8625 326.96 84.0167C324.978 84.1043 322.994 84.1803 321.008 84.3158C315.972 84.6757 311.631 86.6262 307.974 90.0978C307.609 90.4436 307.29 90.8657 307.057 91.3111C306.139 93.1028 304.863 98.0003 304.672 100.351C305.06 100.427 305.455 100.549 305.871 100.574C307.578 100.713 309.248 100.504 310.88 100.028C312.434 99.5758 313.992 99.1579 315.542 98.6822C317.466 98.0953 319.404 97.7779 321.41 97.9465C322.328 98.019 323.066 97.8099 323.75 97.0421C327.988 92.2388 332.691 87.8898 337.536 83.7099C337.863 83.4284 338.156 83.0807 338.442 82.7577C338.473 82.7297 338.422 82.6188 338.373 82.4369C337.841 82.5111 337.286 82.506 336.764 82.6612L336.763 82.6497ZM298.536 144.852C301.427 143.08 304.153 141.048 306.723 138.837C309.75 136.256 312.718 133.6 315.743 131.007C316.628 130.247 317.083 129.275 317.479 128.228C318.542 125.437 318.867 122.525 318.925 119.555C318.962 117.709 319.048 115.868 319.158 114.036C319.329 111.286 319.961 108.626 321.286 106.199C322.337 104.259 323.58 102.423 324.721 100.541C325.594 99.0975 326.478 97.6528 327.311 96.1797C327.51 95.8333 327.558 95.4137 327.825 94.5387C327.179 95.0654 326.899 95.2578 326.66 95.4917C320 102.308 314.566 109.957 310.914 118.796C309.847 121.387 308.705 123.942 307.751 126.576C305.107 133.847 300.852 140.057 295.483 145.549C295.184 145.862 294.912 146.195 294.615 146.519C294.712 146.624 294.809 146.728 294.907 146.833C296.123 146.167 297.357 145.535 298.542 144.815L298.536 144.852ZM298.947 5.31795C300.93 6.9293 302.705 8.82918 304.745 10.763C305.15 10.7065 305.803 10.6508 306.448 10.5373C308.593 10.1792 310.721 10.2954 312.776 10.9881C315.005 11.7393 317.185 12.6506 319.407 13.4381C321.208 14.0836 322.995 14.8019 324.858 15.2147C328.78 16.0954 332.626 15.8422 336.213 13.8082C336.902 13.4172 337.671 13.0975 338.039 12.2674C337.881 12.0653 337.771 11.8683 337.601 11.7503C331.957 7.32221 325.682 4.45702 318.408 4.16168C315.394 4.03922 312.37 4.01259 309.349 3.84385C304.392 3.57938 299.563 2.62453 294.823 1.2089C294.072 0.983277 293.352 0.647037 292.376 0.665257C294.676 2.26775 296.934 3.65197 298.969 5.30316L298.947 5.31795ZM340.171 88.9824C340.946 90.0543 341.86 91.0241 342.751 91.9972C344.241 93.6301 345.792 95.1954 347.263 96.8546C348.132 97.8425 348.951 98.8963 349.683 99.9978C351.12 102.181 351.998 104.583 352.245 107.204C352.303 107.786 352.395 108.363 352.464 108.943C352.946 109.1 353.12 108.734 353.314 108.435C355.491 105.182 356.738 101.598 356.961 97.6968C357.071 95.7817 356.808 93.8952 356.173 92.0487C354.49 87.257 351.467 83.4309 347.682 80.1477C347.186 79.7213 346.615 79.3525 346.06 79.0052C345.75 78.8125 345.393 78.7088 345.017 78.5489C343.733 79.3296 342.824 80.5066 341.72 81.4747C340.667 82.3884 339.644 83.3451 338.524 84.3627C338.445 86.2498 339.243 87.6605 340.183 88.9808L340.171 88.9824ZM437.462 85.7395C434.641 88.6106 431.276 90.7082 427.797 92.6682C422.745 95.5318 418.303 99.1247 414.831 103.845C412.412 107.144 410.422 110.642 409.411 114.642C409.198 115.485 409.111 116.382 409.078 117.248C408.994 119.525 408.969 121.794 408.917 124.303C409.209 123.944 409.433 123.771 409.531 123.545C411.495 119.354 414.284 115.744 417.415 112.393C419.878 109.748 422.478 107.238 424.984 104.647C426.934 102.641 428.924 100.664 430.767 98.5665C433.708 95.2066 435.939 91.403 437.492 87.222C437.663 86.7615 437.796 86.2711 438.008 85.5926C437.588 85.7102 437.492 85.6999 437.45 85.7411L437.462 85.7395ZM463.929 58.4269C466.005 54.9517 467.178 51.1777 467.42 47.156C467.568 44.6692 467.605 42.1391 467.344 39.6741C466.618 32.9438 465.764 26.2311 464.448 19.5831C464.42 19.3863 464.279 19.2173 464.16 18.9624C463.934 19.112 463.719 19.1774 463.597 19.3241C459.775 23.8098 455.719 29.1657 454.353 31.5509C454.593 31.9186 454.864 32.3409 455.134 32.7517C458.83 38.3599 461.249 44.4531 462.191 51.1181C462.536 53.5949 462.916 56.0669 462.807 58.5835C462.794 58.833 462.878 59.0928 462.985 59.6914C463.443 59.0847 463.717 58.7634 463.928 58.4154L463.929 58.4269ZM340.754 18.8739C339.812 19.902 338.965 21.023 338.104 22.1224C337.282 23.1691 336.523 24.2424 335.689 25.2792C333.968 27.407 331.782 28.821 329.132 29.5327C328.996 29.5752 328.844 29.5846 328.698 29.6403C328.563 29.6828 328.432 29.7601 328.132 29.8962C328.459 30.1221 328.683 30.374 328.963 30.4411C330.897 30.9384 332.89 31.0144 334.878 31.0558C338.345 31.1269 341.778 31.3796 345.16 32.1941C347.247 32.6936 349.278 32.2806 351.19 31.4359C352.456 30.8699 353.648 30.1137 354.832 29.3822C357.028 28.0377 359.198 26.6733 361.377 25.2956C361.551 25.1888 361.664 24.9842 361.888 24.7288C359.686 24.1628 357.577 23.6782 355.488 23.0845C353.362 22.4725 351.335 21.5634 349.442 20.4234C347.55 19.2949 345.728 18.0741 343.838 16.8746C342.541 17.138 341.595 17.9661 340.742 18.8755L340.754 18.8739ZM448.941 73.2954C449.279 74.1922 449.525 75.1136 449.851 76.0121C449.967 76.338 450.173 76.6279 450.393 77.022C451.431 75.072 452.278 73.1958 453.386 71.4956C454.465 69.835 455.803 68.3504 456.997 66.8389C456.71 59.5399 452.41 50.0277 447.47 45.7374C446.771 45.7995 446.789 46.4342 446.638 46.8799C445.14 51.2776 444.156 55.8158 443.354 60.3876C443.096 61.8395 442.91 63.2932 442.713 64.7601C442.642 65.2656 442.667 65.7813 442.636 66.4935C446.177 67.6043 447.808 70.2441 448.945 73.3185L448.941 73.2954ZM462.418 -23.8257C460.574 -25.9638 459.154 -28.3615 457.852 -30.8465C457.032 -32.4077 456.145 -33.9476 455.249 -35.4628C453.8 -37.9037 451.888 -39.9379 449.562 -41.5603C448.724 -42.1514 447.817 -42.6502 446.893 -43.0995C445.574 -43.7534 444.201 -44.2935 442.873 -44.9342C440.672 -45.9959 438.609 -47.2539 436.725 -48.8319C436.404 -49.1056 436.041 -49.3382 435.566 -49.6968C435.528 -49.2904 435.452 -49.0791 435.509 -48.9219C436.794 -45.7147 438.003 -42.4616 439.432 -39.3217C441.174 -35.4586 443.728 -32.1216 446.717 -29.1286C448.295 -27.5434 450.088 -26.3657 452.347 -25.8194C455.766 -24.9866 459.144 -23.9473 462.95 -22.8852C462.633 -23.4663 462.558 -23.6682 462.418 -23.8257ZM436.784 110.659C440.316 107.476 443.239 103.812 445.33 99.5208C445.625 98.9252 445.934 98.3511 445.659 97.6461C444.092 93.6878 444.321 89.5734 444.561 85.4575C444.712 82.817 444.838 80.1682 444.849 77.5356C444.862 74.9261 444.163 72.4514 443.089 70.0763C442.938 69.7551 442.686 69.4717 442.33 68.9549C442.169 69.7443 442.035 70.3058 441.947 70.8608C441.499 73.9084 441.114 76.9827 440.593 80.0169C439.74 84.9852 438.07 89.6781 435.441 94.0092C435.248 94.3193 435.107 94.6576 434.94 94.9876C435.142 95.5022 435.304 95.987 435.521 96.4405C436.238 97.9452 436.426 99.5472 436.275 101.173C436.122 102.787 435.861 104.381 435.672 105.988C435.557 106.937 435.477 107.892 435.433 108.842C435.406 109.577 435.484 110.309 436.108 111.06C436.391 110.891 436.605 110.814 436.762 110.674L436.784 110.659ZM357.703 1.23063C360.361 2.60625 362.639 4.47145 364.528 6.76834C366.021 8.58959 367.429 10.4816 368.838 12.3737C370.639 14.8008 372.515 17.1704 374.718 19.2584C376.227 20.6881 377.842 21.9495 379.708 22.8928C380.903 23.5049 382.14 23.828 383.53 23.7286C386.309 23.518 389.05 23.2066 391.983 22.6677C391.695 22.3775 391.58 22.1458 391.422 22.1089C386.653 20.9097 382.952 18.063 379.783 14.4579C378.466 12.9661 377.339 11.3179 376.085 9.77016C374.744 8.10476 373.424 6.42457 371.978 4.85633C369.727 2.42106 366.971 0.764147 363.748 -0.0960869C362.584 -0.405718 361.457 -0.53178 360.258 -0.329204C359.107 -0.121511 357.93 -0.0163661 356.76 0.135071C356.721 0.282029 356.681 0.41741 356.654 0.562754C357.004 0.785378 357.345 1.03276 357.713 1.21744L357.703 1.23063ZM447.649 44.4853C450.538 47.1739 452.6 50.5439 454.426 54.0768C456.256 57.6328 457.317 61.4375 457.791 65.5955C458.195 65.3621 458.479 65.2871 458.642 65.0992C459.533 64.1255 460.395 63.1202 461.271 62.125C461.78 61.5466 462.007 60.8896 462.005 60.1112C462.056 51.3374 460.226 43.0383 455.753 35.4145C455.349 34.7158 454.911 34.0334 454.474 33.351C454.323 33.1126 454.094 32.9085 453.798 32.5605C451.849 34.6611 448.54 41.0574 447.635 44.4638L447.649 44.4853ZM296.544 142.84C300.813 137.997 304.285 132.688 306.561 126.589C307.993 122.731 309.687 118.967 311.369 115.205C312.807 111.984 314.561 108.907 316.572 105.984C316.858 105.578 317.077 105.123 317.305 104.725C316.94 104.222 316.572 104.462 316.263 104.528C313.288 105.191 310.869 106.803 308.844 109.032C308.056 109.897 307.337 110.835 306.592 111.753C305.617 112.963 304.573 114.111 303.204 114.868C302.404 115.31 302.11 115.906 301.973 116.786C301.448 120.128 300.898 123.461 300.25 126.772C299.232 131.988 297.622 137.027 295.604 141.933C295.331 142.597 295.095 143.278 294.845 143.939C294.964 144.028 295.084 144.13 295.203 144.219C295.657 143.755 296.138 143.31 296.566 142.826L296.544 142.84ZM312.031 20.4487C315.283 23.9715 319.234 26.5 323.526 28.5091C325.419 29.3897 327.427 29.1568 329.361 28.5567C331.295 27.9567 332.996 26.9526 334.353 25.4301C335.179 24.5007 335.974 23.5167 336.719 22.5161C338.601 19.9883 340.6 17.8256 342.717 16.028C342.246 15.362 341.657 14.8544 340.831 14.5211C340.429 14.8486 340.023 15.153 339.646 15.5004C336.336 18.4989 332.387 19.6276 328.011 19.2114C325.668 18.9954 323.353 18.5513 321.03 18.1436C318.611 17.7141 316.212 17.5177 313.811 18.1592C312.97 18.3828 312.155 18.7205 311.042 19.1117C311.524 19.7761 311.741 20.147 312.032 20.4603L312.031 20.4487ZM359.284 22.213C356.221 18.9471 354.1 15.0777 352.197 11.072C351.378 9.3455 350.58 7.60424 349.684 5.91223C348.532 3.74837 347.04 1.84449 345.194 0.202195C344.413 -0.491224 343.57 -1.03446 342.575 -1.40303C340.573 -2.13854 338.604 -2.97309 336.6 -3.72018C334.61 -4.4573 332.567 -5.05743 330.033 -5.29397C330.557 -4.83608 330.766 -4.60567 331.027 -4.42961C331.993 -3.76202 333.011 -3.14878 333.957 -2.45481C336.936 -0.298062 339.241 2.43651 340.826 5.76695C341.612 7.42719 342.333 9.13183 343.164 10.774C343.962 12.35 344.783 13.9228 345.71 15.41C346.775 17.1257 348.272 18.4627 350.005 19.4717C352.831 21.1189 355.865 22.2297 359.06 22.8932C359.181 22.9118 359.32 22.8098 359.5 22.7492C359.427 22.5589 359.396 22.339 359.271 22.2031L359.284 22.213ZM317.789 78.6645C321.805 77.0897 325.964 76.9582 330.196 77.4417C332.246 77.6749 334.298 77.9198 336.352 78.0109C339.416 78.1501 342.372 77.608 345.088 76.0966C345.722 75.7368 346.358 75.3059 346.826 74.7687C349.221 72.0631 351.686 69.4304 354.327 66.9619C354.473 66.8235 354.548 66.6007 354.736 66.2559C354.376 66.2117 354.113 66.1067 353.872 66.1522C348.443 67.157 342.936 67.7716 337.567 69.1221C331.103 70.7432 324.911 73.0461 319.334 76.7972C318.557 77.3185 317.699 77.7685 317.05 78.6967C317.402 78.683 317.622 78.735 317.789 78.6645ZM367.057 0.197574C369.58 1.36782 371.673 3.09358 373.474 5.17863C374.683 6.56759 375.807 8.02734 376.94 9.4739C377.944 10.7498 378.905 12.0553 379.919 13.318C381.634 15.4623 383.707 17.2144 385.977 18.7738C388.797 20.7168 391.976 21.5125 395.315 21.8492C395.529 21.8665 395.756 21.8821 395.974 21.8398C396.414 21.7785 396.852 21.7056 397.272 21.588C398.308 21.3138 399.35 21.0033 400.599 20.6522C400.24 20.2775 400.089 20.039 399.869 19.9044C395.972 17.5925 392.647 14.5637 389.241 11.6287C386.948 9.65938 384.636 7.7164 382.254 5.86573C379.632 3.81264 376.76 2.17187 373.659 0.917055C371.596 0.0838342 369.449 -0.41913 367.235 -0.641373C366.9 -0.677199 366.549 -0.5693 365.889 -0.477304C366.444 -0.141616 366.72 0.0675452 367.036 0.212379L367.057 0.197574ZM342.291 118.822C345.275 117.037 347.987 114.912 350.354 112.34C351.215 111.406 351.572 110.412 351.55 109.153C351.489 105.244 350.17 101.794 347.732 98.7831C346.577 97.3514 345.305 96.0184 344.075 94.6442C343.629 94.1519 343.163 93.686 342.695 93.2084C340.511 90.9998 338.393 88.7583 337.611 85.5992C336.519 85.8104 336.114 86.3742 336.104 87.3195C336.101 89.3258 336.4 91.3017 337.098 93.1749C337.902 95.3045 338.831 97.3933 339.779 99.4556C340.816 101.73 341.896 103.974 342.701 106.364C343.608 109.057 343.577 111.716 342.879 114.409C342.563 115.61 342.088 116.773 341.676 117.963C341.567 118.285 341.459 118.607 341.265 119.165C341.763 119.013 342.052 118.973 342.281 118.835L342.291 118.822ZM440.471 -18.9245C443.311 -17.8458 446.249 -17.1699 449.249 -16.7269C453.2 -16.1452 457.174 -15.9914 461.148 -16.345C464.155 -16.611 467.164 -16.8654 470.181 -17.1445C470.67 -17.1891 471.148 -17.3148 471.919 -17.4576C471.525 -17.8275 471.364 -18.0528 471.146 -18.1758C468.169 -19.8136 464.993 -21.0109 461.749 -22.0216C460.342 -22.4626 458.904 -22.7929 457.506 -23.2587C455.563 -23.9081 453.611 -23.9427 451.609 -23.6635C449.132 -23.3181 446.642 -22.9826 444.164 -22.6488C440.726 -22.1695 437.399 -22.5078 434.224 -23.9529C434.099 -24.0062 433.935 -23.9952 433.345 -24.0782C435.411 -21.5344 437.754 -19.9616 440.482 -18.9261L440.471 -18.9245ZM329.044 124.008C329.46 123.266 329.391 122.603 329.195 121.957C328.73 120.488 328.231 119.024 327.732 117.56C327.125 115.745 326.417 113.968 325.912 112.126C325.17 109.339 325.385 106.572 326.45 103.886C327.094 102.239 327.863 100.645 328.432 98.9732C328.976 97.3752 329.358 95.7172 329.744 94.0824C329.834 93.7158 329.692 93.2873 329.396 92.8566C329.264 93.1817 329.072 93.4918 329.001 93.832C328.452 96.3273 327.258 98.5114 325.799 100.567C324.862 101.89 323.965 103.242 323.106 104.612C320.81 108.284 319.924 112.336 319.848 116.618C319.833 117.942 319.793 119.269 319.754 120.596C319.676 123.249 319.272 125.854 318.535 128.518C321.954 126.554 325.484 125.13 329.032 124.01L329.044 124.008ZM427.601 -41.4122C424.702 -45.7865 422.619 -50.5697 420.435 -55.3151C419.367 -57.644 418.142 -59.9155 416.895 -62.1722C414.907 -65.7651 412.139 -68.6946 408.991 -71.2998C408.791 -71.4608 408.541 -71.5674 408.105 -71.8134C408.234 -71.3949 408.263 -71.1866 408.357 -71.0226C410.77 -67.0052 412.074 -62.5618 413.3 -58.084C414.041 -55.391 414.759 -52.6948 415.592 -50.0263C415.969 -48.8401 416.594 -47.7472 417.119 -46.6052C417.962 -44.7877 419.394 -43.5716 421.136 -42.67C423.171 -41.6204 425.308 -40.9274 427.828 -40.7124C427.672 -41.1508 427.65 -41.3129 427.574 -41.4321L427.601 -41.4122ZM409.642 111.14C412.587 104.252 417.169 98.6929 423.341 94.4695C425.226 93.1801 427.185 91.9984 429.162 90.8614C432.122 89.1625 434.815 87.147 437.199 84.7024C438.377 83.4999 439.221 82.1905 439.396 80.4905C439.487 79.6166 439.673 78.7528 439.787 77.8757C439.806 77.7551 439.68 77.6192 439.575 77.3742C439.279 77.6162 438.974 77.8002 438.739 78.0573C435.793 81.2998 432.322 83.9077 428.666 86.2935C426.569 87.6714 424.438 88.9715 422.34 90.3379C419.678 92.0659 417.146 93.9646 414.929 96.256C412.742 98.5079 411.122 101.105 409.794 103.934C408.572 106.511 408.494 109.165 408.993 112.411C409.383 111.648 409.526 111.404 409.631 111.142L409.642 111.14ZM320.236 48.1531C322.861 48.5304 325.479 48.8615 328.089 49.2999C332.292 49.9998 336.494 50.7707 340.7 51.4822C343.466 51.9459 346.269 51.9917 349.062 51.8853C351.186 51.8015 353.24 51.3853 355.423 50.4555C355.042 50.1783 354.86 49.9678 354.622 49.8711C350.926 48.416 347.213 46.9988 343.524 45.5074C339.735 43.971 335.867 43.4837 331.842 44.3165C330.043 44.6972 328.24 45.0547 326.449 45.4933C323.664 46.1649 320.886 46.8943 318.106 47.6006C318.096 47.6965 318.074 47.7939 318.064 47.8897C318.784 47.9781 319.502 48.0548 320.213 48.1564L320.236 48.1531ZM372.648 35.8888C373.002 35.804 373.354 35.625 373.716 35.5982C375.639 35.4244 376.989 34.363 378.041 32.8477C379.08 31.3341 380.105 29.7989 381.042 28.2287C381.569 27.3529 381.953 26.3791 381.997 25.3463C381.69 24.8346 381.215 24.9834 380.804 24.9936C378.589 25.0193 376.382 25.1028 374.176 25.1037C373.008 25.1015 371.98 25.4335 371.1 26.1462C369.682 27.3115 368.295 28.5315 366.932 29.7598C365.778 30.7938 364.735 31.9422 363.537 32.9116C362.402 33.8251 361.115 34.5826 359.908 35.4C359.681 35.5496 359.467 35.7092 358.856 36.1484C363.794 37.1235 368.233 36.9763 372.659 35.8872L372.648 35.8888ZM338.967 10.1204C337.761 7.90516 336.224 5.93667 334.432 4.16895C331.792 1.56381 328.844 -0.62093 325.617 -2.43641C324.593 -3.0133 323.494 -3.44997 322.415 -3.91301C321.159 -4.45763 319.928 -4.48652 318.563 -4.0366C316.058 -3.21534 313.501 -2.5992 310.773 -1.85305C311.373 -1.01646 312.202 -0.825283 312.832 -0.370352C313.488 0.1045 314.184 0.5266 314.799 1.04263C315.415 1.57023 315.937 2.18181 316.639 2.8981C320.603 3.14767 324.678 3.60585 328.564 5.1525C332.35 6.66576 335.707 8.91137 339.349 11.0819C339.221 10.7576 339.138 10.4152 338.979 10.1188L338.967 10.1204ZM411.441 -70.6504C415.162 -67.4054 417.793 -63.3476 419.961 -58.9658C421.229 -56.3933 422.385 -53.77 423.574 -51.1631C424.916 -48.2235 426.414 -45.3528 428.185 -42.6382C429.52 -40.5943 431.054 -38.7316 432.739 -36.9725C433.042 -36.6608 433.335 -36.3359 433.78 -35.8552C433.799 -36.3889 433.86 -36.5507 433.809 -36.6616C431.97 -40.4523 430.966 -44.5245 429.723 -48.528C429.226 -50.146 428.673 -51.7443 428.098 -53.3278C426.469 -57.7376 423.873 -61.5408 420.725 -64.9954C420.475 -65.2673 420.225 -65.5391 419.944 -65.7715C417.314 -68.0477 414.325 -69.7665 411.068 -71.1293C411.198 -70.9586 411.296 -70.76 411.456 -70.6289L411.441 -70.6504ZM431.458 99.5439C429.042 102.016 426.624 104.477 424.223 106.971C421.574 109.724 418.888 112.459 416.335 115.304C414.067 117.827 412.157 120.63 410.686 123.702C410.092 124.941 409.547 126.197 409.211 127.931C411.295 126.378 413.032 124.956 414.903 123.74C416.806 122.495 418.846 121.467 420.932 120.268C420.992 120.106 421.132 119.839 421.201 119.569C421.824 117.182 422.981 115.074 424.453 113.11C425.738 111.409 427.074 109.736 428.293 107.985C429.256 106.6 430.165 105.164 430.935 103.664C431.502 102.57 431.827 101.345 432.216 100.158C432.325 99.836 432.25 99.4688 432.273 98.8756C431.859 99.2047 431.632 99.3544 431.445 99.5339L431.458 99.5439ZM309.775 87.5339C313.404 84.7035 317.605 83.6103 322.128 83.3808C325.654 83.1959 329.191 83.0094 332.701 82.6262C336.093 82.2475 339.329 81.2535 342.196 79.308C342.541 79.0711 342.853 78.7681 343.328 78.3714C342.949 78.271 342.754 78.1447 342.595 78.1905C338.963 79.1335 335.301 79.0188 331.632 78.5157C329.298 78.1923 326.948 78.0126 324.581 78.1303C320.34 78.3441 316.488 79.7426 313.092 82.2103C311.185 83.5971 309.925 85.6488 309.073 87.9976C309.311 87.8464 309.566 87.7283 309.778 87.5571L309.775 87.5339ZM426.678 -58.4393C428.871 -54.4738 430.12 -50.1645 431.417 -45.8616C432.226 -43.1899 432.936 -40.4689 434.206 -37.9559C434.84 -36.711 435.583 -35.5285 436.369 -34.3757C437.169 -33.2128 438.198 -32.2591 439.44 -31.5592C441.243 -30.5599 443.056 -29.5738 444.868 -28.5993C445.099 -28.4663 445.376 -28.4224 445.833 -28.2738C445.684 -28.666 445.665 -28.8875 445.542 -29.0119C441.059 -33.6609 438.102 -39.2072 435.941 -45.2301C435.322 -46.9608 434.624 -48.6687 433.916 -50.3633C433.37 -51.6559 432.628 -52.8268 431.635 -53.8564C430.364 -55.1894 429.144 -56.5767 427.905 -57.9261C427.517 -58.3439 427.107 -58.7469 426.486 -59.3918C426.588 -58.8279 426.584 -58.6032 426.679 -58.4277L426.678 -58.4393ZM452.824 -39.9975C455.044 -37.7822 456.575 -35.0931 458.064 -32.3745C459.015 -30.6311 459.967 -28.8761 461.026 -27.2067C461.725 -26.0888 462.597 -25.0778 463.447 -24.0635C464.595 -22.6781 465.969 -21.6306 467.715 -21.0365C469.028 -20.5941 470.266 -19.9174 471.54 -19.3281C471.594 -19.5361 471.7 -19.7043 471.653 -19.7921C469.806 -23.558 467.85 -27.2615 465.575 -30.8025C462.477 -35.5857 458.109 -38.6462 452.601 -40.6626C452.74 -40.2573 452.741 -40.0804 452.824 -39.9975ZM450.281 -25.3189C446.413 -26.573 442.718 -28.1933 439.276 -30.3682C438.771 -30.6872 438.253 -30.8509 437.625 -30.8695C434.109 -30.9572 430.783 -31.7914 427.71 -33.5221C427.518 -33.6252 427.3 -33.6656 427.005 -33.7542C427.04 -33.4995 427.002 -33.2699 427.094 -33.1176C428.165 -31.3556 429.257 -29.62 430.34 -27.8596C430.858 -27.0232 431.557 -26.4127 432.396 -25.8926C435.495 -23.9768 438.868 -23.0549 442.495 -23.3601C445.2 -23.5956 447.9 -24.0312 450.598 -24.3957C450.783 -24.4215 450.953 -24.5631 451.361 -24.7617C450.88 -25.0012 450.604 -25.1988 450.296 -25.2974L450.281 -25.3189ZM317.246 99.1407C315.539 99.5911 313.829 100.018 312.145 100.548C310.01 101.235 307.856 101.524 305.617 101.376C305.26 101.355 304.892 101.418 304.425 101.459C303.642 103.457 303.527 105.596 303.215 107.669C302.902 109.742 302.403 111.83 302.525 114.149C302.989 113.919 303.353 113.821 303.582 113.6C304.372 112.841 305.147 112.049 305.87 111.228C306.605 110.406 307.233 109.493 307.968 108.67C310.433 105.872 313.44 104.002 317.179 103.48C318.139 103.346 318.802 102.935 319.358 102.185C319.962 101.358 320.657 100.588 321.3 99.779C321.471 99.5663 321.549 99.284 321.694 98.9688C320.102 98.6363 318.657 98.767 317.223 99.1439L317.246 99.1407ZM345.261 52.97C343.427 52.9308 341.584 52.7511 339.774 52.4608C335.851 51.8279 331.932 51.1356 328.039 50.3805C324.557 49.6979 321.065 49.2764 317.531 49.0613C317.03 49.0249 316.523 49.1075 315.633 49.1608C316.207 49.5527 316.456 49.813 316.754 49.9247C318.281 50.4669 319.783 51.0834 321.349 51.4787C323.93 52.1335 326.414 53.026 328.875 54.0043C330.786 54.7643 332.734 55.4484 334.712 56.0103C337.599 56.8347 340.502 56.8312 343.438 56.056C346.01 55.3787 348.559 54.7047 350.974 53.5774C351.295 53.4264 351.598 53.2308 352.363 52.7937C349.647 52.8656 347.45 53.0186 345.248 52.96L345.261 52.97ZM435.091 103.934C435.256 102.92 435.373 101.9 435.443 100.876C435.578 99.0519 435.297 97.9701 434.28 96.1769C434.063 96.396 433.803 96.562 433.706 96.7997C433.563 97.1265 433.474 97.5046 433.453 97.8615C433.245 101.277 431.918 104.282 430.002 107.039C428.5 109.219 426.882 111.32 425.302 113.44C424.198 114.916 423.158 116.429 422.516 118.171C422.396 118.494 422.352 118.854 422.218 119.416C422.74 119.272 423.102 119.245 423.4 119.098C427.437 116.989 431.507 114.958 435.274 111.932C434.3 109.177 434.654 106.555 435.091 103.934ZM338.614 13.261C338.482 13.3266 338.379 13.4353 338.261 13.5225C334.487 16.326 330.248 16.9762 325.705 16.3C323.657 15.9957 321.714 15.3463 319.79 14.5764C317.677 13.7264 315.563 12.865 313.427 12.1009C311.477 11.4052 309.456 11.0382 307.36 11.2361C306.707 11.2918 306.049 11.3127 305.505 11.7307C306.214 13.4254 308.695 16.7489 310.509 18.4192C311.43 18.0901 312.377 17.6867 313.355 17.4205C315.732 16.7823 318.135 16.754 320.566 17.1819C323.095 17.6316 325.633 18.0681 328.186 18.3493C330.786 18.6357 333.321 18.2822 335.708 17.1234C337.31 16.3454 338.684 15.2807 340.018 13.9383C339.599 13.218 339.209 12.9539 338.628 13.2709L338.614 13.261ZM365.285 24.9748C364.647 24.9694 363.951 25.1373 363.377 25.418C361.796 26.1812 360.235 27.0006 358.703 27.8632C357.806 28.3659 357 29.0209 356.146 29.5767C355.031 30.2985 353.946 31.0633 352.779 31.6626C351.69 32.2275 350.492 32.6069 349.353 33.0725C349.278 33.4606 349.543 33.5887 349.827 33.6789C351.714 34.2653 353.623 34.8369 355.511 35.4349C356.325 35.6871 357.114 35.6716 357.88 35.3287C358.944 34.8382 360.037 34.3791 361.012 33.7593C361.999 33.1379 362.919 32.3725 363.776 31.5804C365.929 29.5929 368.028 27.5539 370.479 25.2417C368.517 25.1377 366.916 24.9952 365.31 24.9832L365.285 24.9748ZM356.469 89.6005C356.452 89.1426 356.469 88.6684 356.406 88.217C356.001 85.2293 355.575 82.2564 355.158 79.2703C354.67 75.6808 354.596 72.1042 355.48 68.5473C355.525 68.364 355.433 68.129 355.39 67.7339C351.629 70.63 348.914 74.3477 345.644 77.7181C350.344 80.7912 353.793 84.7939 356.459 89.6136L356.469 89.6005ZM444.792 72.0569C445.799 74.9606 445.865 77.972 445.72 80.9893C445.564 84.3618 445.386 87.7376 445.279 91.1152C445.214 93.1891 445.494 94.4361 446.36 96.6635C446.616 96.2148 446.866 95.8967 446.993 95.5369C447.988 92.6018 448.448 89.5525 448.846 86.4882C449.131 84.301 449.477 82.1289 449.848 79.9652C449.979 79.2153 449.958 78.5575 449.658 77.8442C449.093 76.4954 448.727 75.0597 448.148 73.7009C447.637 72.4862 447.057 71.2927 446.349 70.188C445.639 69.0717 444.683 68.143 443.045 67.7343C443.711 69.376 444.319 70.6952 444.794 72.0685L444.792 72.0569ZM378.578 33.7403C382.523 33.261 395.196 26.1606 398.334 22.7732C398.315 22.717 398.315 22.6343 398.264 22.6061C398.211 22.5662 398.114 22.5444 398.057 22.5641C393.188 23.7741 388.226 24.407 383.032 24.8953C382.356 28.3405 380.57 31.0201 378.591 33.7503L378.578 33.7403ZM324.071 -4.13224C328.33 -2.18936 332.03 0.563103 335.344 3.85304C337.714 6.21269 339.581 8.93754 340.893 11.9993C341.611 13.6808 342.915 14.5727 344.299 15.5242C344.392 15.3461 344.475 15.2637 344.458 15.2306C343.094 12.3884 341.709 9.56108 340.367 6.70412C337.927 1.47524 333.868 -2.07665 328.801 -4.65024C327.062 -5.52865 325.308 -5.67332 323.465 -5.18038C323.351 -5.15267 323.266 -4.99925 322.944 -4.68302C323.438 -4.44504 323.754 -4.28865 324.083 -4.13386L324.071 -4.13224ZM493.019 20.9792C491.599 23.4898 490.061 25.9107 488.184 28.1075C487.799 28.5623 487.423 28.9924 487.383 29.6351C487.313 30.6595 487.22 31.6872 487.068 32.7113C486.938 33.638 486.699 34.5445 486.535 35.405C486.939 35.7617 487.189 35.5262 487.405 35.3782C489.646 33.7677 491.466 31.7559 493.025 29.4854C493.231 29.1853 493.445 28.8605 493.551 28.5154C494.378 25.7335 494.586 22.9081 493.722 19.9255C493.487 20.2767 493.24 20.618 493.032 20.9892L493.019 20.9792ZM484.139 30.8307C485.758 29.2364 487.172 27.4463 488.642 25.7192C488.955 25.3451 489.175 24.8897 489.416 24.5022C489.019 24.0265 488.645 24.2203 488.341 24.3218C487.224 24.6899 486.12 25.0679 485.038 25.5138C482.304 26.6384 480.176 28.3864 478.901 31.1718C477.832 33.4919 476.674 35.7654 475.744 38.6561C478.806 35.8221 481.536 33.4002 484.139 30.8307ZM435.813 -32.6935C433.548 -34.4661 431.498 -36.4809 429.677 -38.7048C429.236 -39.2451 428.747 -39.6252 428.039 -39.7035C425.69 -39.9659 423.43 -40.6064 421.158 -41.5874C420.983 -40.8906 421.483 -40.6063 421.746 -40.2419C423.826 -37.4287 426.209 -34.9765 429.508 -33.5722C431.615 -32.6744 433.762 -32.0062 436.435 -31.8717C436.072 -32.3637 435.972 -32.5739 435.813 -32.6935ZM314.876 2.77817C314.699 2.43714 314.615 2.09476 314.4 1.90067C313.032 0.640088 311.422 -0.244502 309.744 -1.0252C308.949 -1.39806 308.175 -1.27834 307.368 -1.14222C304.244 -0.612237 301.1 -0.232727 297.914 -0.319396C296.967 -0.34074 296.02 -0.362076 295.071 -0.394994C298.797 1.78739 309.108 3.21669 314.864 2.77979L314.876 2.77817ZM426.596 -12.1521C424.619 -14.4839 422.258 -16.3494 419.597 -17.8308C419.086 -18.1135 418.523 -18.3418 417.953 -18.4511C415.567 -18.897 413.174 -19.3066 410.77 -19.703C410.565 -19.7334 410.352 -19.6565 410.097 -19.621C411.866 -17.6021 423.542 -11.8797 427.013 -11.3607C426.839 -11.6786 426.755 -11.9383 426.586 -12.1389L426.596 -12.1521ZM496.511 23.0881C497.301 20.6299 498.031 18.1683 498.748 15.6966C498.971 14.9223 499.119 14.1229 499.267 13.3235C499.826 10.225 500.385 7.12648 500.941 4.00483C500.379 3.95337 500.32 4.3746 500.195 4.6634C499.552 6.14533 498.911 7.63884 498.306 9.13908C497.303 11.5916 496.362 14.0707 495.31 16.5065C494.945 17.3597 494.843 18.1526 494.936 19.0718C495.11 20.8292 495.121 22.5976 495.202 24.3678C495.215 24.6257 495.204 24.8868 495.206 25.4057C496.031 24.6416 496.287 23.8509 496.525 23.1096L496.511 23.0881ZM476.413 40.2382C476.517 40.3064 476.645 40.4654 476.713 40.4442C478.909 39.607 481.099 38.7236 483.309 37.9079C484.532 37.4542 485.239 36.6005 485.554 35.3885C485.857 34.1781 486.135 32.9594 486.377 31.7339C486.44 31.4185 486.307 31.0594 486.252 30.6659C482.498 33.443 477.805 38.0383 476.415 40.2498L476.413 40.2382ZM423.761 -16.0634C425.518 -14.7156 427.037 -13.1339 428.37 -11.3611C428.661 -10.9652 429.053 -10.5242 429.487 -10.3724C431.694 -9.60645 433.944 -9.03538 436.516 -8.61527C436.113 -9.64457 435.409 -10.0419 434.847 -10.5181C431.826 -13.141 428.45 -15.1834 424.702 -16.5958C424.254 -16.7576 423.788 -17.1409 423.203 -16.6817C423.397 -16.4729 423.548 -16.2344 423.76 -16.075L423.761 -16.0634ZM418.521 -12.265C416.991 -11.9809 415.439 -12.2835 413.914 -12.5547C413.442 -12.6422 412.964 -13.0239 412.323 -12.5451C413.458 -11.3465 414.852 -10.5733 416.189 -9.69793C418.188 -8.39557 420.062 -8.5744 421.883 -9.98464C422.278 -10.2874 422.644 -10.6217 423.183 -11.0744C421.55 -12.121 420.165 -12.5768 418.51 -12.2634L418.521 -12.265ZM420.743 -8.17384C425.166 -7.17408 429.303 -7.29081 433.882 -7.62257C432.117 -8.60353 430.521 -8.79396 429.037 -9.28315C427.576 -9.77557 426.11 -10.2201 424.48 -10.7362C423.265 -9.89409 422.145 -9.12439 420.757 -8.16388L420.743 -8.17384ZM408.321 -18.8188C408.244 -18.8669 408.073 -18.737 407.893 -18.6764C407.967 -18.4861 408.017 -18.2926 408.122 -18.1303C408.788 -17.0786 409.442 -16.0253 410.151 -15.0033C410.344 -14.7233 410.663 -14.4612 410.977 -14.3279C413.237 -13.4395 415.557 -12.8781 418.101 -13.5042C414.844 -15.2801 411.576 -17.0544 408.311 -18.8056L408.321 -18.8188Z" fill="#8C956B" fill-opacity="0.2"/>
</g>
</g>
<defs>
<clipPath id="clip0_9_132">
<rect width="500" height="300" fill="white"/>
</clipPath>
<clipPath id="clip1_9_132">
<rect width="208.793" height="289.157" fill="white" transform="translate(285.607 151.728) rotate(-97.9386)"/>
</clipPath>
</defs>
</svg>
