<svg width="500" height="300" viewBox="0 0 500 300" fill="none" xmlns="http://www.w3.org/2000/svg">
<g clip-path="url(#clip0_9_131)">
<rect width="500" height="300" fill="#EDC8E5"/>
<path d="M299.6 122.043C300.224 121.68 300.507 121.53 300.781 121.355C304.02 119.245 307.543 117.832 311.307 116.996C314.875 116.196 318.352 116.422 321.692 117.963C322.998 118.563 324.276 119.233 325.549 119.901C327.366 120.85 329.144 121.868 330.975 122.782C332.261 123.422 333.598 123.971 334.937 124.49C339.334 126.196 343.604 125.837 347.774 123.697C350.085 122.512 352.413 121.346 354.773 120.257C357.981 118.781 361.348 118.372 364.825 119.05C365.804 119.24 366.782 119.429 367.754 119.636C371.718 120.48 375.463 119.907 378.979 117.911C381 116.765 383 115.587 384.994 114.392C387.558 112.855 390.175 111.426 392.943 110.282C396.936 108.633 401.035 108.054 405.299 108.76C406.606 108.977 407.917 109.219 409.208 109.524C415.102 110.916 421.054 111.029 427.024 110.202C431.755 109.548 435.865 107.447 439.493 104.38C442.065 102.208 444.134 99.6228 445.698 96.6598C446.912 94.3616 448.017 91.9992 449.151 89.6617C450.474 86.922 451.764 84.1629 453.1 81.4237C453.61 80.3786 454.178 79.3658 454.775 78.3662C456.424 75.5896 458.806 73.6905 461.835 72.6115C463.398 72.0539 465.013 71.634 466.575 71.0763C468.138 70.5245 469.696 69.9431 471.2 69.2532C473.325 68.2764 474.893 66.6662 476.075 64.6546C476.858 63.3231 477.688 62.0057 478.557 60.7255C480.588 57.7326 483.483 56.0354 486.964 55.2317C491.42 54.2058 495.86 54.3261 500.273 55.4683C501.614 55.8172 502.956 56.1601 504.269 56.5958C506.642 57.378 508.921 58.3792 510.991 59.8052C512.408 60.7752 513.837 61.7283 515.234 62.7269C515.995 63.2704 516.781 63.7975 517.164 64.7281C517.279 65.0044 517.596 65.1436 517.856 64.9977C518.068 64.8847 518.292 64.6194 518.321 64.3973C518.354 64.099 518.284 63.7192 518.114 63.4755C517.84 63.0737 517.495 62.6802 517.097 62.3958C514.939 60.8478 512.82 59.2312 510.572 57.8317C508.067 56.2725 505.274 55.3106 502.429 54.5754C500.182 53.9935 497.906 53.5042 495.645 52.9745C493.651 52.505 491.641 52.1054 489.669 51.5489C486.775 50.7349 484.081 49.4426 481.569 47.7889C480.123 46.835 478.832 45.7064 477.801 44.3202C476.775 42.946 475.798 41.539 474.851 40.1099C473.297 37.7627 472.734 35.1352 472.859 32.3596C472.93 30.928 473.125 29.4968 473.272 28.069C473.445 26.3661 473.688 24.6608 473.767 22.9533C473.824 21.8034 473.747 20.6233 473.563 19.4849C473.257 17.5819 472.256 16.0619 470.512 15.1755C469.485 14.6541 468.383 14.2348 467.268 13.9384C463.849 13.0395 460.376 12.979 456.888 13.453C454.147 13.8228 451.41 14.2164 448.664 14.5624C445.551 14.955 442.598 14.3851 439.823 12.9359C438.447 12.2148 437.097 11.4539 435.734 10.7158C432.017 8.70235 428.041 7.62887 423.818 7.52526C420.622 7.44323 417.552 8.03202 414.586 9.26113C410.623 10.9054 406.996 13.1134 403.63 15.7636C401.072 17.7775 399.045 20.2294 397.531 23.1244C396.322 25.4347 395.327 27.8378 394.389 30.2673C393.889 31.56 393.431 32.8664 392.891 34.1394C392.438 35.205 391.95 36.2688 391.377 37.2755C390.127 39.472 388.281 40.9978 385.902 41.8796C383.56 42.7515 381.143 43.3374 378.691 43.8039C375.383 44.4338 372.345 45.7005 369.589 47.6576C367.108 49.4225 365.151 51.6368 363.673 54.2865C362.369 56.6214 361.487 59.1243 360.777 61.6945C360.102 64.1488 359.445 66.6099 358.736 69.0508C358.346 70.3783 357.888 71.6847 357.4 72.9779C357.048 73.9074 356.638 74.8222 356.194 75.7118C353.935 80.2225 350.133 82.6628 345.296 83.5345C343.017 83.9449 340.678 84.0406 338.366 84.2789C331.574 84.983 325.508 87.4052 320.282 91.8628C317.745 94.0248 315.406 96.3672 313.358 99.0004C309.237 104.307 305.759 110.027 302.43 115.844C301.496 117.479 300.597 119.129 299.962 120.914C299.873 121.169 299.789 121.429 299.582 122.048L299.6 122.043ZM467.961 48.7196C467.646 48.8922 467.434 49.0287 467.199 49.1347C464.259 50.4239 461.777 52.3181 459.72 54.7803C456.738 58.3377 454.391 62.2617 452.983 66.7029C452.299 68.8627 451.702 71.0562 451.234 73.2679C450.475 76.8355 449.855 80.4335 449.177 84.0228C448.804 85.9863 448.297 87.9079 447.511 89.7509C446.4 92.3483 445.203 94.9061 443.702 97.3018C440.278 102.778 435.499 106.529 429.259 108.295C426.425 109.102 423.484 109.244 420.544 109.227C420.444 109.222 420.347 109.153 420.186 109.092C420.313 108.904 420.405 108.703 420.554 108.552C421.544 107.566 422.295 106.409 423.001 105.215C424.587 102.541 425.942 99.7557 427.062 96.8588C428.641 92.7673 429.757 88.541 430.488 84.2251C431.196 80.0257 431.788 75.8087 432.397 71.5985C432.851 68.4745 433.417 65.3795 434.209 62.3253C435.211 58.4874 436.863 54.9406 439.073 51.6508C440.064 50.1708 441.208 48.816 442.581 47.6843C445.53 45.2663 448.8 44.0758 452.72 44.6172C457.796 45.3218 462.666 46.7337 467.503 48.344C467.636 48.3859 467.735 48.5261 467.966 48.7199L467.961 48.7196ZM438.554 45.1673C438.478 45.4988 438.481 45.5636 438.45 45.5974C438.306 45.7667 438.157 45.9299 437.997 46.0807C433.35 50.473 430.221 55.8227 428.095 61.8044C426.981 64.9368 426.186 68.1557 425.431 71.3942C424.467 75.5397 423.456 79.6771 422.393 83.8001C421.549 87.0694 420.403 90.2473 419.084 93.3637C418.117 95.6624 416.978 97.8761 415.621 99.9731C413.889 102.657 411.713 104.902 409.049 106.681C407.984 107.387 406.936 107.653 405.619 107.399C402.025 106.715 398.47 106.992 394.964 108.088C392.95 108.718 391.006 109.492 389.129 110.457C388.417 110.822 388.412 110.821 387.67 110.832C387.788 110.696 387.889 110.566 388.001 110.448C394.223 104.052 398.142 96.4243 400.141 87.7662C400.867 84.638 401.313 81.4607 401.77 78.2898C402.13 75.7728 402.549 73.2646 403.043 70.7719C403.443 68.7568 404.173 66.8404 405.082 64.9976C405.625 63.8953 406.303 62.8997 407.249 62.0938C409.478 60.193 411.635 58.2003 413.937 56.3913C420.601 51.1522 428.067 47.5408 436.322 45.5742C437.013 45.4085 437.717 45.3199 438.548 45.1729L438.554 45.1673ZM351.012 83.1946C351.55 82.7919 351.801 82.5809 352.074 82.4121C354.203 81.1062 355.833 79.3226 357.022 77.1526C357.708 75.8927 358.332 74.5827 358.816 73.2364C359.63 70.9477 360.398 68.6274 361.008 66.2758C361.327 65.0624 361.986 64.3599 363.051 63.8657C365.134 62.9045 367.314 62.3363 369.59 62.1081C372.823 61.7803 376.001 62.0967 379.116 62.9687C381.355 63.5973 383.553 64.3474 385.785 65.005C388.063 65.6767 390.346 66.3546 392.653 66.9278C394.808 67.464 397.008 67.6966 399.233 67.5482C399.439 67.5349 399.649 67.5688 400.013 67.5869C399.777 67.9633 399.628 68.2441 399.439 68.4935C398.173 70.1716 396.914 71.8559 395.631 73.5214C393.501 76.2799 391.359 79.0262 389.222 81.7844C388.745 82.4018 388.201 82.9276 387.5 83.3104C384.521 84.9212 381.427 86.2205 378.087 86.9252C372.791 88.0388 367.558 88.0204 362.342 86.4561C358.691 85.3634 355.138 83.9521 351.011 83.2063L351.012 83.1946ZM449.908 42.6192C449.886 42.7063 449.858 42.7932 449.836 42.8744C449.571 42.8731 449.307 42.8717 449.042 42.8762C447.329 42.8972 445.614 42.8591 443.903 42.9625C440.245 43.1928 436.678 43.9686 433.149 44.9169C432.273 45.1499 431.429 45.2139 430.534 45.1107C427.991 44.814 425.527 44.2037 423.151 43.2624C421.611 42.6508 420.072 42.0158 418.546 41.3637C414.319 39.5543 409.995 38.0225 405.5 36.9997C401.976 36.1956 398.429 35.7197 394.81 36.0107C394.503 36.0367 394.189 35.9505 393.879 35.9175C393.889 35.718 393.866 35.5993 393.9 35.501C395.031 32.6164 396.093 29.7049 397.328 26.8666C398.118 25.0473 399.161 23.3347 400.095 21.5813C400.731 20.3895 401.757 19.7405 403.041 19.3455C406.887 18.1659 410.761 18.0875 414.68 18.8759C418.826 19.7108 422.497 21.575 425.911 24.0145C429.387 26.4982 432.514 29.3822 435.591 32.3343C437.185 33.8661 438.81 35.37 440.473 36.8228C442.903 38.9488 445.624 40.6365 448.569 41.9706C449.018 42.1752 449.454 42.4026 449.896 42.6186L449.908 42.6192ZM361.975 63.6242C361.925 63.3276 361.866 63.213 361.888 63.12C362.514 60.5867 363.307 58.1147 364.487 55.7796C365.316 54.1386 366.303 52.6055 367.586 51.287C368.082 50.7823 368.647 50.2986 369.263 49.9646C370.236 49.4423 371.263 49.0169 372.294 48.621C378.019 46.4407 383.965 45.724 390.064 45.9559C395.835 46.1774 401.507 47.0646 407.156 48.1916C411.227 49.0052 415.291 49.8243 419.439 50.1536C419.597 50.1614 419.747 50.2335 420.043 50.3129C419.79 50.5532 419.626 50.7627 419.419 50.9054C417.899 51.9122 416.324 52.8397 414.847 53.9192C410.234 57.2898 405.932 61.0228 402.16 65.329C401.281 66.3323 400.297 66.8481 399.009 66.8489C397.962 66.8499 396.908 66.8624 395.866 66.7636C393.319 66.5315 390.858 65.8859 388.419 65.1298C385.935 64.3538 383.464 63.5431 380.978 62.7788C378.91 62.141 376.812 61.6487 374.651 61.4475C370.618 61.071 366.694 61.441 362.978 63.1976C362.683 63.3358 362.378 63.4501 361.957 63.6233L361.975 63.6242ZM304.835 114.675C305.025 114.284 305.16 113.938 305.352 113.624C306.268 112.111 307.184 110.592 308.123 109.092C310.237 105.715 312.437 102.395 314.944 99.2849C316.723 97.0795 318.738 95.1209 320.831 93.2251C322.402 91.8033 324.204 90.9222 326.226 90.4638C327.517 90.1691 328.829 89.9283 330.147 89.7878C334.919 89.2776 339.645 89.6884 344.324 90.685C347.082 91.2747 349.834 91.8934 352.584 92.5239C355.986 93.3043 359.421 93.8863 362.876 94.3164C365.793 94.6787 368.715 94.806 371.645 94.4396C372.734 94.3054 373.824 94.1419 374.913 93.996C374.645 94.4179 374.326 94.6903 373.958 94.872C369.12 97.3139 363.997 98.8595 358.659 99.6534C354.665 100.249 350.624 100.396 346.585 100.472C343.159 100.537 339.729 100.444 336.304 100.48C332.809 100.518 329.345 100.87 325.942 101.659C321.789 102.624 318.096 104.623 314.548 106.911C311.419 108.926 308.6 111.327 305.965 113.943C305.674 114.234 305.469 114.689 304.841 114.669L304.835 114.675ZM465.994 46.0401C465.801 46.1247 465.697 46.2195 465.627 46.1984C464.254 45.7774 462.842 45.4427 461.523 44.8832C458.089 43.4426 454.875 41.5894 451.962 39.2629C448.37 36.3852 445.032 33.2496 442.097 29.687C440.411 27.639 438.719 25.5907 436.922 23.6372C431.107 17.3146 424.124 12.963 415.637 11.1953C415.398 11.1481 415.169 11.0368 414.903 10.9412C415.024 10.7532 415.06 10.6256 415.138 10.5941C416.992 9.84508 418.897 9.26908 420.889 9.06206C425.707 8.55998 430.248 9.5027 434.544 11.6919C435.824 12.3435 437.063 13.0813 438.335 13.7561C440.1 14.6964 441.939 15.4463 443.907 15.8556C444.547 15.9874 445.176 16.242 445.761 16.5416C448.595 17.9819 450.725 20.199 452.521 22.7817C453.975 24.877 455.163 27.1297 456.243 29.4299C457.536 32.1818 458.774 34.9663 460.103 37.7023C461.464 40.4987 463.092 43.1261 465.342 45.3138C465.566 45.5308 465.754 45.7812 465.982 46.0395L465.994 46.0401ZM486.316 53.5939C486.316 53.6998 486.323 53.806 486.324 53.906C486.061 53.9812 485.798 54.0623 485.536 54.1375C481.986 55.1495 479.175 57.1685 477.151 60.2558C476.363 61.4577 475.597 62.6724 474.865 63.9123C473.766 65.7811 472.289 67.2252 470.304 68.1089C469.396 68.5109 468.483 68.9066 467.543 69.2247C466.078 69.7225 464.576 70.1127 463.11 70.6222C461.859 71.0601 460.607 71.5273 459.425 72.1156C456.935 73.3507 454.978 75.2062 453.589 77.6075C452.618 79.2825 451.767 81.0224 450.859 82.73C450.645 83.1369 450.402 83.5307 450.176 83.9312C450.01 83.4877 450.04 83.1187 450.111 82.7576C450.693 79.6635 451.265 76.563 451.871 73.47C452.107 72.2761 452.389 71.0903 452.688 69.9171C454.079 64.5341 456.502 59.6727 460.072 55.3918C461.248 53.9798 462.552 52.7153 464.062 51.6668C465.518 50.651 467.039 49.756 468.774 49.2833C469.376 49.1191 469.948 49.0828 470.555 49.307C471.959 49.8118 473.39 50.2474 474.794 50.7406C478.193 51.9442 481.665 52.8575 485.24 53.3406C485.602 53.388 485.962 53.494 486.316 53.5763L486.316 53.5939ZM408.7 107.899C408.812 107.652 408.821 107.587 408.858 107.56C409.035 107.433 409.223 107.313 409.405 107.193C412.357 105.316 414.669 102.819 416.498 99.8578C417.751 97.8262 418.838 95.7099 419.759 93.5089C421.04 90.4436 422.177 87.3182 423.008 84.0952C424.085 79.9141 425.064 75.7105 426.119 71.5282C426.793 68.8445 427.473 66.1611 428.251 63.5119C429.157 60.4221 430.491 57.4946 432.088 54.6978C433.995 51.3518 436.405 48.4131 439.268 45.832C440.179 45.0127 441.206 44.5813 442.404 44.4937C443.455 44.4165 444.5 44.3213 445.55 44.2675C445.821 44.2515 446.104 44.3714 446.662 44.4873C443.032 45.9423 440.521 48.3056 438.529 51.2474C436.276 54.5762 434.592 58.1685 433.581 62.0706C432.889 64.7535 432.314 67.4539 431.925 70.1988C431.419 73.7613 430.89 77.3168 430.366 80.8726C429.754 85.0415 428.874 89.15 427.627 93.1757C426.276 97.5315 424.389 101.655 422.009 105.542C421.369 106.581 420.656 107.563 419.733 108.381C419.038 108.994 418.288 109.292 417.32 109.244C414.827 109.109 412.369 108.746 409.931 108.213C409.559 108.13 409.2 108.024 408.712 107.9L408.7 107.899ZM362.162 100.527C362.07 100.846 362.069 100.975 362.007 101.037C360.363 102.773 359.104 104.792 357.754 106.748C356.594 108.432 355.44 110.127 354.161 111.716C351.347 115.217 347.934 117.989 343.755 119.716C340.002 121.271 336.103 121.842 332.068 121.272C331.127 121.137 330.241 120.858 329.412 120.387C327.873 119.517 326.309 118.681 324.764 117.822C324.546 117.699 324.221 117.624 324.321 117.147C324.572 117.054 324.867 116.927 325.172 116.83C326.713 116.354 328.152 115.667 329.534 114.841C334.638 111.789 338.881 107.812 342.377 103.022C342.636 102.67 342.906 102.324 343.17 101.979C349.512 101.817 355.804 101.711 362.162 100.521L362.162 100.527ZM371.189 118.46C371.821 118.038 372.191 117.81 372.545 117.557C373.704 116.709 374.942 115.952 375.995 114.987C383.239 108.383 388.345 100.426 390.933 90.9265C391.487 88.9013 391.895 86.8337 392.314 84.7784C392.757 82.6067 393.258 80.4495 394.119 78.4043C394.398 77.7477 394.731 77.0937 395.147 76.5204C396.781 74.2901 398.444 72.0729 400.134 69.8866C401.045 68.7085 402.048 67.5937 403.021 66.4598C403.177 66.2793 403.333 65.9813 403.656 66.2384C403.638 66.3551 403.644 66.4672 403.61 66.5713C402.414 69.6938 401.788 72.9446 401.342 76.2395C401.074 78.2141 400.817 80.1834 400.52 82.1506C399.533 88.7711 397.695 95.1141 394.301 100.939C390.347 107.73 385.246 113.34 378.03 116.764C377.03 117.238 376.014 117.688 374.968 118.024C373.875 118.375 372.742 118.678 371.177 118.453L371.189 118.46ZM454.455 15.2084C455.869 15.0257 457.12 14.8406 458.379 14.709C461.323 14.4022 464.238 14.5703 467.099 15.3415C467.998 15.586 468.887 15.9359 469.725 16.3363C470.88 16.8876 471.598 17.8289 471.978 19.0652C472.414 20.469 472.478 21.9013 472.354 23.3361C472.202 25.0988 471.951 26.8507 471.781 28.6126C471.639 30.0406 471.48 31.4736 471.444 32.9069C471.386 35.5036 472.03 37.941 473.287 40.2206C475.888 44.937 479.374 48.7563 484.303 51.124C484.504 51.2221 484.699 51.3259 484.875 51.4523C484.943 51.5027 484.967 51.6156 485.016 51.7004C484.919 51.7485 484.821 51.8377 484.733 51.8275C482.021 51.4871 479.436 50.8296 477.069 49.3419C474.514 47.7389 472.108 45.9787 470.293 43.5597C469.035 41.8858 467.912 40.0951 466.861 38.2845C464.856 34.821 463.622 31.0192 462.183 27.3073C461.463 25.4542 460.72 23.6001 459.819 21.8322C458.635 19.5032 457.147 17.371 454.972 15.8163C454.812 15.7025 454.705 15.5031 454.455 15.2025L454.455 15.2084ZM387.956 85.7444C387.943 86.0025 387.976 86.163 387.928 86.2959C386.924 89.2279 385.914 92.1538 384.911 95.08C383.207 100.024 380.453 104.328 376.9 108.133C373.39 111.894 369.325 114.892 364.588 116.956C363.957 117.231 363.349 117.389 362.669 117.343C360.946 117.223 359.249 117.397 357.571 117.796C357.493 117.816 357.398 117.723 357.306 117.683C357.297 117.636 357.259 117.563 357.278 117.535C357.442 117.319 357.594 117.092 357.786 116.907C360.268 114.519 362.417 111.861 364.261 108.953C365.059 107.693 365.823 106.402 366.677 105.185C367.791 103.606 368.922 102.027 370.154 100.541C372.037 98.2702 374.282 96.4113 376.849 94.9213C378.133 94.1733 379.364 93.3169 380.566 92.4355C382.843 90.7605 384.897 88.8333 386.823 86.7586C387.14 86.4156 387.402 85.9875 387.955 85.7503L387.956 85.7444ZM429.568 45.745C429.563 45.8447 429.558 45.9386 429.553 46.0383C428.082 46.6535 426.583 47.2202 425.149 47.9137C424.342 48.303 423.597 48.3719 422.757 48.1302C421.91 47.8824 421.036 47.7155 420.176 47.5141C414.407 46.1929 408.646 44.8367 402.869 43.5563C398.314 42.5481 393.712 42.0141 389.037 42.5879C388.866 42.6088 388.683 42.4998 388.457 42.4356C389.443 41.5318 390.415 40.786 391.206 39.8842C392.036 38.9373 392.696 37.8408 393.449 36.7725C393.703 36.7322 393.971 36.669 394.243 36.6531C397.009 36.4903 399.768 36.5978 402.502 37.0862C407.207 37.9254 411.749 39.3034 416.164 41.1162C418.262 41.979 420.347 42.8705 422.452 43.7218C424.51 44.5531 426.618 45.2105 428.818 45.5549C429.069 45.5968 429.318 45.6855 429.567 45.7509L429.568 45.745ZM338.97 102C338.563 102.48 338.337 102.786 338.076 103.061C335.746 105.457 333.034 107.352 330.169 109.038C327.001 110.899 323.595 112.206 320.015 113.005C316.179 113.861 312.464 115.13 308.684 116.166C307.676 116.445 306.708 116.867 305.72 117.218C305.493 117.301 305.255 117.36 304.998 117.435C304.983 117.264 304.951 117.192 304.976 117.158C305.091 116.975 305.207 116.781 305.35 116.624C309.422 112.197 314.053 108.474 319.402 105.687C321.557 104.559 323.793 103.6 326.184 103.059C328.831 102.456 331.518 102.118 334.219 101.97C335.699 101.891 337.182 101.764 338.964 102L338.97 102ZM326.379 89.6421C326.341 89.5697 326.31 89.4916 326.272 89.4192C326.9 89.0916 327.523 88.7461 328.168 88.4311C330.729 87.1877 333.457 86.4938 336.246 85.9969C340.168 85.2975 344.063 85.2672 347.938 86.2357C350.355 86.8378 352.764 87.469 355.159 88.1583C358.14 89.0118 361.142 89.7783 364.198 90.3004C366.881 90.7628 369.584 90.9263 372.302 90.8023C375.19 90.675 378.01 90.1385 380.741 89.1447C381.322 88.9324 381.897 88.608 382.813 88.63C381.776 89.7372 380.73 90.4381 379.784 91.2557C378.659 92.2292 377.363 92.753 375.924 93.0639C371.608 93.9967 367.274 94.2229 362.891 93.6468C359.158 93.1557 355.455 92.5016 351.786 91.655C348.658 90.9353 345.521 90.2621 342.37 89.6471C338.327 88.8585 334.241 88.7146 330.14 89.1052C328.881 89.2251 327.629 89.463 326.373 89.6418L326.379 89.6421ZM475.128 48.9927C475.094 49.0793 475.061 49.1658 475.027 49.2524C474.725 49.1786 474.422 49.1165 474.127 49.0195C472.709 48.5551 471.299 48.0441 469.868 47.6202C468.778 47.2957 467.866 46.7211 467.026 45.9737C465.111 44.2672 463.502 42.3172 462.188 40.1171C460.45 37.2137 459.176 34.0864 457.752 31.028C456.396 28.1201 455.016 25.2286 453.196 22.5682C451.649 20.3095 449.861 18.3035 447.535 16.8119C447.313 16.6656 447.123 16.468 446.773 16.1742C447.382 16.1044 447.808 16.0609 448.239 16.0117C449.446 15.8775 450.668 15.791 451.86 15.5855C452.684 15.4441 453.383 15.5963 454.073 16.0187C455.124 16.659 456.006 17.4908 456.782 18.4409C458.196 20.1637 459.344 22.0556 460.189 24.1089C461.223 26.6127 462.197 29.1488 463.118 31.6941C464.173 34.6165 465.522 37.4006 467.077 40.0831C469.012 43.4197 471.406 46.3615 474.626 48.5679C474.808 48.6887 474.959 48.849 475.128 48.9927ZM451.273 42.1165C447.591 40.9399 444.291 39.1706 441.403 36.6984C439.643 35.1878 437.952 33.5865 436.235 32.0252C434.024 30.0158 431.861 27.9619 429.6 26.0088C427.248 23.9808 424.72 22.1734 421.949 20.7656C416.063 17.78 409.927 16.7522 403.462 18.5606C403.289 18.6109 403.05 18.799 402.863 18.4192C403.025 18.239 403.177 18.0172 403.38 17.8508C404.232 17.1461 405.107 16.472 405.948 15.755C406.881 14.9603 407.966 14.6671 409.163 14.6088C412.004 14.4733 414.797 14.7353 417.541 15.5007C421.433 16.5877 424.922 18.4605 428.105 20.9297C430.648 22.9026 432.986 25.0888 435.205 27.4161C437.118 29.4165 438.993 31.4386 440.887 33.4616C443.814 36.5886 447.085 39.2974 450.637 41.6732C450.859 41.8195 451.075 41.9713 451.291 42.1232L451.273 42.1165ZM392.606 80.3289C392.246 81.9991 391.887 83.6751 391.522 85.3449C391.165 86.9681 390.849 88.5933 390.428 90.2016C387.932 99.7349 382.89 107.719 375.679 114.377C374.125 115.812 372.363 116.954 370.557 118.034C370.005 118.366 369.451 118.503 368.817 118.366C367.845 118.159 366.86 117.992 365.888 117.785C365.707 117.747 365.551 117.58 365.311 117.427C366.78 116.624 368.178 115.958 369.472 115.128C376.816 110.411 382.246 104.099 385.319 95.8648C386.228 93.4279 386.969 90.9298 387.872 88.4927C388.524 86.7312 389.286 85.0105 390.053 83.2959C390.596 82.0819 391.53 81.1519 392.606 80.3231L392.606 80.3289ZM455.631 42.7208C455.585 42.8067 455.534 42.8865 455.489 42.9725C455.233 42.9128 454.965 42.8759 454.716 42.793C452.864 42.1777 451.15 41.2928 449.566 40.1439C446.421 37.8588 443.524 35.3097 440.853 32.4777C438.049 29.4979 435.207 26.5458 432.298 23.6666C430.089 21.481 427.643 19.5717 424.957 17.9858C420.478 15.3347 415.67 13.8553 410.433 13.9131C410.073 13.9188 409.71 13.9008 409.134 13.884C409.426 13.5809 409.541 13.3984 409.71 13.295C410.377 12.9046 411.093 12.5814 411.732 12.1484C412.571 11.5843 413.449 11.4396 414.42 11.6525C414.909 11.7591 415.406 11.819 415.889 11.9312C419.861 12.8281 423.611 14.2903 427.1 16.41C430.674 18.5811 433.866 21.2213 436.646 24.3352C438.412 26.3165 440.098 28.3704 441.809 30.402C445.647 34.9563 449.989 38.9533 454.972 42.2411C455.195 42.3874 455.403 42.5624 455.619 42.7202L455.631 42.7208ZM333.827 122.194C334.151 122.187 334.475 122.173 334.793 122.171C340.476 122.147 345.524 120.322 349.98 116.814C352.611 114.745 354.799 112.26 356.694 109.513C357.853 107.83 358.991 106.128 360.145 104.432C361.021 103.146 362.014 101.966 363.16 100.912C363.863 100.264 364.624 99.7434 365.586 99.5559C366.02 99.4715 366.434 99.3038 366.868 99.2077C367.046 99.1695 367.244 99.2088 367.632 99.2162C365.598 102.162 363.719 104.951 361.76 107.682C360.73 109.119 359.598 110.486 358.438 111.823C355.743 114.93 352.675 117.618 349.211 119.858C346.738 121.452 344.159 122.824 341.355 123.75C340.787 123.939 340.165 124.138 339.585 124.097C337.534 123.954 335.587 123.369 333.827 122.2L333.827 122.194ZM422.596 48.8809C422.097 49.562 421.604 49.5551 421.106 49.5128C419.29 49.3581 417.459 49.2908 415.655 49.019C412.76 48.5754 409.876 48.0266 406.998 47.4604C401.727 46.4285 396.429 45.5835 391.055 45.3169C385.88 45.0603 380.77 45.4067 375.755 46.7813C374.7 47.0701 373.66 47.4008 372.263 47.8138C372.915 47.3697 373.248 47.0451 373.644 46.8942C374.879 46.4202 376.121 45.929 377.402 45.5867C379.274 45.0855 381.195 44.7809 383.061 44.2735C385.91 43.4974 388.824 43.2184 391.754 43.0697C395.486 42.8843 399.159 43.4193 402.783 44.2225C408.996 45.6069 415.193 47.0611 421.392 48.4919C421.752 48.5744 422.104 48.7154 422.59 48.8748L422.596 48.8809ZM342.186 102.012C341.76 102.656 341.541 103.033 341.277 103.379C338.158 107.453 334.487 110.917 330.156 113.684C328.188 114.939 326.126 115.966 323.861 116.577C323.133 116.776 322.493 116.768 321.784 116.468C320.045 115.729 318.233 115.251 316.333 115.151C316.145 115.142 315.964 115.003 315.526 114.817C316.925 114.481 318.049 114.225 319.169 113.933C322.375 113.092 325.566 112.198 328.541 110.675C332.753 108.514 336.579 105.839 339.744 102.279C339.85 102.155 339.99 102.062 340.18 101.901C340.72 101.928 341.307 101.957 342.198 102.013L342.186 102.012ZM386.508 84.6904C385.832 85.745 385.102 86.2381 384.361 86.7071C381.793 88.3324 378.939 89.1965 375.978 89.7201C371.902 90.4413 367.814 90.3209 363.772 89.5264C361.169 89.015 358.597 88.3405 356.023 87.6953C353.02 86.9347 350.031 86.1278 347.036 85.3381C346.792 85.2731 346.556 85.1791 346.081 85.0203C346.861 84.5884 347.534 84.5453 348.1 84.2735C349.323 83.6931 350.573 83.7374 351.828 84.0526C353.438 84.45 355.039 84.8882 356.627 85.361C358.911 86.033 361.153 86.8323 363.452 87.4345C370.158 89.1904 376.721 88.4984 383.152 86.0766C384.183 85.6867 385.187 85.2424 386.496 84.7016L386.508 84.6904ZM371.786 97.6343C371.621 97.8908 371.56 98.0407 371.449 98.1469C369.186 100.37 367.297 102.881 365.612 105.562C364.756 106.919 363.907 108.277 363.011 109.609C360.935 112.699 358.531 115.509 355.638 117.871C355.044 118.353 354.377 118.761 353.694 119.115C351.835 120.088 349.964 121.048 348.067 121.942C346.983 122.453 345.966 123.161 344.635 123.318C344.794 123.185 344.863 123.094 344.96 123.046C349.247 120.906 353.117 118.193 356.53 114.822C359.536 111.854 362.1 108.534 364.461 105.046C365.451 103.578 366.447 102.116 367.438 100.648C368.421 99.1907 369.609 98.0028 371.41 97.6216C371.458 97.6122 371.516 97.6268 371.775 97.6279L371.786 97.6343Z" fill="#371646" fill-opacity="0.09"/>
<path d="M270.962 108.046C277.361 107.524 283.171 106.134 288.673 103.884C292.046 102.504 295.292 100.953 298.279 98.9755C301.499 96.8396 303.279 93.9007 303.565 90.0922C303.71 88.1574 303.797 86.1989 303.672 84.2383C303.338 79.0942 302.9 73.9366 302.447 68.7883C301.967 63.3626 301.494 57.9414 301.635 52.5499C301.789 47.0475 302.745 41.781 304.874 36.8149C306.214 33.7001 308.071 30.9312 310.465 28.4921C314.002 24.8899 318.342 22.337 323.145 20.3706C326.889 18.838 330.671 17.3634 334.38 15.766C337.954 14.228 340.908 11.9509 343.17 8.94975C344.315 7.42516 345.441 5.88065 346.559 4.33178C349.452 0.320819 352.469 -3.58433 355.91 -7.17771C362.12 -13.6407 369.829 -17.9103 379.031 -20.0812C386.451 -21.8368 393.958 -21.4727 401.586 -18.9423C405.725 -17.5666 409.681 -15.7419 413.548 -13.6871C418.264 -11.1714 422.706 -8.24093 427.148 -5.29239C435.259 0.096991 443.897 4.46296 452.767 8.39925C456.623 10.1131 460.607 11.4741 464.649 12.5695C468.687 13.6718 472.76 14.5677 476.806 15.6201C485.002 17.7565 492.97 20.6412 500.728 24.1855C503.82 25.5948 506.83 27.2025 509.856 28.7647C510.505 29.0942 511.083 29.5654 511.635 30.0303C511.778 30.1561 511.797 30.5736 511.696 30.7701C511.595 30.9665 511.305 31.1376 511.066 31.1653C510.815 31.1955 510.491 31.085 510.24 30.9525C509.653 30.6397 509.105 30.2583 508.519 29.9454C496.296 23.3492 483.457 18.6752 470.063 15.7233C461.793 13.8979 453.537 13.2019 445.303 13.8746C440.344 14.2786 435.72 15.3871 431.57 17.7485C427.245 20.2017 424.102 23.5741 422.575 28.2111C422.044 29.8378 421.636 31.5161 421.329 33.2149C420.867 35.7123 421.045 38.2999 421.247 40.8824C421.57 45.0168 421.983 49.1561 422.117 53.2832C422.56 67.1436 418.009 79.0726 409.342 89.3497C407.161 91.9357 404.625 94.1768 401.711 96.0419C398.836 97.8745 395.706 99.2019 392.118 99.6287C387.862 100.14 383.672 99.4496 379.546 97.7279C376.945 96.6402 374.513 95.2145 372.171 93.6671C370.014 92.2423 367.899 90.742 365.715 89.3472C364.287 88.4333 362.825 87.5269 361.288 86.8231C356.687 84.7161 352.242 84.7319 348 86.6795C345.226 87.9542 342.98 89.8254 341.119 92.095C339.87 93.624 338.737 95.2546 337.507 96.8036C336.525 98.04 335.55 99.2989 334.444 100.43C332.093 102.829 329.01 103.858 325.377 103.68C324.515 103.637 323.647 103.5 322.789 103.378C321.925 103.252 321.064 103.101 320.199 102.938C315.979 102.159 312.209 102.854 308.85 104.947C307.25 105.944 305.654 106.952 304.035 107.928C300.383 110.11 296.373 111.501 291.846 111.697C284.976 111.99 278.184 110.972 271.506 108.507C271.378 108.462 271.286 108.32 270.958 108.035L270.962 108.046Z" fill="#371646" fill-opacity="0.05"/>
</g>
<defs>
<clipPath id="clip0_9_131">
<rect width="500" height="300" fill="white"/>
</clipPath>
</defs>
</svg>
