<svg width="1000" height="130" viewBox="0 0 1000 130" fill="none" xmlns="http://www.w3.org/2000/svg">
<path d="M493.4 52.1H430.6V3.9H411.6V126.3H430.6V68.3H493.4V126.3H512.2V3.9H493.4M308.1 3.5C301.2 3.3 287.2 3.3 274.8 3.3V126.2H294V79.6C298.8 79.6 308.7 79.2 316.7 79C327.9 78.8 357.1 73.2 356.9 39.5C357.2 1.5 315.1 3.5 308.1 3.5ZM307.1 63.3H294.4V19H305.2C310.2 19 339.7 16.8 340.6 39.7C341.8 62.2 318.5 63.3 307.1 63.3ZM130.9 3.3L131.1 126.2H208.2V110.2H150.3V68.5H191.3C191.3 65 191.1 59.9 191.3 53.2H150.3V19.7H208.2C208 10 208.2 3.3 208.2 3.3H130.9ZM18.8 33.3C18.8 13.2 45.4 12.4 61.1 25.3C66.5 9.8 66.9 8.7 66.9 8.7C21.1 -13.3 0.2 15.8 0.2 34.4C0.2 78.9 63.3 69.4 54.2 100.7C51 112.1 30.7 118.6 7.3 104.4C5.6 109.2 2.8 115 0 120.8C30.9 137 71 129.2 72.3 95.8C74.1 53.8 18.8 56.8 18.8 33.3ZM829.2 37.8C826.4 1.3 791 4.1 783.2 3.7C776.7 3.5 762.9 3.3 751 3.3V126H770.2V74.4C776.7 74.4 778.8 74.4 788.6 74L823.6 126H846.9L808.2 70.8C818.6 67 830.7 58.1 829.2 37.8ZM782.1 60C777.8 60 774.5 60 770.2 59.8V18.3H780.3C785.1 18.3 810.3 16.8 812.5 36.9C815.2 60.7 787.3 60 782.1 60ZM955.9 3.5H933.7L893.5 126.4H912.5C918.5 104.2 920.5 97.9 920.5 97.9L970.2 97.7C976 114.1 980.3 126.6 980.3 126.6H1000L955.9 3.5ZM924.9 83.8L944.3 23.1H944.5L964.8 83.6L924.9 83.8ZM631.4 0C592.3 0 566.8 28.9 566.8 64.8C566.8 100.7 592.3 129.6 631.4 129.6C670.5 129.6 696 100.7 696 64.8C696 28.9 670.5 0 631.4 0ZM631.4 111.9C602.7 111.9 586.5 91 586.5 64.8C586.5 38.9 602.7 17.7 631.4 17.7C659.9 17.7 676.3 38.6 676.3 64.8C676.3 90.7 660.1 111.9 631.4 111.9Z" fill="#A3AD95"/>
</svg>
