<svg width="1000" height="181" viewBox="0 0 1000 181" fill="none" xmlns="http://www.w3.org/2000/svg">
<path fill-rule="evenodd" clip-rule="evenodd" d="M0 68.3658V136.732L5.44649 138.414C8.44249 139.338 13.3171 140.555 16.28 141.116C23.702 142.521 40.1791 142.536 45.8831 141.141C62.0246 137.196 73.5871 125.864 77.7395 109.923C79.4236 103.458 79.4177 86.3333 77.7285 79.1696C74.8345 66.8916 67.087 56.5594 57.082 51.6338C51.7017 48.9853 50.9906 48.857 41.6525 48.857C32.3391 48.857 31.5752 48.9938 25.9375 51.6627C22.6781 53.2065 18.784 55.4047 17.2843 56.5484C15.7846 57.6929 14.341 58.6284 14.0768 58.6284C13.8117 58.6284 13.595 45.437 13.595 29.3142V0H6.79749H0V68.3658ZM98.5637 70.524V141.048H105.361H112.159V70.524V0H105.361H98.5637V70.524ZM252.452 47.1814C237.697 51.2939 227.934 61.6031 223.739 77.4999C221.877 84.5574 221.917 101.071 223.815 109.1C227.877 126.278 237.889 137.021 253.57 141.033C269.723 145.164 286.492 141.466 297.922 131.252L302.064 127.552L298.24 124.139C296.137 122.263 294.133 120.712 293.787 120.692C293.44 120.672 291.507 121.915 289.491 123.454C282.228 128.998 277.644 130.429 267.226 130.408C258.773 130.39 257.42 130.164 253.066 128.044C243.707 123.484 236.667 113.498 235.613 103.288L235.125 98.5637H270.207H305.288L304.706 90.2792C303.974 79.8595 302.304 73.3441 298.512 66.1099C294.739 58.9139 288.068 52.5523 280.617 49.0465C275.463 46.6223 273.958 46.3215 265.952 46.1252C259.995 45.9782 255.509 46.3292 252.452 47.1814ZM353.749 47.5264C348.045 49.5792 342.621 53.3544 338.267 58.3004L334.777 62.2667V54.4998V46.7328H327.979H321.182V93.8904V141.048H327.554H333.927V114.238C333.927 83.3356 334.526 78.9019 339.808 70.7305C345.724 61.5768 353.967 57.3607 364.869 57.9112C373.047 58.3242 376.969 60.807 380.364 67.7192L382.784 72.6482L383.209 107.061L383.634 141.473L390.219 141.721L396.804 141.969V107.118V72.2667L401.691 67.2714C408.252 60.5674 412.571 58.4457 420.646 57.9631C425.917 57.6478 427.669 57.8858 430.417 59.2877C434.761 61.5054 436.154 63.119 439.036 69.2724L441.412 74.3476L441.67 108.157L441.927 141.965L448.892 141.719L455.857 141.473L455.774 108.335C455.704 80.6735 455.459 74.2439 454.291 69.4279C451.68 58.6615 447.641 53.1216 439.472 49.0992C434.102 46.4549 433.31 46.3079 424.423 46.3079C415.458 46.3079 414.78 46.4371 409.125 49.2198C405.504 51.0016 401.157 54.1327 397.92 57.2918C392.924 62.1673 392.588 62.3526 391.81 60.6447C390.513 57.7948 385.695 52.6627 382.313 50.5275C374.906 45.8516 362.129 44.5091 353.749 47.5264ZM502.165 47.1916C486.65 51.4613 476.386 62.8904 472.746 79.9504C471.122 87.5687 471.622 103.085 473.745 110.884C478.199 127.249 489.271 138.275 504.484 141.499C520.276 144.845 534.656 141.536 547.113 131.689L551.614 128.131L548.769 125.173C544.091 120.31 543.732 120.282 537.716 124.316C529.95 129.524 524.172 131.136 514.874 130.692C508.35 130.38 506.554 129.936 501.604 127.405C492.392 122.696 486.336 113.714 484.882 102.6L484.354 98.5637H519.175H553.996L553.981 91.5537C553.94 71.8979 545.131 55.9655 530.499 49.0813C525.262 46.6172 523.791 46.3224 515.76 46.1252C509.792 45.9782 505.291 46.3317 502.165 47.1916ZM613.899 47.0777C604.301 50.129 594.765 56.9477 587.836 65.7131L584.584 69.8273V58.7049V47.5825H577.78H570.975L571.195 94.5277L571.414 141.473L577.947 141.72L584.479 141.967L584.744 114.084L585.009 86.2016L587.802 80.5316C590.861 74.3204 595.424 69.7448 602.276 66.0156C606.795 63.5557 618.05 60.3278 622.107 60.3278H624.52V53.1054V45.8831L620.909 45.94C618.923 45.9715 615.768 46.483 613.899 47.0777ZM664.386 47.3904C649.207 51.4893 637.727 64.0443 634.3 80.2954C632.713 87.8211 632.687 101.544 634.246 108.898C637.921 126.238 651.221 138.949 668.79 141.912C677.057 143.306 689.562 142.59 698.23 140.226L705.24 138.313V132.175C705.24 128.799 705.051 125.849 704.821 125.619C704.591 125.388 701.628 126.137 698.236 127.282C690.676 129.835 679.349 130.673 672.851 129.161C662.339 126.714 654.551 120.599 650.117 111.309C648.026 106.93 647.886 105.861 647.886 94.3152C647.886 82.7281 648.021 81.7059 650.163 77.1363C653.155 70.7534 659.295 64.2975 665.052 61.4808C673.676 57.2612 685.894 57.8118 696.662 62.904C699.595 64.2915 702.151 65.4259 702.343 65.4259C702.534 65.4259 702.691 62.2107 702.691 58.28V51.135L696.106 48.8366C687.324 45.7709 672.833 45.1099 664.386 47.3904ZM856.265 47.8841C848.578 50.5037 839.297 56.9936 834.029 63.4342L829.719 68.7023L829.481 58.1424L829.243 47.5825H822.471H815.699V94.7758V141.969L822.284 141.721L828.869 141.473L829.294 113.008L829.719 84.5438L831.971 80.2784C837.046 70.6659 849.25 62.8938 862.243 60.9999L869.23 59.9819V52.9321V45.8831L865.618 45.9052C863.632 45.9171 859.423 46.8075 856.265 47.8841ZM131.88 83.4817L132.126 120.231L134.767 125.754C136.22 128.791 139.069 132.903 141.098 134.89C152.607 146.164 175.386 144.812 188.095 132.102L192.029 128.168V134.608V141.048H198.827H205.624V93.8904V46.7328H198.827H192.029V78.0352V109.339L189.45 114.501C184.61 124.185 175.155 130.252 164.902 130.252C155.858 130.252 150.084 126.39 146.828 118.163C145.036 113.63 144.944 112.042 144.627 80.083L144.296 46.7328H137.964H131.633L131.88 83.4817ZM722.244 81.3218C722.254 117.791 722.49 120.52 726.27 127.878C728.781 132.769 733.845 137.546 739.227 140.102C743.387 142.079 744.929 142.323 753.247 142.323C761.991 142.323 762.963 142.147 768.306 139.616C771.448 138.128 775.942 135.112 778.29 132.915L782.561 128.92V134.984V141.048H789.359H796.156V93.8904V46.7328H789.359H782.561L782.553 78.3836C782.544 110.018 782.544 110.037 780.502 114.422C773.401 129.672 751.991 135.878 742.02 125.576C736.305 119.672 736.299 119.626 735.829 81.5699L735.404 47.1576L728.819 46.9095L722.234 46.6614L722.244 81.3218ZM882.825 47.1933C882.825 47.4465 890.677 64.4275 900.273 84.9296L917.72 122.204L905.26 146.708C898.405 160.185 891.698 173.22 890.353 175.673L887.908 180.134L895.35 180.111L902.792 180.087L936.317 114.373C954.756 78.2298 969.986 48.2248 970.163 47.6955C970.385 47.0293 968.297 46.7328 963.388 46.7328H956.293L940.673 77.4388C926.188 105.914 924.979 107.997 924.026 106.116C923.461 104.999 917.15 91.1824 910.002 75.4097L897.006 46.7328H889.915C886.015 46.7328 882.825 46.9401 882.825 47.1933ZM983.105 48.1755C971.739 54.0613 975.427 70.592 988.147 70.784C1003.21 71.0109 1004.27 48.8663 989.28 47.037C987.178 46.7804 985.036 47.1755 983.105 48.1755ZM992.451 51.4145C995.586 53.0357 996.683 55.0835 996.683 59.3183C996.683 63.9891 994.909 65.2695 992.975 61.9948C992.157 60.6107 991.885 59.4781 992.369 59.4781C993.77 59.4781 994.444 55.3528 993.274 53.9441C992.585 53.1122 990.664 52.6806 987.657 52.6806H983.088V59.0532C983.088 64.8591 983.239 65.4259 984.787 65.4259C986.105 65.4259 986.486 64.8591 986.486 62.9032C986.486 59.8944 988.29 60.14 989.752 63.3484C990.342 64.645 991.424 65.4369 992.629 65.4556C994.548 65.4862 994.547 65.4922 992.434 66.7004C986.613 70.0278 979.751 65.8958 979.735 59.0532C979.718 52.0968 986.22 48.1925 992.451 51.4145ZM990.31 56.5042C990.31 56.9715 989.449 57.4762 988.398 57.6258C987.083 57.8118 986.486 57.4626 986.486 56.5042C986.486 55.5457 987.083 55.1965 988.398 55.3826C989.449 55.5321 990.31 56.0368 990.31 56.5042ZM275.817 59.7525C280.304 62.045 284.199 65.804 286.98 70.524C289.086 74.0986 291.443 81.8095 291.443 85.1233V87.5177H263.753H236.063L236.622 83.9066C239.352 66.2399 250.183 56.2841 265.621 57.251C269.815 57.5136 272.933 58.2792 275.817 59.7525ZM521.424 58.1984C530.177 60.7976 537.208 68.8518 539.94 79.4117C542.262 88.3878 545.1 87.5177 513.518 87.5177H485.784L486.263 83.4724C487.607 72.1282 495.608 61.0169 504.369 58.3267C509.792 56.6622 516.092 56.6146 521.424 58.1984ZM48.2367 62.8743C54.0231 65.363 60.4153 72.2812 62.9618 78.811C65.8278 86.1582 66.2467 100.701 63.8183 108.521C60.6379 118.764 53.5167 126.174 44.2695 128.863C38.8528 130.437 25.4821 130.03 18.2683 128.072L14.0198 126.918L13.7964 98.8016L13.572 70.6854L18.0219 67.4192C27.5749 60.4068 38.6344 58.7431 48.2367 62.8743Z" fill="#A3AD95"/>
</svg>
