<svg width="1000" height="405" viewBox="0 0 1000 405" fill="none" xmlns="http://www.w3.org/2000/svg">
<path d="M396.92 292.907C396.92 284.627 396.733 278.921 396.267 272.451C398.001 272.6 412.527 272.451 417.04 272.451C426.587 272.451 433.076 275.863 433.076 283.9C433.076 291.956 425.058 295.368 420.154 296.095V296.226C424.983 296.468 434.4 299.713 434.4 308.626C434.4 319.18 425.375 323.413 415.939 323.413C411.744 323.413 398.001 323.264 396.267 323.413C396.733 316.887 396.92 311.218 396.92 302.976V292.907ZM412.844 276.665C410.55 276.665 409.991 276.74 408.947 276.889C408.798 280.525 408.63 284.627 408.63 287.145C408.63 289.811 408.742 292.179 408.742 294.678H412.285C413.509 294.712 414.726 294.49 415.859 294.027C416.993 293.564 418.018 292.87 418.868 291.99C419.719 291.109 420.377 290.061 420.801 288.913C421.224 287.764 421.404 286.539 421.328 285.317C421.328 280.562 419.091 276.665 412.844 276.665ZM412.117 298.892C410.7 298.892 409.674 298.948 408.742 298.948C408.742 301.018 408.63 303.107 408.63 306.127C408.63 310.771 408.816 316.476 408.816 319.068C410.233 319.106 411.427 319.18 413.161 319.18C417.841 319.18 421.888 315.619 421.888 309.167C421.888 302.305 418.475 298.911 412.117 298.911M512.978 292.907C512.978 284.627 512.829 278.921 512.363 272.451C517.025 272.526 540.912 272.637 543.037 272.451C542.851 273.327 542.851 277.747 543.037 278.884C537.014 278.511 527.001 278.511 524.651 278.511C524.26 283.919 524.707 288.711 524.707 294.081C531.607 293.932 536.697 293.802 542.72 293.503C542.451 295.608 542.451 297.739 542.72 299.843C536.726 299.406 530.718 299.188 524.707 299.191C524.707 302.305 524.651 305.475 524.651 308.626C524.651 311.759 524.651 314.332 524.838 317.26C530.786 317.26 536.94 317.577 543.037 316.887C542.851 317.95 542.851 322.555 543.037 323.413C532.813 323.311 522.588 323.311 512.363 323.413C512.829 316.887 512.978 311.218 512.978 302.976V292.907ZM665.417 323.413C660.844 323.264 656.267 323.264 651.693 323.413C650.016 318.319 648.188 313.276 646.211 308.29C640.076 308.216 633.941 308.216 627.806 308.29C625.662 313.288 623.891 318.323 622.417 323.395C619.865 323.246 617.306 323.246 614.754 323.395C618.613 315.227 630.51 288.916 637.316 272.097C638.342 272.227 642.332 272.227 643.358 272.097C650.09 288.916 659.394 311.386 665.417 323.413ZM644.402 303.908C642.195 297.997 639.845 292.14 637.354 286.343C634.65 292.086 632.207 297.904 629.895 303.908H644.402ZM728.258 304.953C728.258 296.972 728.444 293 728.444 287.648C728.444 279.835 728.258 274.894 728.109 272.451C730.253 272.637 732.472 272.824 734.598 272.824C736.742 272.824 738.98 272.656 741.087 272.451C740.099 282.054 740.005 289.737 740.005 298.314C740.005 316.327 745.543 319.274 755.855 319.274C768.554 319.274 769.43 306.5 769.43 292.776C769.43 285.989 769.188 279.257 768.796 272.451C770.139 272.637 771.481 272.824 772.843 272.824C774.185 272.824 775.453 272.656 776.814 272.451C776.33 276.814 775.77 287.369 775.77 300.142C775.77 317.297 767.752 324.383 752.387 324.383C738.812 324.383 728.258 318.826 728.258 304.953ZM859.197 284.497C859.197 281.7 859.29 279.332 859.048 278.343C855.952 278.343 849.202 278.437 844.447 278.94C844.684 276.784 844.684 274.608 844.447 272.451C851.645 272.656 878.478 272.656 885.209 272.451C884.964 274.607 884.964 276.784 885.209 278.94C880.472 278.53 875.718 278.35 870.963 278.399C870.833 279.462 870.944 281.7 870.944 284.497V302.957C870.944 311.218 871.112 316.905 871.56 323.413C867.229 323.264 862.894 323.264 858.563 323.413C859.048 316.887 859.197 311.218 859.197 302.976V284.497ZM980.589 294.604C984.877 289.009 989.073 279.686 992.56 272.451C993.753 272.6 998.639 272.6 1000 272.451C996.55 277.989 988.439 292.086 983.367 301.391C983.367 303.759 983.274 305.568 983.274 307.973C983.274 312.84 983.348 317.894 984.075 323.413C979.583 323.264 975.086 323.264 970.594 323.413C970.836 318.695 971.545 313.717 971.545 309.167C971.545 306.873 971.452 304.58 971.377 302.305C965.913 292.459 956.851 276.647 954.408 272.47C956.776 272.6 966.212 272.6 968.617 272.47C972.235 279.742 978.202 291.228 980.421 294.604H980.589ZM196.409 29.4249C195.29 57.1157 195.29 92.1161 195.29 123.443C195.29 181.435 196.017 194.563 206.926 208.772C217.834 222.981 238.122 230.961 264.414 230.961C294.865 230.961 318.901 215.69 327.161 193.444C330.182 185.426 332.028 174.125 332.028 144.253C332.028 96.8338 331.674 49.0975 328.672 1.71552C333.93 2.42411 357.574 2.42411 363.243 1.71552L362.106 19.1877C360.241 50.5706 359.085 125.643 358.339 162.471C357.593 205.471 344.839 225.181 320.038 240.49C302.361 251.436 277.187 256.154 256.899 256.154C211.811 256.154 157.697 242.299 149.456 185.78C148.71 180.689 148.71 169.743 148.71 166.462V67.3156C148.71 48.7432 147.945 20.3066 146.808 1.71552C155.441 2.79705 190.013 2.79705 197.546 1.71552L196.409 29.4249ZM419.594 101.85C419.594 85.9066 419.594 82.2705 418.475 49.9739C418.103 42.3286 417.357 9.67778 416.984 2.79705C426.363 4.58716 459.816 4.21422 469.195 2.79705C466.585 57.5632 465.466 103.304 465.466 159.227C465.466 184.624 466.193 208.249 466.585 228.202H473.354C484.243 228.202 538.338 228.202 560.491 224.92C559.409 228.91 558.999 247.035 560.491 251.809C541.34 251.063 509.044 249.608 488.756 249.608C464.701 249.608 444.413 250.317 416.984 251.809C416.984 245.991 419.594 161.781 419.594 152.7V101.85ZM665.361 202.059C665.361 229.656 666.89 241.628 668.009 251.809C657.101 250.709 628.552 250.317 615.033 251.809C616.525 224.211 618.781 196.241 618.781 168.662L618.408 67.3902C618.408 53.9644 618.035 41.2285 617.662 27.0754H598.904C595.51 27.0754 559.465 27.8213 540.296 29.63C541.415 25.2853 542.217 4.9601 541.079 0.596703C570.728 2.44275 611.621 2.40546 640.58 2.40546C671.757 2.40546 705.229 1.8274 741.311 0C740.154 6.1908 739.782 23.7749 740.938 29.63C718.766 27.4484 692.082 27.0754 666.163 27.0754C665.79 40.1283 665.38 53.9457 665.38 67.7258L665.361 202.059ZM887.111 211.904L871.41 173.547C855.299 172.839 793.541 172.839 778.549 173.547C766.577 201.406 754.587 231.409 748.602 252.051C743.716 251.305 719.065 251.305 713.769 252.051L757.216 158.704C795.014 76.9934 816.7 29.9657 825.651 1.75282H850.078C868.11 49.862 890.505 100.489 903.968 130.883C918.196 162.359 942.903 216.958 959.779 252.051C940.816 251.689 921.849 251.689 902.887 252.051L887.111 211.904ZM825.334 62.1131L787.163 151.134C800.272 151.507 813.027 152.159 826.136 152.159C833.501 152.159 844.671 152.122 860.558 151.134L825.334 62.1131Z" fill="#A3AD95"/>
<path d="M92.9365 12.9596C34.385 52.6591 0 102.577 0 163.553C0 301.988 167.17 404.322 405.534 404.322C512.382 404.322 601.589 376.688 667.711 342.638L663.609 342.694C583.8 366.711 503.095 376.576 420.154 376.576C180.577 376.576 15.6075 264.134 15.3651 160.215C15.2532 102.558 42.0862 52.8082 92.9365 16.4466V12.9596ZM930.372 1.49176C938.521 1.49176 945.365 7.92496 945.365 16.3534C945.379 18.3281 945.002 20.2861 944.254 22.1138C943.506 23.9415 942.403 25.6026 941.009 27.0007C939.614 28.3988 937.956 29.5061 936.13 30.2583C934.304 31.0105 932.347 31.3928 930.372 31.3829C926.408 31.3829 922.607 29.8082 919.804 27.0054C917.001 24.2026 915.427 20.4011 915.427 16.4373C915.427 12.4735 917.001 8.67204 919.804 5.86921C922.607 3.06637 926.408 1.49176 930.372 1.49176ZM930.372 29.2012C937.29 29.2012 942.661 23.6817 942.661 16.3534C942.661 13.0869 941.363 9.9542 939.053 7.64444C936.744 5.33468 933.611 4.03707 930.344 4.03707C927.078 4.03707 923.945 5.33468 921.635 7.64444C919.326 9.9542 918.028 13.0869 918.028 16.3534C918.028 23.6817 923.38 29.2012 930.372 29.2012ZM924.536 7.68255H931.286C935.463 7.68255 937.402 9.32349 937.402 12.6799C937.402 15.8499 935.407 17.1552 932.815 17.4349L937.812 25.1548H934.903L930.13 17.64H927.258V25.1548H924.536V7.68255ZM927.258 15.4397H930.093C932.498 15.4397 934.698 15.3278 934.698 12.5681C934.698 10.2372 932.703 9.8829 930.857 9.8829H927.258V15.4397Z" fill="#A3AD95"/>
</svg>
