<svg width="1000" height="794" viewBox="0 0 1000 794" fill="none" xmlns="http://www.w3.org/2000/svg">
<path fill-rule="evenodd" clip-rule="evenodd" d="M639.726 7.28144C626.496 16.7855 605.981 41.7993 585.603 73.2842C558.921 114.506 540.781 155.506 532.805 192.61L528.11 214.465L511.282 226.065C501.534 232.786 491.296 237.668 486.953 237.668C480.271 237.668 479.452 236.665 479.452 228.487C479.452 217.087 488.025 200.755 511.033 168.314C532.195 138.479 536.597 126.89 531.121 115.429C528.86 110.698 524.77 107.164 520.926 106.618C514.175 105.66 502.759 116.569 443.836 180.284C416.852 209.465 387.778 233.424 382.964 230.449C381.408 229.487 380.852 223.84 381.696 217.553C383 207.829 386.06 203.75 405.112 186.336C437.693 156.553 455.047 130.654 446.184 125.038C444.14 123.744 434.893 122.665 425.638 122.64L408.808 122.599L394.058 138.533C370.512 163.964 353.422 188.281 349.937 201.312C347.386 210.854 343.992 215.336 333.751 222.695C285.592 257.292 253.066 262.092 242.247 236.197C237.584 225.038 239.033 217.355 247.575 207.92C253.923 200.906 287.57 176.092 288.482 177.747C288.789 178.306 290.405 181.229 292.074 184.243C297.4 193.865 303.953 192.314 317.079 178.331C330.696 163.821 342.397 141.755 342.438 130.506C342.455 126.331 339.342 120.221 334.97 115.849C324.869 105.75 312.781 107.506 286.874 122.838C263.893 136.435 222.367 176.84 213.49 194.238C202.504 215.777 206.247 250.133 222.205 274.227C232.323 289.503 242.022 295.202 257.904 295.202C274.77 295.202 289.915 286.66 319.077 260.698C333.301 248.029 345.562 237.668 346.318 237.668C347.077 237.668 348.479 241.838 349.436 246.934C352.104 261.158 360.748 273.188 371.54 277.698C380.504 281.443 382.151 281.353 391.342 276.594C400.405 271.903 422.123 249.147 441.616 223.917L448.986 214.38L442.425 230.925C429.841 262.665 431.34 278.775 447.6 286.572C459.326 292.194 473.751 285.197 503.208 259.597L528.334 237.761L531.29 251.55C543.901 310.353 585.699 305.213 638.934 238.312C646.518 228.78 653.14 221.399 653.647 221.909C654.156 222.418 652.156 230.597 649.205 240.084C639.937 269.862 644.041 289.394 660.723 294.898C679.351 301.046 702.762 288.572 739.041 253.169C760.937 231.802 764.384 227.205 764.384 219.355C764.384 214.358 763.058 210.27 761.436 210.27C759.814 210.27 751.493 215.651 742.943 222.227C710.085 247.501 698.301 251.435 692.647 239.024C687.258 227.199 700.767 188.983 722.512 154.536C729.26 143.846 729.34 143.81 743.718 145.292L758.148 146.783L776.37 119.569C796.134 90.0513 796.115 90.6458 777.479 86.6294C773.564 85.7856 774.638 83.1691 783.83 71.1499C797.463 53.3253 797.077 47.5883 782.17 46.3445C767.592 45.128 756.03 51.6924 745.041 67.4157C732.422 85.476 729.786 86.9828 710.841 86.9828C690.411 86.9828 680.208 92.9143 666.638 112.676C650.753 135.813 650.606 148.862 666.277 144.366C671.244 142.942 680.036 141.777 685.814 141.777H696.323L685.63 156.849C657.479 196.534 602.581 248.627 588.91 248.627C574.885 248.627 564.186 227.139 568.479 207.588C569.553 202.706 577.967 190.501 587.989 179.292C637.912 123.465 669.874 59.076 667.951 18.2184C667.134 0.906107 667.019 0.67322 658.904 0.0458228C653.479 -0.373355 646.959 2.08692 639.726 7.28144ZM632.808 73.5582C629.622 81.6952 622.584 96.3664 617.167 106.161C606.745 125.007 583.759 156.588 581.852 154.679C579.233 152.06 591.986 118.67 604.085 96.4705C618.419 70.1773 636.449 47.8075 637.792 54.654C638.236 56.9143 635.995 65.4212 632.808 73.5582ZM0 574.394V793.832H47.4575C103.866 793.832 115.468 791.049 130.055 774.007C147.581 753.531 149.315 743.701 149.315 664.821V594.714L140.548 580.613L131.781 566.512L137.315 553.999C142.348 542.621 142.855 535.676 142.904 477.424C142.975 392.903 138.718 377.457 111.384 363.002C101.121 357.572 95.0822 356.881 50 355.966L0 354.953V574.394ZM169.863 574.654V793.832H234.247H298.63V766.728C298.63 744.539 297.844 739.323 294.296 737.961C291.912 737.046 275.268 736.298 257.31 736.298H224.658V669.279V602.257L250 601.47L275.342 600.681V571.914V543.147L250 542.358L224.658 541.572V478.66V415.75H255.94C273.145 415.75 289.173 415.002 291.556 414.087C295.123 412.717 295.89 407.388 295.89 383.95V355.476H232.877H169.863V574.654ZM371.321 361.553C370.532 364.991 361.795 429.449 351.901 504.791C342.011 580.134 329.693 673.832 324.529 713.01C319.364 752.188 315.123 786.402 315.104 789.038C315.071 793.281 318.17 793.832 342.129 793.832H369.186L372.375 767.12C377.874 721.065 374.921 725.339 401.249 725.339H423.981L427.17 752.051C428.923 766.744 431.025 782.155 431.836 786.298L433.312 793.832H460.49H487.671L487.499 786.298C487.405 782.155 475.362 683.832 460.737 567.805L434.145 356.846L403.449 356.073C373.441 355.314 372.721 355.438 371.321 361.553ZM501.37 548.128C501.37 766.966 500.863 761.169 521.86 782.166L533.526 793.832H571.838C607.167 793.832 610.869 793.347 619.408 787.591C624.869 783.912 632.06 774.72 636.937 765.186L645.205 749.018L645.962 553.687L646.715 358.355L640.449 356.783C637.003 355.917 624.951 355.577 613.666 356.027L593.151 356.846L591.781 544.076L590.411 731.306L583.942 736.542C576.244 742.775 570.074 743.169 562.852 737.89C557.69 734.114 557.512 728.476 556.795 544.739L556.055 355.476H528.712H501.37V548.128ZM666.345 384.884L667.123 414.38L688.356 415.18L709.589 415.98V604.906V793.832H738.356H767.123V604.791V415.75H787.337C801.312 415.75 808.529 414.566 810.729 411.917C812.784 409.443 813.63 398.999 813.121 382.465L812.329 356.846L738.948 356.117L665.567 355.386L666.345 384.884ZM823.679 357.58C822.964 358.736 828.526 383.703 836.036 413.06C843.545 442.416 856.989 495.407 865.912 530.818L882.137 595.202L882.164 694.517L882.192 793.832H910.959H939.726V693.147L939.729 592.462L958.863 521.958C981.573 438.279 1000 365.605 1000 359.709C1000 356.177 995.518 355.476 972.953 355.476H945.91L937.293 388.038C932.556 405.944 925.381 434.917 921.351 452.421C917.321 469.923 913.334 484.243 912.49 484.243C911.649 484.24 904.94 457.427 897.586 424.654C890.23 391.879 883.099 362.909 881.737 360.271C879.63 356.194 875.197 355.476 852.121 355.476C837.194 355.476 824.395 356.424 823.679 357.58ZM88.3589 426.361C89.6712 431.446 90.3589 458.361 89.8931 486.177C89.1041 533.051 88.6411 537.043 83.5616 540.755C80.3233 543.123 73.6 544.429 67.1233 543.953L56.1644 543.147L55.4274 479.312L54.6931 415.473L70.3342 416.298C85.5616 417.098 86.0384 417.364 88.3589 426.361ZM409.556 606.958C413.342 639.043 416.438 666.473 416.438 667.917C416.438 669.364 409.658 670.544 401.37 670.544C388.86 670.544 386.293 669.731 386.26 665.75C386.184 656.616 401.211 540.427 401.94 544.517C402.345 546.777 405.77 574.876 409.556 606.958ZM88.3151 603.155C91.4959 607.906 90.8192 724.939 87.5753 730.999C85.3014 735.246 81.7644 736.298 69.7671 736.298H54.7945V668.262C54.7945 630.84 55.5425 599.476 56.4575 598.561C59.0877 595.931 86.0822 599.824 88.3151 603.155Z" fill="#A3AD95"/>
</svg>
