<svg width="1000" height="119" viewBox="0 0 1000 119" fill="none" xmlns="http://www.w3.org/2000/svg">
<path fill-rule="evenodd" clip-rule="evenodd" d="M44.9533 2.30053C44.9533 3.52343 45.8381 7.11889 46.9182 10.2908C48.5341 15.0311 49.5153 16.1844 52.4359 16.7678C57.3177 17.7442 57.6314 18.7718 54.7633 24.3957C52.7129 28.4158 52.276 31.5976 52.276 42.5316C52.276 54.7106 52.0514 56.0018 49.53 58.3561C48.0203 59.7657 45.2718 61.2937 43.4253 61.7526C41.5775 62.2115 38.0284 63.6248 35.5387 64.894C33.0489 66.1633 29.877 67.2019 28.4905 67.2019C25.3601 67.2019 21.7927 71.2038 21.6792 74.8432C21.6316 76.3468 21.1214 78.6742 20.5442 80.0167C19.4372 82.5931 19.3872 82.5638 18.7049 78.9414C18.467 77.6795 17.6846 76.0588 16.967 75.3411C16.2494 74.6235 15.6623 72.7928 15.6623 71.2721C15.6623 67.839 12.9578 66.3268 5.88772 65.8081C0.741062 65.431 0.383468 65.6056 0.0295364 68.6555C-0.177941 70.4422 0.730078 74.5539 2.04817 77.7918C5.32387 85.8346 6.20748 88.2596 6.62243 90.3381C7.53411 94.905 10.5962 98.0819 17.4137 101.533C21.4851 103.595 25.4846 105.828 26.3023 106.496C30.3993 109.845 42.1987 116.279 44.343 116.334C47.9055 116.425 71.514 112.513 77.8091 110.787C82.6043 109.472 84.6083 107.612 95.8108 94.0824L108.417 78.856V58.1937C108.417 35.2369 108.912 36.8638 98.1285 24.442C96.0671 22.0682 92.4595 17.7173 90.1101 14.7712C83.2987 6.23164 82.1613 5.54329 72.1462 3.89568C66.9227 3.0377 60.0137 1.82699 56.7929 1.20578C47.7835 -0.530927 44.9533 -0.268525 44.9533 2.30053ZM154.753 2.21267C154.73 3.38675 154.747 16.7397 154.792 31.8856L154.874 59.4227L150.562 63.8627L146.251 68.3015V91.3059C146.251 107.572 146.681 114.741 147.716 115.776C148.744 116.805 155.631 117.241 170.887 117.241C199.016 117.241 209.634 115.052 217.446 107.644C224.928 100.548 226.801 95.7557 226.801 83.7098C226.801 72.8917 226.241 71.1122 220.394 63.3648C217.086 58.9833 216.16 56.2544 217.953 56.18C221.659 56.0237 227.86 36.6612 225.431 32.829C224.863 31.932 224.389 29.9097 224.378 28.3353C224.369 26.7609 223.2 23.8428 221.78 21.8498L219.2 18.2263L221.78 15.4802C225.131 11.9129 225.033 10.4129 221.228 7.08596C214.604 1.29612 208.613 0.273371 180.729 0.172073C156.823 0.0842007 154.791 0.244077 154.753 2.21267ZM233.117 1.65004C232.236 2.71184 231.792 21.087 231.749 58.3145C231.693 106.817 231.914 113.635 233.601 115.323C235.245 116.967 240.016 117.241 267.032 117.241C294.644 117.241 298.638 117.001 299.288 115.31C300.668 111.712 300.096 92.1663 298.564 90.6347C297.557 89.6278 291.458 89.1701 279.037 89.1701H260.974V80.8039V72.4364L269.212 71.659C273.743 71.2306 282.196 70.8767 287.998 70.8718C296.485 70.8645 298.692 70.4861 299.288 68.9325C299.695 67.8707 300.028 62.1236 300.028 56.1604C300.028 46.6909 299.729 45.1593 297.668 44.056C296.361 43.3567 287.64 42.7928 278.141 42.7928H260.974V35.4701V28.1473H279.748C298.187 28.1473 298.537 28.0985 299.259 25.4013C300.22 21.8144 300.242 4.4937 299.288 2.00764C298.638 0.314864 294.595 0.0768744 266.484 0.0768744C241.813 0.0768744 234.121 0.439351 233.117 1.65004ZM339.943 0.953145C338.912 2.73379 330.59 30.0305 329.781 34.2875C329.338 36.6161 328.558 39.0704 328.046 39.7417C327.535 40.4129 326.491 43.4335 325.726 46.4542C324.961 49.4748 323.891 53.0446 323.345 54.3871C320.732 60.8323 317.912 69.7722 316.223 76.9655C315.197 81.3287 314 85.1731 313.561 85.5087C313.123 85.8444 312.024 89.1396 311.12 92.8315C310.217 96.5233 309.084 100.093 308.603 100.764C306.895 103.152 304.676 113.361 305.383 115.587C306.026 117.613 307.384 117.829 318.289 117.638C324.992 117.521 331.522 117.093 332.8 116.688C334.313 116.207 335.641 113.942 336.607 110.188C337.422 107.019 338.537 103.327 339.085 101.985C339.633 100.642 340.389 98.5822 340.765 97.4082C341.358 95.5531 343.132 95.2724 354.301 95.2724H367.153V98.8617C367.153 100.836 367.666 102.768 368.293 103.155C368.921 103.543 370.314 106.889 371.39 110.589L373.346 117.317L387.641 116.973L401.936 116.63L401.642 111.749C401.48 109.064 400.831 105.494 400.2 103.816C399.569 102.137 397.87 96.6454 396.425 91.611C394.98 86.5766 393.294 81.5044 392.679 80.3389C392.065 79.1734 391.562 76.8386 391.562 75.152C391.562 73.4641 391.013 72.0837 390.342 72.0837C389.671 72.0837 389.122 70.7437 389.122 69.1046C389.122 67.4655 388.572 65.7862 387.901 65.3712C387.23 64.9563 386.681 63.1121 386.681 61.2717C386.681 59.4313 386.227 57.4041 385.673 56.767C385.118 56.1287 383.955 53.1362 383.09 50.1155C382.224 47.0949 381.089 43.2505 380.565 41.5723C380.043 39.8942 377.868 32.7546 375.732 25.7064C373.596 18.6583 371.414 11.7932 370.884 10.4507C370.355 9.10824 369.423 6.36222 368.814 4.34847L367.71 0.687102L354.103 0.342918C346.619 0.153747 340.247 0.42835 339.943 0.953145ZM400.803 1.15699C399.808 2.76677 399.67 72.5719 400.643 82.4576C401.177 87.8959 402.656 93.3294 404.712 97.4057C412.185 112.226 424.271 118.451 444.75 118.029C463.131 117.651 474.313 111.745 481.429 98.6542L484.927 92.2212L485.538 47.306C485.912 19.6981 485.701 1.94539 484.988 1.23386C484.351 0.598006 477.938 0.0768744 470.737 0.0768744H457.644L457.21 40.0468C456.931 65.5921 456.288 81.1273 455.426 83.0934C452.434 89.9256 439.451 92.1602 433.767 86.8219L430.617 83.8623V43.4348C430.617 13.6178 430.233 2.62154 429.152 1.54144C427.424 -0.186729 401.847 -0.533341 400.803 1.15699ZM492.468 0.875042C491.441 1.90267 491.364 24.7899 492.381 27.437C492.996 29.0407 495.471 29.3678 507.01 29.3678H520.9L521.22 72.9991L521.541 116.63L535.058 116.973C548.107 117.305 548.618 117.22 549.829 114.532C550.621 112.772 551.005 96.5892 550.873 70.5582L550.663 29.3678H563.898C579.771 29.3678 579.441 29.7583 578.384 12.2814L577.682 0.687102L535.49 0.366122C512.285 0.190376 492.925 0.418592 492.468 0.875042ZM582.388 1.92588C581.985 2.97425 588.341 17.162 597.071 34.7024C605.538 51.7131 612.465 66.6844 612.465 67.9708C612.465 69.2572 607.798 79.6334 602.092 91.0301C596.388 102.425 591.72 113.001 591.718 114.532C591.717 117.297 591.818 117.314 606.624 116.973L621.529 116.63L623.405 112.969C624.436 110.955 625.58 109.033 625.947 108.697C626.315 108.362 628.187 104.792 630.108 100.764C632.028 96.7369 636.453 87.675 639.941 80.6269C651.401 57.4688 672.316 15.4253 674.756 10.6399C676.073 8.05987 677.149 4.61086 677.149 2.97546V0.00119185L662.198 0.344147L647.248 0.687102L638.906 17.6063C630.608 34.4351 630.554 34.5071 628.841 31.2046C623.488 20.8869 622.158 18.2348 618.433 10.4507C616.185 5.75199 613.784 1.5036 613.1 1.01054C612.415 0.517476 605.384 0.106183 597.476 0.0951991C585.747 0.0805536 582.966 0.417399 582.388 1.92588ZM731.154 0.842117C730.003 1.33884 729.629 7.73644 729.629 26.8512V52.2025L733.378 55.3086L737.126 58.4134L737.054 85.6918C736.999 106.078 737.375 113.479 738.543 114.99C739.867 116.705 742.98 117.037 759.018 117.173C780.834 117.359 798.4 115.023 804.761 111.092C807.054 109.675 810.584 106.509 812.606 104.057C816.928 98.8129 816.972 98.9081 814.005 107.025C810.509 116.59 811.349 117.241 827.186 117.241C839.812 117.241 840.496 117.108 842.336 114.299C843.397 112.681 844.553 110.073 844.905 108.502C845.258 106.931 845.9 103.999 846.333 101.985C847.687 95.6873 848.616 95.2724 861.373 95.2724H873.215L876.795 105.951L880.374 116.63H894.993C908.335 116.63 909.651 116.43 910.055 114.335C910.297 113.071 909.956 110.875 909.295 109.453C908.634 108.03 907.417 104.395 906.592 101.375C904.936 95.3151 903.196 89.8548 901.729 86.119C901.201 84.7765 900.105 81.2066 899.293 78.186C898.479 75.1654 897.318 71.7408 896.713 70.5752C896.106 69.4097 895.61 67.6169 895.61 66.5917C895.61 65.5665 895.115 63.7736 894.508 62.6081C893.903 61.4426 892.742 58.018 891.928 54.9974C891.115 51.9767 890.029 48.4069 889.514 47.0644C888.999 45.7219 887.349 40.5044 885.847 35.4701C884.344 30.4357 882.638 25.2182 882.056 23.8757C881.473 22.5332 880.208 18.4142 879.245 14.7223C878.282 11.0305 876.843 6.2072 876.046 4.00428L874.597 0L861.012 0.342918L847.427 0.687102L845.391 6.78938C844.272 10.1456 841.588 18.6583 839.427 25.7064C837.267 32.7546 835.051 39.6196 834.506 40.9621C833.96 42.3046 831.798 49.1697 829.701 56.2178C827.603 63.2659 825.437 70.4056 824.886 72.0837C824.337 73.7618 823.175 77.6063 822.305 80.6269C821.435 83.6475 820.322 86.6682 819.831 87.3394C819.342 88.0107 818.556 90.62 818.085 93.1366C817.615 95.6544 816.649 97.7133 815.942 97.7133C815.234 97.7133 815.001 97.3667 815.424 96.9432C816.531 95.8362 814.033 91.611 812.272 91.611C811.19 91.611 810.906 88.7954 811.22 81.2188C811.709 69.4146 809.308 62.2517 803.268 57.5005C800.874 55.6173 800.243 54.4018 801.076 53.2753C809.277 42.1923 809.451 41.7249 809.384 31.063C809.335 23.3168 808.826 20.262 807.308 18.5826C806.202 17.361 805.297 15.7878 805.297 15.0873C805.297 12.7257 794.608 3.93595 789.864 2.39573C785.104 0.850635 734.25 -0.495502 731.154 0.842117ZM904.586 1.93076C903.988 3.49172 913.534 25.8456 916.627 30.1257C917.171 30.8775 919.201 34.7219 921.137 38.6689C923.076 42.6146 926.911 50.4121 929.662 55.9957C935.262 67.3606 935.619 69.6831 932.478 74.3367C931.276 76.1186 928.947 80.5964 927.304 84.2883C925.662 87.9801 923.998 91.2754 923.61 91.611C923.221 91.9466 921.933 94.6927 920.748 97.7133C919.563 100.734 917.77 104.124 916.762 105.246C915.755 106.369 914.63 109.527 914.264 112.264L913.596 117.241H927.901C941.244 117.241 942.361 117.056 944.497 114.495C945.758 112.984 946.806 111.063 946.829 110.223C946.851 109.384 947.419 108.697 948.09 108.697C948.761 108.697 949.31 107.673 949.31 106.421C949.31 105.169 950.409 102.749 951.751 101.041C953.094 99.3353 954.192 97.4424 954.192 96.837C954.192 96.2304 964.631 74.8981 977.391 49.4321C990.149 23.9648 1000.32 2.42502 999.992 1.5646C999.543 0.385642 995.738 0.0854104 984.488 0.344147L969.577 0.687102L964.021 11.6712C960.965 17.7124 958.129 22.9299 957.721 23.2655C957.312 23.6011 956.24 25.9359 955.339 28.4525C953.411 33.8408 950.919 34.3888 949.738 29.6851C949.276 27.8459 948.168 25.61 947.276 24.7179C946.383 23.8257 945.284 21.6289 944.835 19.836C944.385 18.0432 943.286 15.8464 942.394 14.9542C941.501 14.0621 940.416 11.8591 939.981 10.0602C939.547 8.26124 938.135 5.27845 936.845 3.43313C934.508 0.0890789 934.444 0.0768744 919.899 0.0768744C907.964 0.0768744 905.168 0.414956 904.586 1.93076ZM79.6899 25.632C80.0792 26.2617 79.6508 27.2222 78.7367 27.7678C77.8238 28.3121 75.4781 31.5036 73.5241 34.8598C70.1703 40.6228 69.9726 41.7322 69.9726 54.7923V68.6213L65.9866 72.1838C63.7947 74.1426 61.1511 75.7451 60.1113 75.7451C59.0727 75.7451 55.2197 77.1181 51.551 78.7962C47.8824 80.4744 44.0452 81.8474 43.0225 81.8474C41.2419 81.8474 37.9686 88.6001 38.646 90.8775C38.8254 91.4816 38.6594 92.7924 38.2762 93.7895C37.6794 95.3432 37.2376 95.2956 35.2031 93.4539C33.4139 91.8356 33.1185 90.7591 34.0082 89.0969C34.6575 87.8825 35.1896 85.8895 35.1896 84.6678C35.1896 83.0898 37.2376 81.6509 42.2548 79.7055C46.142 78.1982 49.7692 76.9655 50.3184 76.9655C52.7544 76.9655 60.9437 69.0582 63.9423 63.8103C66.9727 58.5062 67.2315 56.9879 67.2046 44.7077C67.1765 31.6854 67.2571 31.2851 70.6158 27.9264C74.0269 24.5153 78.3278 23.4278 79.6899 25.632ZM196.063 33.8871C196.126 44.9432 195.158 46.4542 188.009 46.4566L182.254 46.459L182.596 38.8288C183.176 25.8761 183.272 25.7064 190.074 25.7064H196.015L196.063 33.8871ZM776.993 28.2999C779.12 29.0871 779.667 30.2648 779.667 34.0604C779.667 36.7113 778.891 39.4768 777.921 40.2823C775.249 42.4999 762.995 43.4347 760.773 41.5919C758.861 40.0041 758.107 29.3666 759.787 27.686C760.91 26.5632 773.515 27.0135 776.993 28.2999ZM92.0726 41.2672C93.2088 42.7635 93.7007 47.7845 93.7153 58.0485L93.7361 72.6939L84.4508 83.628C79.3445 89.6424 74.2723 94.739 73.18 94.9538C72.0864 95.1686 68.1724 95.8545 64.4805 96.477C60.7887 97.0994 56.4695 97.9867 54.8841 98.4492C52.2553 99.2157 52.121 99.0631 53.3683 96.7321C54.2617 95.0625 57.2664 93.4624 62.003 92.1334C74.1221 88.7332 82.4786 79.3027 84.6376 66.5917C85.6274 60.7591 85.6213 59.7217 84.5436 52.3429C83.8504 47.5904 84.1579 46.0112 86.384 42.8844C89.4889 38.5237 89.9002 38.4065 92.0726 41.2672ZM357.884 59.2689C358.167 61.2827 358.78 63.892 359.245 65.0661C359.976 66.909 359.339 67.2019 354.6 67.2019C348.894 67.2019 346.896 65.4396 348.941 62.209C349.54 61.2632 350.038 59.0896 350.049 57.3773C350.058 55.665 350.582 53.7427 351.212 53.1057C351.842 52.4686 352.62 50.2986 352.942 48.2848C353.265 46.2711 353.622 44.3489 353.737 44.0133C354.048 43.1089 357.288 55.0291 357.884 59.2689ZM866.227 65.0661C866.302 66.8016 865.276 67.2019 860.746 67.2019C856.024 67.2019 855.262 66.8748 855.766 65.0661C856.093 63.892 857.348 58.5952 858.554 53.2973L860.746 43.663L863.44 53.2973C864.922 58.5952 866.176 63.892 866.227 65.0661ZM780.281 71.6041C781.243 72.8746 782.048 75.6804 782.069 77.8382C782.097 80.6464 782.889 82.1671 784.854 83.1899C788.835 85.261 788.871 85.3623 786.291 87.3138C784.785 88.4525 780.976 89.1066 775.701 89.131L767.463 89.1701L767.361 81.5422C767.305 77.3475 767.117 72.6171 766.945 71.0317C766.645 68.2857 766.913 68.1758 772.581 68.7214C776.496 69.0973 779.13 70.0834 780.281 71.6041ZM190.031 73.2212C196.191 74.4111 197.466 75.9013 197.492 81.9462C197.515 87.5701 194.551 89.2446 184.024 89.5509L176.152 89.7803L175.771 83.7586C175.171 74.2842 176.118 72.074 180.752 72.1374C182.921 72.1667 187.096 72.6537 190.031 73.2212Z" fill="#A3AD95"/>
</svg>
