<svg width="1000" height="183" viewBox="0 0 1000 183" fill="none" xmlns="http://www.w3.org/2000/svg">
<path fill-rule="evenodd" clip-rule="evenodd" d="M459.895 4.56135C444.247 9.98721 433.042 17.6184 420.371 31.4815C409.042 43.8788 406.85 47.6792 401.34 64.4682C393.523 88.2914 397.316 117.721 410.971 139.196C422.751 157.725 446.344 175.204 466.73 180.502C476.705 183.096 502.74 183.033 512.357 180.39C538.952 173.088 561.924 154.421 573.156 130.983C576.837 123.303 579.848 114.609 579.848 111.666V106.312L562.38 106.858L544.914 107.405L538.433 118.504C524.297 142.719 495.88 152.613 469.179 142.615C455.386 137.451 446.049 129.213 440.017 116.883C420.428 76.8427 448.751 34.1355 493.346 36.4739C514.949 37.6051 527.892 45.7838 539.403 65.5804L544.932 75.0861L562.39 75.6336L579.848 76.1792V70.6602C579.848 61.2344 566.852 38.0328 555.101 26.4777C544.376 15.9321 527.338 6.21344 512.357 2.10128C499.215 -1.50899 473.989 -0.324579 459.895 4.56135ZM685.762 4.68493C665.15 11.8256 650.31 22.9131 639.034 39.5956C627.162 57.1659 623.125 70.2686 623.125 91.2458C623.125 105.402 624.057 111.772 627.439 120.713C641.89 158.924 674.865 182.535 713.698 182.478C740.439 182.44 759.66 174.867 779.386 156.605C788.198 148.447 792.871 142.031 798.561 130.276C802.698 121.727 806.084 112.869 806.084 110.594C806.084 106.634 805.304 106.455 788.055 106.455H770.027L765.405 115.575C752.034 141.961 721.949 153.257 693.451 142.596C648.605 125.816 648.694 56.9245 693.582 39.8674C721.639 29.2058 751.918 40.6488 765.405 67.0062L770.027 76.0366H788.293H806.559L805.369 69.8579C804.715 66.4587 801.184 57.5671 797.523 50.0956C786.606 27.8237 763.591 9.26668 738.593 2.57846C723.559 -1.44245 700.838 -0.537507 685.762 4.68493ZM0 91.2458V178.698H17.1103H34.2205V130.078V81.4587L61.8308 107.74C77.0171 122.194 90.1996 134.021 91.1274 134.021C92.0551 134.021 105.082 122.044 120.076 107.405L147.338 80.7895L147.846 129.744L148.354 178.698H165.432H182.51V91.2458V3.79329H176.314C170.785 3.79329 165.863 8.05185 130.601 43.3427L91.0856 82.894L51.8194 43.3427C16.5228 7.78949 11.9221 3.79329 6.27757 3.79329H0V91.2458ZM241.901 90.7705L242.395 177.748L299.905 178.251L357.414 178.753V161.616V144.478H317.49H277.567V126.459V108.44L313.213 107.923L348.859 107.405V91.2458V75.0861L313.213 74.569L277.567 74.0518V56.0328V38.0138H314.639H351.711V20.9036V3.79329H296.559H241.407L241.901 90.7705ZM905.215 10.9226C903.23 14.8446 895.175 32.1678 887.314 49.4207C870.578 86.1507 864.236 99.9777 854.616 120.713C838.835 154.731 828.897 176.748 828.897 177.694C828.897 178.248 837.371 178.698 847.726 178.698H866.553L873.097 163.014L879.641 147.329L914.654 146.814L949.667 146.299L956.298 162.023L962.928 177.748L981.464 178.291C993.85 178.655 1000 178.153 1000 176.774C1000 175.641 996.312 166.841 991.804 157.219C987.297 147.597 969.548 109.141 952.361 71.7591L921.114 3.79329H914.968C909.776 3.79329 908.262 4.89785 905.215 10.9226ZM927.606 95.5233L935.186 112.158H915.312C904.38 112.158 895.437 111.683 895.437 111.103C895.437 110.523 897.274 106.031 899.517 101.122C901.762 96.2134 906.091 86.6526 909.139 79.8788L914.681 67.5613L917.354 73.2248C918.823 76.3389 923.437 86.375 927.606 95.5233Z" fill="#A3AD95"/>
</svg>
