<svg width="512" height="512" viewBox="0 0 512 512" fill="none" xmlns="http://www.w3.org/2000/svg">
<g clip-path="url(#clip0_1_148)">
<path d="M456.953 279.543H373.849C368.327 279.543 363.849 284.02 363.849 289.543C363.849 295.066 368.327 299.543 373.849 299.543H456.953C460.762 299.543 463.859 302.641 463.859 306.449V350.362H193.839V306.449C193.839 302.641 196.937 299.543 200.745 299.543H283.849C289.371 299.543 293.849 295.066 293.849 289.543C293.849 284.02 289.371 279.543 283.849 279.543H254.01L276.6 32.527C277.362 24.203 274.567 15.888 268.932 9.715C263.298 3.541 255.272 0 246.913 0H49.57C41.211 0 33.185 3.541 27.55 9.715C21.915 15.889 19.12 24.203 19.882 32.527L54.262 408.457V477.399C54.262 496.479 69.784 512.001 88.864 512.001H429.437C459.446 512.001 483.86 487.587 483.86 457.578V380.878C483.86 376.105 482.756 371.586 480.794 367.559C482.681 365.74 483.86 363.192 483.86 360.364V306.451C483.859 291.613 471.789 279.543 456.953 279.543ZM200.745 279.543C185.909 279.543 173.839 291.613 173.839 306.449V360.362C173.839 363.19 175.018 365.738 176.905 367.558C174.943 371.585 173.839 376.104 173.839 380.877V398H73.389L42.985 65.551H253.497L233.927 279.544H200.745V279.543ZM42.323 23.197C44.204 21.136 46.778 20 49.57 20H246.913C249.705 20 252.278 21.135 254.16 23.197C256.042 25.259 256.938 27.926 256.684 30.705L255.326 45.55H41.156L39.798 30.705C39.544 27.926 40.441 25.259 42.323 23.197ZM74.262 477.398V418H173.84V452.008C173.786 452.008 173.735 452 173.681 452H122.804C111.688 452 102.645 461.043 102.645 472.159V492H88.863C80.812 492 74.262 485.45 74.262 477.398ZM122.644 492V472.159C122.644 472.071 122.715 472 122.803 472H173.68C173.768 472 173.839 472.071 173.839 472.159V492H122.644ZM463.859 457.577C463.859 476.558 448.417 492 429.436 492H228.263C209.282 492 193.84 476.558 193.84 457.577V380.877C193.84 375.079 198.557 370.362 204.355 370.362H453.346C459.144 370.362 463.861 375.079 463.861 380.877V457.577H463.859Z" fill="#325956"/>
<path d="M385.849 399.181H271.849C266.327 399.181 261.849 403.658 261.849 409.181V453.181C261.849 458.704 266.327 463.181 271.849 463.181H385.849C391.371 463.181 395.849 458.704 395.849 453.181V409.181C395.849 403.658 391.372 399.181 385.849 399.181ZM375.849 443.181H281.849V419.181H375.849V443.181Z" fill="#325956"/>
<path d="M160.37 169.51C157.346 165.932 152.925 163.881 148.241 163.881C143.557 163.881 139.136 165.933 136.112 169.51L116.227 193.034C102.272 209.543 103.314 234.45 118.6 249.735C126.517 257.652 137.044 262.012 148.241 262.012C159.438 262.012 169.965 257.652 177.882 249.735C193.168 234.449 194.211 209.544 180.256 193.034L160.37 169.51ZM163.74 235.593C159.6 239.733 154.096 242.013 148.241 242.013C142.387 242.013 136.883 239.733 132.743 235.593C124.75 227.601 124.205 214.578 131.502 205.946L148.241 186.143L164.98 205.946C172.278 214.578 171.733 227.601 163.74 235.593Z" fill="#325956"/>
<path d="M489.011 110.53C473.109 95.9049 453.413 86.8129 432.054 84.2359C404.631 80.9229 377.576 88.5159 355.877 105.609C334.287 122.616 320.648 146.95 317.474 174.128C316.169 185.298 316.671 196.44 318.937 207.268C315.081 216.393 312.465 226.087 311.282 236.096C310.634 241.58 314.553 246.552 320.039 247.2C320.437 247.247 320.833 247.27 321.226 247.27C326.223 247.27 330.543 243.529 331.144 238.443C331.914 231.933 333.385 225.641 335.49 219.64C342.413 222.065 349.592 223.756 356.953 224.663C361.132 225.178 365.295 225.43 369.427 225.43C412.834 225.429 452.587 197.659 466.797 155.831C470.788 144.082 478.258 133.688 488.397 125.773C490.713 123.965 492.117 121.23 492.236 118.294C492.351 115.358 491.173 112.519 489.011 110.53ZM447.857 149.396C435.327 186.278 398.123 209.582 359.396 204.813C354.258 204.18 349.233 203.07 344.357 201.519C351.668 190.209 361.652 180.645 373.796 173.633C378.579 170.872 380.218 164.756 377.456 159.973C374.695 155.19 368.579 153.551 363.796 156.313C353.691 162.147 344.727 169.581 337.164 178.197C337.22 177.614 337.271 177.032 337.339 176.449C339.892 154.591 350.871 135.012 368.253 121.32C385.745 107.541 407.555 101.427 429.657 104.091C443.159 105.721 455.838 110.591 466.861 118.319C458.281 127.233 451.798 137.8 447.857 149.396Z" fill="#325956"/>
<path d="M328.849 299.543C334.372 299.543 338.849 295.066 338.849 289.543C338.849 284.02 334.372 279.543 328.849 279.543C323.326 279.543 318.849 284.02 318.849 289.543C318.849 295.066 323.326 299.543 328.849 299.543Z" fill="#325956"/>
</g>
<defs>
<clipPath id="clip0_1_148">
<rect width="512" height="512" fill="white"/>
</clipPath>
</defs>
</svg>
